{
.appVersion = "3141";
.formatVersion = 3;
customParameters = (
{
name = vendorID;
value = MONO;
},
{
name = panose;
value = (
2,
2,
6,
0,
6,
5,
0,
2,
2,
0
);
},
{
name = unicodeRanges;
value = (
0,
1,
2,
3,
4,
5,
6,
7,
9,
29,
30,
31,
32,
33,
34,
35,
36,
37,
38,
39,
43,
44,
45,
46,
60,
62,
64,
67,
69
);
},
{
name = codePageRanges;
value = (
"1252"
);
}
);
date = "2020-10-31 04:20:23 +0000";
familyName = Khmer;
featurePrefixes = (
{
code = "lookup SUB_0 {
	sub uni17B7 by uni17B7.r;
	sub uni17B8 by uni17B8.r;
	sub uni17B9 by uni17B9.r;
	sub uni17BA by uni17BA.r;
	sub uni17BE by uni17B8.r;
	sub uni17C6 by uni17C6.r;
	sub uni17C9 by uni17C9.r;
	sub uni17CD by uni17CD.r;
	sub uni17B7_17CD by iMark_17CDkhmer.r;
} SUB_0;
lookup SUB_1 {
	sub uni17B7 by uni17B7.a;
	sub uni17B8 by uni17B8.a;
	sub uni17B9 by uni17B9.a;
	sub uni17BA by uni17BA.a;
	sub uni17BE by uni17B8.a;
	sub uni17C6 by uni17C6.a;
	sub uni17CE by uni17CE.a;
	sub uni17D0 by uni17D0.a;
} SUB_1;
lookup SUB_10 {
	sub uni17C9 uni17B6 by uni17C9;
	sub uni17C9 uni17C4 by uni17C9;
	sub uni17C9 uni17C5 by uni17C9;
	sub uni17CA uni17B6 by uni17CA;
	sub uni17CA uni17C4 by uni17CA;
	sub uni17CA uni17C5 by uni17CA;
	sub uni17CC uni17B6 by uni17CC;
	sub uni17CC uni17C4 by uni17CC;
	sub uni17CC uni17C5 by uni17CC;
	sub uni17C9.r uni17B6 by uni17C9.r;
	sub uni17C9.r uni17C4 by uni17C9.r;
	sub uni17C9.r uni17C5 by uni17C9.r;
} SUB_10;
lookup SUB_11 {
	sub uni17D2_178A by coeng_178Akhmer.r;
	sub uni17D2_178F by coeng_178Akhmer.r;
	sub uni17D2_1797 by coeng_1797khmer.r;
	sub uni17D2_1798 by coeng_1798khmer.r;
} SUB_11;
lookup SUB_12 {
	sub uni17BB by uni17BB.b;
	sub uni17BC by uni17BC.b;
	sub uni17BD by uni17BD.b;
} SUB_12;
lookup SUB_13 {
	sub uni17BF by uni17BF.b;
	sub uni17C0 by uni17C0.b;
} SUB_13;
lookup SUB_14 {
	sub uni17CA by uni17BB;
} SUB_14;
lookup SUB_15 {
	sub uni17C9 by uni17BB;
	sub uni17C9.r by uni17BB;
} SUB_15;
lookup SUB_16 {
	sub uni1789 by uni1789.a;
} SUB_16;
lookup SUB_17 {

glyphs = (
{
glyphname = A;
lastChange = "2022-11-15 14:54:54 +0000";
layers = (
{
layerId = m01;
shapes = (
{
closed = 1;
nodes = (
(1045,0,l),
(1463,0,l),
(1463,126,l),
(1356,141,l),
(856,1456,l),
(687,1456,l),
(178,141,l),
(70,126,l),
(70,0,l),
(487,0,l),
(487,126,l),
(377,145,l),
(476,413,l),
(1059,413,l),
(1155,145,l),
(1045,126,l)
);
},
{
closed = 1;
nodes = (
(755,1170,l),
(767,1203,l),
(773,1203,l),
(785,1170,l),
(999,578,l),
(537,578,l)
);
}
);
userData = {
assembly = "NPUSHB[ ]	/* 42 values pushed */
19 1 4 2 15 12 7 4 3 5 1 0 2 76 0 4 0 0 1 4 0 104 0 2 2 31 77 3 1 1 1 32 1 78 18 19 19 19 17 5 8 27 
CALL[ ]	/* CallFunction */";
};
width = 1533;
}
);
note = A;
unicode = 65;
},
{
glyphname = B;
lastChange = "2022-11-15 14:54:54 +0000";
layers = (
{
layerId = m01;
shapes = (
{
closed = 1;
nodes = (
(1067,0,o),
(1253,144,o),
(1253,411,cs),
(1253,594,o),
(1146,739,o),
(970,775,c),
(1105,824,o),
(1194,933,o),
(1194,1062,cs),
(1194,1325,o),
(1013,1456,o),
(709,1456,cs),
(81,1456,l),
(81,1329,l),
(244,1301,l),
(244,154,l),
(81,126,l),
(81,0,l),
(771,0,ls)
);
},
{
closed = 1;
nodes = (
(441,683,l),
(801,683,ls),
(971,683,o),
(1055,583,o),
(1055,409,cs),
(1055,246,o),
(951,154,o),
(771,154,cs),
(441,154,l)
);
},
{
closed = 1;
nodes = (
(441,1301,l),
(709,1301,ls),
(896,1301,o),
(997,1223,o),
(997,1066,cs),
(997,925,o),
(901,837,o),
(760,837,cs),
(441,837,l)
);
}
);
userData = {
assembly = "NPUSHB[ ]	/* 81 values pushed */
5 1 4 1 14 1 2 5 2 1 0 3 3 76 4 1 4 3 1 3 2 75 0 5 7 1 2 3 5 2 103 8 1 4 4 1 95 0 1 1 31 77 0 3 3 0 95 6 1 0 0 32 0 78 32 31 22 21 1 0 35 33 31 39 32 39 25 23 21 30 22 30 9 6 0 20 1 20 9 8 22 
CALL[ ]	/* CallFunction */";
};
width = 1322;
}
);
note = B;
unicode = 66;
},
{
glyphname = C;
lastChange = "2022-11-15 14:54:54 +0000";
layers = (
{
layerId = m01;
shapes = (
{
closed = 1;
nodes = (
(900,-21,o),
(1061,19,o),
(1170,87,c),
(1170,403,l),
(1016,403,l),
(994,200,l),
(935,164,o),
(839,139,o),
(746,139,cs),
(546,139,o),
(405,232,o),
(333,405,cs),
(296,491,o),
(278,595,o),
(278,717,cs),
(278,740,ls),
(278,1082,o),
(437,1314,o),
(721,1314,cs),
(840,1314,o),
(932,1287,o),
(996,1237,c),
(1017,1007,l),
(1174,1007,l),
(1174,1321,l),
(1071,1412,o),
(910,1477,o),
(722,1477,cs),
(455,1477,o),
(260,1341,o),
(157,1119,cs),
(106,1008,o),
(80,881,o),
(80,738,cs),
(80,717,ls),
(80,252,o),
(320,-21,o),
(739,-21,cs)
);
}
);
userData = {
assembly = "NPUSHB[ ]	/* 66 values pushed */
12 1 3 1 34 1 0 4 2 76 0 2 3 5 3 2 5 128 0 5 4 3 5 4 126 0 3 3 1 97 0 1 1 37 77 0 4 4 0 97 6 1 0 0 38 0 78 1 0 33 32 29 27 20 18 14 13 10 8 0 36 1 36 7 8 22 
CALL[ ]	/* CallFunction */";
};
width = 1290;
}
);
note = C;
unicode = 67;
},
{
glyphname = D;
lastChange = "2022-11-15 14:54:54 +0000";
layers = (
{
layerId = m01;
shapes = (
{
closed = 1;
nodes = (
(918,0,o),
(1111,133,o),
(1214,349,cs),
(1265,456,o),
(1291,577,o),
(1291,712,cs),
(1291,743,ls),
(1291,1019,o),
(1179,1241,o),
(988,1364,cs),
(892,1425,o),
(780,1456,o),
(651,1456,cs),
(81,1456,l),
(81,1329,l),
(244,1301,l),
(244,154,l),
(81,126,l),
(81,0,l),
(661,0,ls)
);
},
{
closed = 1;
nodes = (
(441,1301,l),
(651,1301,ls),
(835,1301,o),
(969,1197,o),
(1041,1030,cs),
(1076,946,o),
(1094,851,o),
(1094,745,cs),
(1094,712,ls),
(1094,507,o),
(1020,330,o),
(888,230,cs),
(822,179,o),
(743,154,o),
(651,154,cs),
(441,154,l)
);
}
);
userData = {
assembly = "NPUSHB[ ]	/* 60 values pushed */
5 1 2 1 2 1 0 3 2 76 4 1 2 3 1 3 2 75 5 1 2 2 1 95 0 1 1 31 77 0 3 3 0 95 4 1 0 0 32 0 78 18 17 1 0 21 19 17 28 18 28 9 6 0 16 1 16 6 8 22 
CALL[ ]	/* CallFunction */";
};
width = 1356;
}
);
note = D;
unicode = 68;
},
{
glyphname = E;
lastChange = "2022-11-15 14:54:54 +0000";
layers = (
{
layerId = m01;
shapes = (
{
closed = 1;
nodes = (
(978,830,l),
(441,830,l),
(441,1304,l),
(979,1304,l),
(1001,1106,l),
(1159,1106,l),
(1159,1456,l),
(81,1456,l),
(81,1329,l),
(244,1301,l),
(244,154,l),
(81,126,l),
(81,0,l),
(1190,0,l),
(1190,349,l),
(1033,349,l),
(1011,148,l),
(441,148,l),
(441,675,l),
(978,675,l)
);
}
);
userData = {
assembly = "NPUSHB[ ]	/* 18 values pushed */
10 1 5 3 9 1 4 5 8 1 0 1 7 1 2 0 4 76 
MPPEM[ ]	/* MeasurePixelPerEm */
PUSHB[ ]	/* 1 value pushed */
12 
LT[ ]	/* LessThan */
IF[ ]	/* If */
NPUSHB[ ]	/* 44 values pushed */
0 4 5 6 5 4 114 0 1 7 0 0 1 114 0 6 8 1 7 1 6 7 103 0 5 5 3 95 0 3 3 31 77 0 0 0 2 96 0 2 2 32 2 78 
ELSE[ ]	/* Else */
NPUSHB[ ]	/* 46 values pushed */
0 4 5 6 5 4 6 128 0 1 7 0 7 1 0 128 0 6 8 1 7 1 6 7 103 0 5 5 3 95 0 3 3 31 77 0 0 0 2 96 0 2 2 32 2 78 
EIF[ ]	/* EndIf */
NPUSHB[ ]	/* 16 values pushed */
0 0 0 19 0 19 17 17 17 21 17 17 17 9 8 29 
CALL[ ]	/* CallFunction */";
};
width = 1306;
}
);
note = E;
unicode = 69;
},
{
glyphname = F;
lastChange = "2022-11-15 14:54:54 +0000";
layers = (
{
layerId = m01;
shapes = (
{
closed = 1;
nodes = (
(441,1303,l),
(996,1303,l),
(1018,1106,l),
(1176,1106,l),
(1176,1456,l),
(81,1456,l),
(81,1329,l),
(244,1301,l),
(244,154,l),
(81,126,l),
(81,0,l),
(604,0,l),
(604,126,l),
(441,154,l),
(441,644,l),
(974,644,l),
(974,799,l),
(441,799,l)
);
}
);
userData = {
assembly = "NPUSHB[ ]	/* 17 values pushed */
10 1 4 2 9 1 3 4 8 7 4 3 4 1 0 3 76 
MPPEM[ ]	/* MeasurePixelPerEm */
PUSHB[ ]	/* 1 value pushed */
12 
LT[ ]	/* LessThan */
IF[ ]	/* If */
NPUSHB[ ]	/* 32 values pushed */
0 3 4 5 4 3 114 6 1 5 0 0 1 5 0 103 0 4 4 2 95 0 2 2 31 77 0 1 1 32 1 78 
ELSE[ ]	/* Else */
NPUSHB[ ]	/* 33 values pushed */
0 3 4 5 4 3 5 128 6 1 5 0 0 1 5 0 103 0 4 4 2 95 0 2 2 31 77 0 1 1 32 1 78 
EIF[ ]	/* EndIf */
NPUSHB[ ]	/* 14 values pushed */
0 0 0 17 0 17 17 17 21 19 17 7 8 27 
CALL[ ]	/* CallFunction */";
};
width = 1256;
}
);
note = F;
unicode = 70;
},
{
glyphname = G;
lastChange = "2022-11-15 14:54:54 +0000";
layers = (
{
layerId = m01;
shapes = (
{
closed = 1;
nodes = (
(991,-21,o),
(1142,57,o),
(1226,136,c),
(1226,700,l),
(750,700,l),
(750,555,l),
(1029,545,l),
(1029,203,l),
(958,166,o),
(871,140,o),
(738,140,cs),
(446,140,o),
(278,364,o),
(278,716,cs),
(278,742,ls),
(278,971,o),
(361,1147,o),
(494,1243,cs),
(561,1291,o),
(636,1315,o),
(719,1315,cs),
(848,1315,o),
(942,1293,o),
(1007,1250,c),
(1028,1039,l),
(1190,1039,l),
(1190,1333,l),
(1078,1421,o),
(926,1477,o),
(699,1477,cs),
(462,1477,o),
(268,1346,o),
(161,1126,cs),
(107,1015,o),
(80,887,o),
(80,740,cs),
(80,716,ls),
(80,425,o),
(191,197,o),
(388,73,cs),
(487,10,o),
(603,-21,o),
(738,-21,cs)
);
}
);
userData = {
assembly = "NPUSHB[ ]	/* 73 values pushed */
12 1 3 1 30 1 4 5 35 1 0 4 3 76 0 2 3 6 3 2 6 128 0 6 0 5 4 6 5 103 0 3 3 1 97 0 1 1 37 77 0 4 4 0 97 7 1 0 0 38 0 78 1 0 34 33 32 31 28 26 19 17 14 13 10 8 0 37 1 37 8 8 22 
CALL[ ]	/* CallFunction */";
};
width = 1346;
}
);
note = G;
unicode = 71;
},
{
glyphname = H;
lastChange = "2022-11-15 14:54:54 +0000";
layers = (
{
layerId = m01;
shapes = (
{
closed = 1;
nodes = (
(974,0,l),
(1497,0,l),
(1497,126,l),
(1334,154,l),
(1334,1301,l),
(1497,1329,l),
(1497,1456,l),
(974,1456,l),
(974,1329,l),
(1137,1301,l),
(1137,798,l),
(441,798,l),
(441,1301,l),
(604,1329,l),
(604,1456,l),
(81,1456,l),
(81,1329,l),
(244,1301,l),
(244,154,l),
(81,126,l),
(81,0,l),
(604,0,l),
(604,126,l),
(441,154,l),
(441,643,l),
(1137,643,l),
(1137,154,l),
(974,126,l)
);
}
);
userData = {
assembly = "NPUSHB[ ]	/* 54 values pushed */
22 21 18 17 14 13 10 9 8 3 2 27 24 23 8 7 4 3 0 8 1 0 2 76 0 3 0 0 1 3 0 104 4 1 2 2 31 77 5 1 1 1 32 1 78 21 19 19 21 19 17 6 8 28 
CALL[ ]	/* CallFunction */";
};
width = 1578;
}
);
note = H;
unicode = 72;
},
{
glyphname = I;
lastChange = "2022-11-15 14:54:54 +0000";
layers = (
{
layerId = m01;
shapes = (
{
closed = 1;
nodes = (
(81,1329,l),
(244,1301,l),
(244,154,l),
(81,126,l),
(81,0,l),
(604,0,l),
(604,126,l),
(441,154,l),
(441,1301,l),
(604,1329,l),
(604,1456,l),
(81,1456,l)
);
}
);
userData = {
assembly = "NPUSHB[ ]	/* 35 values pushed */
10 9 8 7 4 3 2 1 8 0 1 1 76 2 1 1 1 31 77 0 0 0 32 0 78 0 0 0 11 0 11 21 3 8 23 
CALL[ ]	/* CallFunction */";
};
width = 685;
}
);
note = I;
unicode = 73;
},
{
glyphname = J;
lastChange = "2022-11-15 14:54:54 +0000";
layers = (
{
layerId = m01;
shapes = (
{
closed = 1;
nodes = (
(781,-21,o),
(937,144,o),
(937,413,cs),
(937,1301,l),
(1100,1329,l),
(1100,1456,l),
(546,1456,l),
(546,1327,l),
(740,1301,l),
(740,413,ls),
(740,244,o),
(662,136,o),
(500,136,cs),
(343,136,o),
(256,225,o),
(251,421,c),
(62,421,l),
(60,415,l),
(72,132,o),
(248,-21,o),
(503,-21,cs)
);
}
);
userData = {
assembly = "NPUSHB[ ]	/* 49 values pushed */
19 18 15 14 4 1 3 1 76 0 1 3 2 3 1 2 128 0 3 3 31 77 0 2 2 0 98 4 1 0 0 38 0 78 1 0 17 16 10 8 6 4 0 23 1 23 5 8 22 
CALL[ ]	/* CallFunction */";
};
width = 1169;
}
);
note = J;
unicode = 74;
},
{
glyphname = K;
lastChange = "2022-11-15 14:54:54 +0000";
layers = (
{
layerId = m01;
shapes = (
{
closed = 1;
nodes = (
(1017,1315,l),
(1013,1310,l),
(441,675,l),
(441,1301,l),
(604,1329,l),
(604,1456,l),
(81,1456,l),
(81,1329,l),
(244,1301,l),
(244,154,l),
(81,126,l),
(81,0,l),
(604,0,l),
(604,126,l),
(441,154,l),
(441,436,l),
(669,684,l),
(1060,141,l),
(1061,140,l),
(941,126,l),
(941,0,l),
(1427,0,l),
(1427,126,l),
(1293,151,l),
(793,820,l),
(1238,1304,l),
(1375,1329,l),
(1375,1456,l),
(908,1456,l),
(908,1329,l)
);
}
);
userData = {
assembly = "NPUSHB[ ]	/* 43 values pushed */
29 27 26 25 24 21 20 19 18 15 14 13 12 10 9 6 4 2 18 1 0 1 76 3 1 0 0 31 77 2 1 1 1 32 1 78 21 24 22 16 4 8 26 
CALL[ ]	/* CallFunction */";
};
width = 1501;
}
);
note = K;
unicode = 75;
},
{
glyphname = L;
lastChange = "2022-11-15 14:54:54 +0000";
layers = (
{
layerId = m01;
shapes = (
{
closed = 1;
nodes = (
(604,1456,l),
(81,1456,l),
(81,1329,l),
(244,1301,l),
(244,154,l),
(81,126,l),
(81,0,l),
(1130,0,l),
(1130,381,l),
(979,381,l),
(956,151,l),
(441,151,l),
(441,1301,l),
(604,1329,l)
);
}
);
userData = {
assembly = "NPUSHB[ ]	/* 17 values pushed */
13 10 9 0 4 1 3 8 1 0 1 7 1 2 0 3 76 
MPPEM[ ]	/* MeasurePixelPerEm */
PUSHB[ ]	/* 1 value pushed */
10 
LT[ ]	/* LessThan */
IF[ ]	/* If */
NPUSHB[ ]	/* 23 values pushed */
0 1 3 0 0 1 114 0 3 3 31 77 0 0 0 2 96 0 2 2 32 2 78 
ELSE[ ]	/* Else */
NPUSHB[ ]	/* 24 values pushed */
0 1 3 0 3 1 0 128 0 3 3 31 77 0 0 0 2 96 0 2 2 32 2 78 
EIF[ ]	/* EndIf */
PUSHB[ ]	/* 7 values pushed */
21 17 17 17 4 8 26 
CALL[ ]	/* CallFunction */";
};
width = 1210;
}
);
note = L;
unicode = 76;
},
{
glyphname = M;
lastChange = "2022-11-15 14:54:54 +0000";
layers = (
{
layerId = m01;
shapes = (
{
closed = 1;
nodes = (
(1059,52,l),
(1532,1188,l),
(1537,1187,l),
(1537,154,l),
(1365,126,l),
(1365,0,l),
(1888,0,l),
(1888,126,l),
(1725,154,l),
(1725,1301,l),
(1888,1329,l),
(1888,1456,l),
(1449,1456,l),
(995,351,l),
(989,351,l),
(520,1456,l),
(94,1456,l),
(94,1329,l),
(257,1301,l),
(257,154,l),
(94,126,l),
(94,0,l),
(617,0,l),
(617,126,l),
(441,154,l),
(441,576,l),
(434,1185,l),
(439,1186,l),
(928,52,l)
);
}
);
userData = {
assembly = "NPUSHB[ ]	/* 49 values pushed */
25 24 23 20 19 18 17 13 10 9 8 7 4 3 0 15 4 1 1 76 0 4 1 0 1 4 0 128 2 1 1 1 31 77 3 1 0 0 32 0 78 21 21 19 21 21 5 8 27 
CALL[ ]	/* CallFunction */";
};
width = 1982;
}
);
note = M;
unicode = 77;
},
{
glyphname = N;
lastChange = "2022-11-15 14:54:54 +0000";
layers = (
{
layerId = m01;
shapes = (
{
closed = 1;
nodes = (
(1346,1301,l),
(1509,1329,l),
(1509,1456,l),
(986,1456,l),
(986,1329,l),
(1165,1301,l),
(1165,323,l),
(1159,321,l),
(445,1456,l),
(83,1456,l),
(83,1329,l),
(246,1301,l),
(246,154,l),
(83,126,l),
(83,0,l),
(606,0,l),
(606,126,l),
(427,154,l),
(427,1139,l),
(433,1141,l),
(1166,0,l),
(1346,0,l)
);
}
);
userData = {
assembly = "NPUSHB[ ]	/* 43 values pushed */
20 19 16 15 13 10 9 8 7 4 3 1 12 0 1 1 76 2 1 1 1 31 77 4 3 2 0 0 32 0 78 0 0 0 21 0 21 21 21 21 5 8 25 
CALL[ ]	/* CallFunction */";
};
width = 1592;
}
);
note = N;
unicode = 78;
},
{
glyphname = O;
lastChange = "2022-11-15 14:54:54 +0000";
layers = (
{
layerId = m01;
shapes = (
{
closed = 1;
nodes = (
(874,-21,o),
(1025,54,o),
(1127,186,cs),
(1229,317,o),
(1281,500,o),
(1281,717,cs),
(1281,738,ls),
(1281,954,o),
(1229,1138,o),
(1127,1270,cs),
(1025,1402,o),
(874,1477,o),
(675,1477,cs),
(487,1477,o),
(336,1402,o),
(232,1270,cs),
(127,1138,o),
(70,954,o),
(70,738,cs),
(70,717,ls),
(70,500,o),
(127,317,o),
(232,186,cs),
(336,54,o),
(487,-21,o),
(675,-21,cs)
);
},
{
closed = 1;
nodes = (
(268,740,ls),
(268,1082,o),
(416,1312,o),
(675,1312,cs),
(866,1312,o),
(984,1210,o),
(1041,1039,cs),
(1069,953,o),
(1083,853,o),
(1083,740,cs),
(1083,717,ls),
(1083,366,o),
(959,143,o),
(675,143,cs),
(414,143,o),
(268,372,o),
(268,717,cs)
);
}
);
userData = {
assembly = "NPUSHB[ ]	/* 42 values pushed */
0 3 3 1 97 0 1 1 37 77 5 1 2 2 0 97 4 1 0 0 38 0 78 23 22 1 0 32 30 22 39 23 39 12 10 0 21 1 21 6 8 22 
CALL[ ]	/* CallFunction */";
};
width = 1351;
}
);
note = O;
unicode = 79;
},
{
glyphname = P;
lastChange = "2022-11-15 14:54:54 +0000";
layers = (
{
layerId = m01;
shapes = (
{
closed = 1;
nodes = (
(750,584,ls),
(958,584,o),
(1107,659,o),
(1184,790,cs),
(1223,855,o),
(1242,932,o),
(1242,1020,cs),
(1242,1195,o),
(1163,1329,o),
(1016,1402,cs),
(943,1438,o),
(854,1456,o),
(750,1456,cs),
(81,1456,l),
(81,1329,l),
(244,1301,l),
(244,154,l),
(81,126,l),
(81,0,l),
(604,0,l),
(604,126,l),
(441,154,l),
(441,584,l)
);
},
{
closed = 1;
nodes = (
(441,1301,l),
(750,1301,ls),
(947,1301,o),
(1045,1179,o),
(1045,1018,cs),
(1045,857,o),
(947,738,o),
(750,738,cs),
(441,738,l)
);
}
);
userData = {
assembly = "NPUSHB[ ]	/* 57 values pushed */
7 1 3 1 5 4 1 0 4 0 2 2 76 6 1 3 1 75 0 4 0 2 0 4 2 103 5 1 3 3 1 95 0 1 1 31 77 0 0 0 32 0 78 21 20 24 22 20 28 21 28 38 53 18 6 8 25 
CALL[ ]	/* CallFunction */";
};
width = 1297;
}
);
note = P;
unicode = 80;
},
{
glyphname = Q;
lastChange = "2022-11-15 14:54:54 +0000";
layers = (
{
layerId = m01;
shapes = (
{
closed = 1;
nodes = (
(1228,236,o),
(1279,454,o),
(1279,717,cs),
(1279,738,ls),
(1279,1188,o),
(1062,1477,o),
(674,1477,cs),
(304,1477,o),
(70,1188,o),
(70,738,cs),
(70,717,ls),
(70,271,o),
(306,-21,o),
(674,-21,cs),
(747,-21,o),
(818,-8,o),
(885,13,c),
(1237,-245,l),
(1348,-98,l),
(1056,105,l)
);
},
{
closed = 1;
nodes = (
(267,740,ls),
(267,1083,o),
(417,1312,o),
(674,1312,cs),
(865,1312,o),
(983,1210,o),
(1040,1039,cs),
(1068,953,o),
(1082,853,o),
(1082,740,cs),
(1082,717,ls),
(1082,369,o),
(953,143,o),
(674,143,cs),
(411,143,o),
(267,373,o),
(267,717,cs)
);
}
);
userData = {
assembly = "NPUSHB[ ]	/* 46 values pushed */
3 1 0 2 1 76 2 1 2 0 73 0 3 3 1 97 0 1 1 37 77 4 1 2 2 0 97 0 0 0 38 0 78 27 26 36 34 26 43 27 43 41 37 5 8 24 
CALL[ ]	/* CallFunction */";
};
width = 1376;
}
);
note = Q;
unicode = 81;
},
{
glyphname = R;
lastChange = "2022-11-15 14:54:54 +0000";
layers = (
{
layerId = m01;
shapes = (
{
closed = 1;
nodes = (
(750,656,l),
(1042,0,l),
(1285,0,l),
(1285,129,l),
(1184,147,l),
(938,679,l),
(1119,727,o),
(1222,853,o),
(1222,1050,cs),
(1222,1223,o),
(1145,1344,o),
(999,1408,cs),
(926,1439,o),
(836,1455,o),
(730,1455,cs),
(81,1455,l),
(81,1329,l),
(244,1301,l),
(244,154,l),
(81,126,l),
(81,0,l),
(604,0,l),
(604,126,l),
(441,154,l),
(441,650,l)
);
},
{
closed = 1;
nodes = (
(441,1301,l),
(730,1301,ls),
(931,1301,o),
(1025,1205,o),
(1025,1052,cs),
(1025,891,o),
(930,805,o),
(710,805,cs),
(441,805,l)
);
}
);
userData = {
assembly = "NPUSHB[ ]	/* 19 values pushed */
7 1 3 1 32 5 4 1 0 5 0 2 2 76 6 1 3 1 75 
MPPEM[ ]	/* MeasurePixelPerEm */
PUSHB[ ]	/* 1 value pushed */
33 
LT[ ]	/* LessThan */
IF[ ]	/* If */
NPUSHB[ ]	/* 34 values pushed */
0 5 4 2 4 5 114 0 4 0 2 0 4 2 103 7 1 3 3 1 95 0 1 1 31 77 8 6 2 0 0 32 0 78 
ELSE[ ]	/* Else */
NPUSHB[ ]	/* 35 values pushed */
0 5 4 2 4 5 2 128 0 4 0 2 0 4 2 103 7 1 3 3 1 95 0 1 1 31 77 8 6 2 0 0 32 0 78 
EIF[ ]	/* EndIf */
NPUSHB[ ]	/* 22 values pushed */
28 28 20 19 28 33 28 33 30 29 23 21 19 27 20 27 38 37 18 9 8 25 
CALL[ ]	/* CallFunction */";
};
width = 1385;
}
);
note = R;
unicode = 82;
},
{
glyphname = S;
lastChange = "2022-11-15 14:54:54 +0000";
layers = (
{
layerId = m01;
shapes = (
{
closed = 1;
nodes = (
(813,-21,o),
(969,51,o),
(1053,172,cs),
(1095,232,o),
(1116,301,o),
(1116,379,cs),
(1116,598,o),
(956,747,o),
(649,823,cs),
(485,864,o),
(390,909,o),
(347,972,cs),
(325,1003,o),
(314,1040,o),
(314,1082,cs),
(314,1225,o),
(430,1319,o),
(598,1319,cs),
(730,1319,o),
(816,1283,o),
(876,1235,c),
(909,1027,l),
(1062,1027,l),
(1062,1318,l),
(961,1406,o),
(802,1477,o),
(598,1477,cs),
(406,1477,o),
(258,1403,o),
(178,1283,cs),
(137,1223,o),
(117,1155,o),
(117,1079,cs),
(117,935,o),
(190,824,o),
(328,746,cs),
(397,707,o),
(481,675,o),
(581,652,cs),
(823,597,o),
(919,516,o),
(919,377,cs),
(919,281,o),
(868,207,o),
(776,167,cs),
(729,146,o),
(673,136,o),
(606,136,cs),
(489,136,o),
(388,167,o),
(301,220,c),
(268,449,l),
(115,449,l),
(115,138,l),
(264,30,o),
(429,-21,o),
(606,-21,cs)
);
}
);
userData = {
assembly = "NPUSHB[ ]	/* 66 values pushed */
28 1 4 5 3 1 2 1 2 76 0 4 5 1 5 4 1 128 0 1 2 5 1 2 126 0 5 5 3 97 0 3 3 37 77 0 2 2 0 97 6 1 0 0 38 0 78 1 0 35 33 30 29 26 24 10 8 5 4 0 48 1 48 7 8 22 
CALL[ ]	/* CallFunction */";
};
width = 1206;
}
);
note = S;
unicode = 83;
},
{
glyphname = T;
lastChange = "2022-11-15 14:54:54 +0000";
layers = (
{
layerId = m01;
shapes = (
{
closed = 1;
nodes = (
(1306,1456,l),
(96,1456,l),
(96,1105,l),
(244,1105,l),
(273,1307,l),
(603,1307,l),
(603,154,l),
(440,126,l),
(440,0,l),
(963,0,l),
(963,126,l),
(800,154,l),
(800,1307,l),
(1130,1307,l),
(1160,1105,l),
(1306,1105,l)
);
}
);
userData = {
assembly = "NPUSHB[ ]	/* 9 values pushed */
8 7 4 3 4 1 3 1 76 
MPPEM[ ]	/* MeasurePixelPerEm */
PUSHB[ ]	/* 1 value pushed */
12 
LT[ ]	/* LessThan */
IF[ ]	/* If */
NPUSHB[ ]	/* 26 values pushed */
6 5 2 3 0 1 0 3 114 2 1 0 0 4 95 0 4 4 31 77 0 1 1 32 1 78 
ELSE[ ]	/* Else */
NPUSHB[ ]	/* 27 values pushed */
6 5 2 3 0 1 0 3 1 128 2 1 0 0 4 95 0 4 4 31 77 0 1 1 32 1 78 
EIF[ ]	/* EndIf */
NPUSHB[ ]	/* 14 values pushed */
0 0 0 15 0 15 17 17 19 19 17 7 8 27 
CALL[ ]	/* CallFunction */";
};
width = 1406;
}
);
note = T;
unicode = 84;
},
{
glyphname = U;
lastChange = "2022-11-15 14:54:54 +0000";
layers = (
{
layerId = m01;
shapes = (
{
closed = 1;
nodes = (
(1086,-21,o),
(1289,159,o),
(1289,469,cs),
(1289,1301,l),
(1452,1329,l),
(1452,1456,l),
(929,1456,l),
(929,1329,l),
(1092,1301,l),
(1092,469,ls),
(1092,254,o),
(962,137,o),
(758,137,cs),
(557,137,o),
(430,256,o),
(430,469,cs),
(430,1301,l),
(593,1329,l),
(593,1456,l),
(70,1456,l),
(70,1329,l),
(233,1301,l),
(233,469,ls),
(233,265,o),
(330,117,o),
(487,38,cs),
(566,-1,o),
(655,-21,o),
(755,-21,cs)
);
}
);
userData = {
assembly = "NPUSHB[ ]	/* 46 values pushed */
25 24 21 20 10 9 6 5 8 2 1 1 76 3 1 1 1 31 77 0 2 2 0 97 4 1 0 0 38 0 78 1 0 23 22 16 14 8 7 0 29 1 29 5 8 22 
CALL[ ]	/* CallFunction */";
};
width = 1522;
}
);
note = U;
unicode = 85;
},
{
glyphname = V;
lastChange = "2022-11-15 14:54:54 +0000";
layers = (
{
layerId = m01;
shapes = (
{
closed = 1;
nodes = (
(794,382,l),
(758,267,l),
(752,267,l),
(718,382,l),
(392,1308,l),
(525,1329,l),
(525,1456,l),
(65,1456,l),
(65,1329,l),
(181,1313,l),
(669,0,l),
(838,0,l),
(1326,1313,l),
(1443,1329,l),
(1443,1456,l),
(984,1456,l),
(984,1329,l),
(1132,1309,l)
);
}
);
userData = {
assembly = "NPUSHB[ ]	/* 30 values pushed */
17 14 12 11 8 3 0 7 1 0 1 76 2 1 0 0 31 77 0 1 1 32 1 78 19 19 17 3 8 25 
CALL[ ]	/* CallFunction */";
};
width = 1508;
}
);
note = V;
unicode = 86;
},
{
glyphname = W;
lastChange = "2022-11-15 14:54:54 +0000";
layers = (
{
layerId = m01;
shapes = (
{
closed = 1;
nodes = (
(1942,1314,l),
(2057,1329,l),
(2057,1456,l),
(1593,1456,l),
(1593,1329,l),
(1756,1306,l),
(1568,504,l),
(1516,306,l),
(1510,306,l),
(1453,504,l),
(1157,1456,l),
(984,1456,l),
(691,504,l),
(633,317,l),
(627,318,l),
(583,505,l),
(393,1306,l),
(544,1329,l),
(544,1456,l),
(72,1456,l),
(72,1329,l),
(195,1314,l),
(535,0,l),
(711,0,l),
(1028,1008,l),
(1067,1155,l),
(1073,1155,l),
(1113,1008,l),
(1429,0,l),
(1616,0,l)
);
}
);
userData = {
assembly = "NPUSHB[ ]	/* 42 values pushed */
27 24 23 20 14 12 11 8 2 9 0 1 1 76 3 2 2 1 1 31 77 5 4 2 0 0 32 0 78 0 0 0 29 0 29 23 23 19 21 6 8 26 
CALL[ ]	/* CallFunction */";
};
width = 2129;
}
);
note = W;
unicode = 87;
},
{
glyphname = X;
lastChange = "2022-11-15 14:54:54 +0000";
layers = (
{
layerId = m01;
shapes = (
{
closed = 1;
nodes = (
(1449,0,l),
(1449,126,l),
(1320,148,l),
(882,739,l),
(1277,1307,l),
(1410,1329,l),
(1410,1456,l),
(935,1456,l),
(935,1329,l),
(1075,1316,l),
(769,867,l),
(447,1316,l),
(584,1329,l),
(584,1456,l),
(112,1456,l),
(112,1329,l),
(239,1307,l),
(657,739,l),
(206,148,l),
(80,126,l),
(80,0,l),
(556,0,l),
(556,126,l),
(423,139,l),
(767,612,l),
(1112,139,l),
(971,126,l),
(971,0,l)
);
}
);
userData = {
assembly = "NPUSHB[ ]	/* 41 values pushed */
25 23 21 18 17 16 15 14 11 9 7 4 3 2 1 0 16 0 1 1 76 2 1 1 1 31 77 3 1 0 0 32 0 78 22 22 22 21 4 8 26 
CALL[ ]	/* CallFunction */";
};
width = 1529;
}
);
note = X;
unicode = 88;
},
{
glyphname = Y;
lastChange = "2022-11-15 14:54:54 +0000";
layers = (
{
layerId = m01;
shapes = (
{
closed = 1;
nodes = (
(904,1456,l),
(904,1329,l),
(1076,1310,l),
(752,738,l),
(732,701,l),
(731,699,l),
(401,1310,l),
(567,1329,l),
(567,1456,l),
(65,1456,l),
(65,1329,l),
(185,1310,l),
(633,530,l),
(633,154,l),
(470,126,l),
(470,0,l),
(992,0,l),
(992,126,l),
(829,154,l),
(829,545,l),
(1269,1310,l),
(1396,1329,l),
(1396,1456,l)
);
}
);
userData = {
assembly = "NPUSHB[ ]	/* 36 values pushed */
20 19 16 15 14 11 9 8 7 4 3 2 0 13 0 1 1 76 2 1 1 1 31 77 0 0 0 32 0 78 24 22 21 3 8 25 
CALL[ ]	/* CallFunction */";
};
width = 1461;
}
);
note = Y;
unicode = 89;
},
{
glyphname = Z;
lastChange = "2022-11-15 14:54:54 +0000";
layers = (
{
layerId = m01;
shapes = (
{
closed = 1;
nodes = (
(105,1456,l),
(105,1114,l),
(263,1114,l),
(281,1302,l),
(847,1302,l),
(90,149,l),
(90,0,l),
(1107,0,l),
(1107,360,l),
(950,360,l),
(932,153,l),
(313,153,l),
(1074,1311,l),
(1074,1456,l)
);
}
);
userData = {
assembly = "NPUSHB[ ]	/* 10 values pushed */
0 1 3 5 7 1 2 0 2 76 
MPPEM[ ]	/* MeasurePixelPerEm */
PUSHB[ ]	/* 1 value pushed */
12 
LT[ ]	/* LessThan */
IF[ ]	/* If */
NPUSHB[ ]	/* 34 values pushed */
0 4 3 1 3 4 114 0 1 0 0 1 112 0 3 3 5 95 0 5 5 31 77 0 0 0 2 96 0 2 2 32 2 78 
ELSE[ ]	/* Else */
MPPEM[ ]	/* MeasurePixelPerEm */
PUSHB[ ]	/* 1 value pushed */
14 
LT[ ]	/* LessThan */
IF[ ]	/* If */
NPUSHB[ ]	/* 35 values pushed */
0 4 3 1 3 4 114 0 1 0 3 1 0 126 0 3 3 5 95 0 5 5 31 77 0 0 0 2 96 0 2 2 32 2 78 
ELSE[ ]	/* Else */
NPUSHB[ ]	/* 36 values pushed */
0 4 3 1 3 4 1 128 0 1 0 3 1 0 126 0 3 3 5 95 0 5 5 31 77 0 0 0 2 96 0 2 2 32 2 78 
EIF[ ]	/* EndIf */
EIF[ ]	/* EndIf */
NPUSHB[ ]	/* 9 values pushed */
17 17 18 17 17 17 6 8 28 
CALL[ ]	/* CallFunction */";
};
width = 1197;
}
);
note = Z;
unicode = 90;
},
{
glyphname = a;
lastChange = "2022-11-15 14:54:54 +0000";
layers = (
{
layerId = m01;
shapes = (
{
closed = 1;
nodes = (
(553,-21,o),
(673,52,o),
(749,149,c),
(752,102,o),
(758,59,o),
(770,0,c),
(1053,0,l),
(1053,126,l),
(948,137,l),
(945,164,o),
(945,190,o),
(945,218,cs),
(945,739,ls),
(945,972,o),
(787,1102,o),
(524,1102,cs),
(367,1102,o),
(236,1061,o),
(139,982,c),
(139,734,l),
(291,734,l),
(312,885,l),
(367,924,o),
(430,947,o),
(521,947,cs),
(665,947,o),
(748,872,o),
(748,741,cs),
(748,635,l),
(555,635,ls),
(356,635,o),
(211,576,o),
(136,474,cs),
(98,423,o),
(79,363,o),
(79,294,cs),
(79,94,o),
(199,-21,o),
(424,-21,cs)
);
},
{
closed = 1;
nodes = (
(276,397,o),
(367,500,o),
(548,500,cs),
(748,500,l),
(748,304,l),
(701,216,o),
(584,144,o),
(453,144,cs),
(334,144,o),
(276,195,o),
(276,290,cs)
);
}
);
userData = {
assembly = "MPPEM[ ]	/* MeasurePixelPerEm */
PUSHB[ ]	/* 1 value pushed */
23 
LT[ ]	/* LessThan */
IF[ ]	/* If */
NPUSHB[ ]	/* 15 values pushed */
18 1 2 4 40 34 2 6 7 29 1 0 6 3 76 
ELSE[ ]	/* Else */
NPUSHB[ ]	/* 15 values pushed */
18 1 2 4 40 34 2 6 7 29 1 5 6 3 76 
EIF[ ]	/* EndIf */
MPPEM[ ]	/* MeasurePixelPerEm */
PUSHB[ ]	/* 1 value pushed */
23 
LT[ ]	/* LessThan */
IF[ ]	/* If */
NPUSHB[ ]	/* 40 values pushed */
0 3 2 1 2 3 1 128 0 1 0 7 6 1 7 103 0 2 2 4 97 0 4 4 40 77 9 1 6 6 0 97 5 8 2 0 0 38 0 78 
ELSE[ ]	/* Else */
NPUSHB[ ]	/* 44 values pushed */
0 3 2 1 2 3 1 128 0 1 0 7 6 1 7 103 0 2 2 4 97 0 4 4 40 77 0 5 5 32 77 9 1 6 6 0 97 8 1 0 0 38 0 78 
EIF[ ]	/* EndIf */
NPUSHB[ ]	/* 27 values pushed */
38 37 1 0 43 41 37 47 38 47 31 30 22 20 17 16 13 11 8 6 0 36 1 36 10 8 22 
CALL[ ]	/* CallFunction */";
};
width = 1132;
}
);
note = a;
unicode = 97;
},
{
glyphname = b;
lastChange = "2022-11-15 14:54:54 +0000";
layers = (
{
layerId = m01;
shapes = (
{
closed = 1;
nodes = (
(825,-21,o),
(953,71,o),
(1021,227,cs),
(1054,305,o),
(1071,396,o),
(1071,500,cs),
(1071,521,ls),
(1071,753,o),
(1002,933,o),
(876,1030,cs),
(813,1078,o),
(736,1102,o),
(647,1102,cs),
(512,1102,o),
(412,1050,o),
(344,954,c),
(344,1560,l),
(-16,1560,l),
(-16,1433,l),
(147,1405,l),
(147,0,l),
(317,0,l),
(335,139,l),
(404,34,o),
(508,-21,o),
(649,-21,cs)
);
},
{
closed = 1;
nodes = (
(344,780,l),
(393,879,o),
(476,942,o),
(597,942,cs),
(783,942,o),
(873,773,o),
(873,521,cs),
(873,500,ls),
(873,283,o),
(784,139,o),
(599,139,cs),
(478,139,o),
(393,202,o),
(344,302,c)
);
}
);
userData = {
assembly = "NPUSHB[ ]	/* 21 values pushed */
7 6 2 3 2 10 1 5 3 34 33 2 4 5 3 76 3 1 4 1 75 
MPPEM[ ]	/* MeasurePixelPerEm */
PUSHB[ ]	/* 1 value pushed */
23 
LT[ ]	/* LessThan */
IF[ ]	/* If */
NPUSHB[ ]	/* 29 values pushed */
0 2 2 33 77 0 5 5 3 97 0 3 3 40 77 7 1 4 4 0 97 1 6 2 0 0 38 0 78 
ELSE[ ]	/* Else */
NPUSHB[ ]	/* 33 values pushed */
0 2 2 33 77 0 5 5 3 97 0 3 3 40 77 0 1 1 32 77 7 1 4 4 0 97 6 1 0 0 38 0 78 
EIF[ ]	/* EndIf */
NPUSHB[ ]	/* 23 values pushed */
23 22 1 0 31 29 22 36 23 36 14 12 9 8 5 4 0 21 1 21 8 8 22 
CALL[ ]	/* CallFunction */";
};
width = 1145;
}
);
note = b;
unicode = 98;
},
{
glyphname = c;
lastChange = "2022-11-15 14:54:54 +0000";
layers = (
{
layerId = m01;
shapes = (
{
closed = 1;
nodes = (
(743,-21,o),
(866,51,o),
(933,159,cs),
(966,213,o),
(985,271,o),
(988,333,c),
(986,339,l),
(809,339,l),
(789,211,o),
(695,133,o),
(562,133,cs),
(386,133,o),
(275,280,o),
(275,520,cs),
(275,562,ls),
(275,705,o),
(327,826,o),
(416,895,cs),
(460,930,o),
(511,947,o),
(570,947,cs),
(662,947,o),
(730,917,o),
(775,870,c),
(809,681,l),
(963,681,l),
(958,941,l),
(869,1041,o),
(738,1102,o),
(563,1102,cs),
(362,1102,o),
(213,1001,o),
(136,838,cs),
(97,757,o),
(78,665,o),
(78,562,cs),
(78,520,ls),
(78,307,o),
(162,139,o),
(307,48,cs),
(380,2,o),
(465,-21,o),
(563,-21,cs)
);
}
);
userData = {
assembly = "NPUSHB[ ]	/* 62 values pushed */
12 1 2 3 1 76 0 2 3 5 3 2 5 128 0 5 4 3 5 4 126 0 3 3 1 97 0 1 1 40 77 0 4 4 0 97 6 1 0 0 38 0 78 1 0 31 30 28 26 19 17 14 13 10 8 0 35 1 35 7 8 22 
CALL[ ]	/* CallFunction */";
};
width = 1067;
}
);
note = c;
unicode = 99;
},
{
glyphname = d;
lastChange = "2022-11-15 14:54:54 +0000";
layers = (
{
layerId = m01;
shapes = (
{
closed = 1;
nodes = (
(634,-21,o),
(735,30,o),
(806,129,c),
(822,0,l),
(1156,0,l),
(1156,126,l),
(993,154,l),
(993,1560,l),
(633,1560,l),
(633,1433,l),
(796,1405,l),
(796,964,l),
(727,1053,o),
(629,1102,o),
(501,1102,cs),
(237,1102,o),
(78,875,o),
(78,521,cs),
(78,500,ls),
(78,181,o),
(240,-21,o),
(499,-21,cs)
);
},
{
closed = 1;
nodes = (
(275,521,ls),
(275,773,o),
(365,942,o),
(551,942,cs),
(664,942,o),
(745,885,o),
(796,794,c),
(796,292,l),
(744,195,o),
(666,139,o),
(549,139,cs),
(362,139,o),
(275,283,o),
(275,500,cs)
);
}
);
userData = {
assembly = "MPPEM[ ]	/* MeasurePixelPerEm */
PUSHB[ ]	/* 1 value pushed */
23 
LT[ ]	/* LessThan */
IF[ ]	/* If */
NPUSHB[ ]	/* 22 values pushed */
14 13 2 1 2 12 1 5 1 29 28 18 3 4 5 22 19 2 0 4 4 76 
ELSE[ ]	/* Else */
NPUSHB[ ]	/* 22 values pushed */
14 13 2 1 2 12 1 5 1 29 28 18 3 4 5 22 19 2 3 4 4 76 
EIF[ ]	/* EndIf */
MPPEM[ ]	/* MeasurePixelPerEm */
PUSHB[ ]	/* 1 value pushed */
23 
LT[ ]	/* LessThan */
IF[ ]	/* If */
NPUSHB[ ]	/* 29 values pushed */
0 2 2 33 77 0 5 5 1 97 0 1 1 40 77 7 1 4 4 0 97 3 6 2 0 0 38 0 78 
ELSE[ ]	/* Else */
NPUSHB[ ]	/* 33 values pushed */
0 2 2 33 77 0 5 5 1 97 0 1 1 40 77 0 3 3 32 77 7 1 4 4 0 97 6 1 0 0 38 0 78 
EIF[ ]	/* EndIf */
NPUSHB[ ]	/* 23 values pushed */
26 25 1 0 33 31 25 39 26 39 21 20 17 15 10 8 0 24 1 24 8 8 22 
CALL[ ]	/* CallFunction */";
};
width = 1218;
}
);
note = d;
unicode = 100;
},
{
glyphname = e;
lastChange = "2022-11-15 14:54:54 +0000";
layers = (
{
layerId = m01;
shapes = (
{
closed = 1;
nodes = (
(746,-21,o),
(873,37,o),
(950,112,c),
(873,240,l),
(800,173,o),
(700,133,o),
(567,133,cs),
(389,133,o),
(279,275,o),
(275,490,c),
(278,495,l),
(980,495,l),
(980,618,ls),
(980,919,o),
(824,1102,o),
(537,1102,cs),
(370,1102,o),
(222,1002,o),
(138,840,cs),
(95,759,o),
(74,667,o),
(74,564,cs),
(74,520,ls),
(74,307,o),
(158,139,o),
(306,48,cs),
(380,2,o),
(467,-21,o),
(567,-21,cs)
);
},
{
closed = 1;
nodes = (
(305,828,o),
(409,947,o),
(537,947,cs),
(696,947,o),
(783,838,o),
(783,675,cs),
(783,649,l),
(284,649,l),
(282,654,l)
);
}
);
userData = {
assembly = "NPUSHB[ ]	/* 59 values pushed */
23 1 3 2 24 1 0 3 2 76 0 4 0 2 3 4 2 103 0 5 5 1 97 0 1 1 40 77 0 3 3 0 97 6 1 0 0 38 0 78 1 0 35 33 29 27 21 19 15 14 10 8 0 26 1 26 7 8 22 
CALL[ ]	/* CallFunction */";
};
width = 1059;
}
);
note = e;
unicode = 101;
},
{
glyphname = f;
lastChange = "2022-11-15 14:54:54 +0000";
layers = (
{
layerId = m01;
shapes = (
{
closed = 1;
nodes = (
(666,936,l),
(666,1082,l),
(430,1082,l),
(430,1219,ls),
(430,1350,o),
(485,1420,o),
(601,1420,cs),
(637,1420,o),
(683,1415,o),
(707,1410,c),
(731,1560,l),
(675,1573,o),
(621,1581,o),
(576,1581,cs),
(360,1581,o),
(233,1450,o),
(233,1219,cs),
(233,1082,l),
(64,1082,l),
(64,936,l),
(233,936,l),
(233,154,l),
(70,126,l),
(70,0,l),
(616,0,l),
(616,126,l),
(430,154,l),
(430,936,l)
);
}
);
userData = {
assembly = "NPUSHB[ ]	/* 55 values pushed */
16 1 4 3 17 1 2 4 5 4 1 0 4 0 1 3 76 0 4 4 3 97 0 3 3 39 77 6 1 1 1 2 95 5 1 2 2 34 77 0 0 0 32 0 78 17 19 37 35 17 19 18 7 8 29 
CALL[ ]	/* CallFunction */";
};
width = 725;
}
);
note = f;
unicode = 102;
},
{
glyphname = g;
lastChange = "2022-11-15 14:54:54 +0000";
layers = (
{
layerId = m01;
shapes = (
{
closed = 1;
nodes = (
(835,-437,o),
(999,-268,o),
(999,14,cs),
(999,927,l),
(1133,956,l),
(1133,1082,l),
(833,1082,l),
(815,946,l),
(746,1047,o),
(643,1102,o),
(507,1102,cs),
(328,1102,o),
(198,1001,o),
(130,826,cs),
(95,739,o),
(78,637,o),
(78,521,cs),
(78,500,ls),
(78,293,o),
(149,132,o),
(277,45,cs),
(341,1,o),
(417,-21,o),
(505,-21,cs),
(633,-21,o),
(731,26,o),
(802,117,c),
(802,14,ls),
(802,-169,o),
(723,-271,o),
(547,-271,cs),
(452,-271,o),
(344,-243,o),
(271,-204,c),
(220,-357,l),
(312,-406,o),
(445,-437,o),
(549,-437,cs)
);
},
{
closed = 1;
nodes = (
(275,521,ls),
(275,787,o),
(375,942,o),
(556,942,cs),
(671,942,o),
(751,884,o),
(802,792,c),
(802,294,l),
(750,195,o),
(673,139,o),
(554,139,cs),
(366,139,o),
(275,283,o),
(275,500,cs)
);
}
);
userData = {
assembly = "MPPEM[ ]	/* MeasurePixelPerEm */
PUSHB[ ]	/* 1 value pushed */
25 
LT[ ]	/* LessThan */
IF[ ]	/* If */
NPUSHB[ ]	/* 25 values pushed */
49 26 2 6 3 50 37 36 3 5 6 11 1 2 5 4 1 1 2 3 1 0 1 5 76 
ELSE[ ]	/* Else */
NPUSHB[ ]	/* 25 values pushed */
49 26 2 6 4 50 37 36 3 5 6 11 1 2 5 4 1 1 2 3 1 0 1 5 76 
EIF[ ]	/* EndIf */
MPPEM[ ]	/* MeasurePixelPerEm */
PUSHB[ ]	/* 1 value pushed */
25 
LT[ ]	/* LessThan */
IF[ ]	/* If */
NPUSHB[ ]	/* 36 values pushed */
0 6 6 3 95 10 7 4 3 3 3 34 77 9 1 5 5 2 97 0 2 2 38 77 0 1 1 0 97 8 1 0 0 42 0 78 
ELSE[ ]	/* Else */
NPUSHB[ ]	/* 40 values pushed */
10 7 2 4 4 34 77 0 6 6 3 97 0 3 3 40 77 9 1 5 5 2 97 0 2 2 38 77 0 1 1 0 97 8 1 0 0 42 0 78 
EIF[ ]	/* EndIf */
NPUSHB[ ]	/* 31 values pushed */
48 48 34 33 1 0 48 51 48 51 41 39 33 47 34 47 28 27 24 22 15 13 8 6 0 32 1 32 11 8 22 
CALL[ ]	/* CallFunction */";
};
width = 1157;
}
);
note = g;
unicode = 103;
},
{
glyphname = h;
lastChange = "2022-11-15 14:54:54 +0000";
layers = (
{
layerId = m01;
shapes = (
{
closed = 1;
nodes = (
(466,887,o),
(558,942,o),
(666,942,cs),
(818,942,o),
(895,859,o),
(895,680,cs),
(895,154,l),
(732,126,l),
(732,0,l),
(1255,0,l),
(1255,126,l),
(1092,154,l),
(1092,678,ls),
(1092,966,o),
(958,1102,o),
(726,1102,cs),
(594,1102,o),
(484,1042,o),
(409,938,c),
(409,1560,l),
(49,1560,l),
(49,1433,l),
(212,1405,l),
(212,154,l),
(49,126,l),
(49,0,l),
(572,0,l),
(572,126,l),
(409,154,l),
(409,799,l)
);
}
);
userData = {
assembly = "NPUSHB[ ]	/* 50 values pushed */
7 6 2 2 1 29 22 21 18 17 10 5 4 1 0 10 0 4 2 76 0 1 1 33 77 0 4 4 2 97 0 2 2 40 77 3 1 0 0 32 0 78 37 21 35 21 18 5 8 27 
CALL[ ]	/* CallFunction */";
};
width = 1315;
}
);
note = h;
unicode = 104;
},
{
glyphname = i;
lastChange = "2022-11-15 14:54:54 +0000";
layers = (
{
layerId = m01;
shapes = (
{
closed = 1;
nodes = (
(220,1349,l),
(427,1349,l),
(427,1560,l),
(220,1560,l)
);
},
{
closed = 1;
nodes = (
(590,0,l),
(590,126,l),
(427,154,l),
(427,1082,l),
(67,1082,l),
(67,955,l),
(230,927,l),
(230,154,l),
(67,126,l),
(67,0,l)
);
}
);
userData = {
assembly = "NPUSHB[ ]	/* 47 values pushed */
13 12 11 8 7 4 6 3 2 1 76 0 0 0 1 95 4 1 1 1 33 77 0 2 2 34 77 0 3 3 32 3 78 0 0 10 9 6 5 0 3 0 3 17 5 8 23 
CALL[ ]	/* CallFunction */";
};
width = 652;
}
);
note = i;
unicode = 105;
},
{
glyphname = j;
lastChange = "2022-11-15 14:54:54 +0000";
layers = (
{
layerId = m01;
shapes = (
{
closed = 1;
nodes = (
(260,-437,o),
(381,-312,o),
(381,-89,cs),
(381,1082,l),
(21,1082,l),
(21,955,l),
(184,927,l),
(184,-89,ls),
(184,-209,o),
(135,-282,o),
(56,-282,cs),
(32,-282,o),
(-24,-276,o),
(-43,-269,c),
(-56,-419,l),
(-19,-431,o),
(13,-437,o),
(56,-437,cs)
);
},
{
closed = 1;
nodes = (
(381,1349,l),
(381,1560,l),
(174,1560,l),
(174,1349,l)
);
}
);
userData = {
assembly = "NPUSHB[ ]	/* 61 values pushed */
12 11 4 3 1 2 3 1 0 1 2 76 0 3 3 4 95 6 1 4 4 33 77 0 2 2 34 77 0 1 1 0 98 5 1 0 0 42 0 78 18 18 1 0 18 21 18 21 20 19 14 13 8 6 0 17 1 17 7 8 22 
CALL[ ]	/* CallFunction */";
};
width = 525;
}
);
note = j;
unicode = 106;
},
{
glyphname = k;
lastChange = "2022-11-15 14:54:54 +0000";
layers = (
{
layerId = m01;
shapes = (
{
closed = 1;
nodes = (
(812,942,l),
(807,936,l),
(424,555,l),
(424,1560,l),
(64,1560,l),
(64,1433,l),
(227,1405,l),
(227,154,l),
(64,126,l),
(64,0,l),
(587,0,l),
(587,126,l),
(424,154,l),
(424,327,l),
(592,496,l),
(866,143,l),
(869,139,l),
(759,126,l),
(759,0,l),
(1248,0,l),
(1248,126,l),
(1092,150,l),
(719,623,l),
(1023,929,l),
(1162,955,l),
(1162,1082,l),
(696,1082,l),
(696,955,l)
);
}
);
userData = {
assembly = "NPUSHB[ ]	/* 48 values pushed */
21 20 2 0 3 27 25 24 19 18 15 14 13 12 10 9 6 4 2 14 1 0 2 76 0 3 3 33 77 0 0 0 34 77 2 1 1 1 32 1 78 21 24 22 16 4 8 26 
CALL[ ]	/* CallFunction */";
};
width = 1287;
}
);
note = k;
unicode = 107;
},
{
glyphname = l;
lastChange = "2022-11-15 14:54:54 +0000";
layers = (
{
layerId = m01;
shapes = (
{
closed = 1;
nodes = (
(227,154,l),
(64,126,l),
(64,0,l),
(587,0,l),
(587,126,l),
(424,154,l),
(424,1560,l),
(64,1560,l),
(64,1433,l),
(227,1405,l)
);
}
);
userData = {
assembly = "NPUSHB[ ]	/* 27 values pushed */
9 8 7 4 3 0 6 1 0 1 76 0 0 0 33 77 0 1 1 32 1 78 19 17 2 8 24 
CALL[ ]	/* CallFunction */";
};
width = 653;
}
);
note = l;
unicode = 108;
},
{
glyphname = m;
lastChange = "2022-11-15 14:54:54 +0000";
layers = (
{
layerId = m01;
shapes = (
{
closed = 1;
nodes = (
(475,890,o),
(551,942,o),
(671,942,cs),
(814,942,o),
(891,852,o),
(891,649,cs),
(891,154,l),
(728,126,l),
(728,0,l),
(1251,0,l),
(1251,126,l),
(1088,154,l),
(1088,687,l),
(1101,834,o),
(1189,942,o),
(1326,942,cs),
(1470,942,o),
(1544,862,o),
(1544,649,cs),
(1544,154,l),
(1381,126,l),
(1381,0,l),
(1905,0,l),
(1905,126,l),
(1742,154,l),
(1742,647,ls),
(1742,951,o),
(1605,1102,o),
(1384,1102,cs),
(1235,1102,o),
(1121,1025,o),
(1053,902,c),
(1001,1035,o),
(895,1102,o),
(751,1102,cs),
(607,1102,o),
(496,1044,o),
(427,941,c),
(414,1082,l),
(74,1082,l),
(74,955,l),
(237,927,l),
(237,154,l),
(74,126,l),
(74,0,l),
(597,0,l),
(597,126,l),
(434,154,l),
(434,801,l)
);
}
);
userData = {
assembly = "NPUSHB[ ]	/* 26 values pushed */
7 1 5 1 48 41 40 37 36 35 28 27 24 23 16 10 6 5 4 1 0 17 0 5 2 76 
MPPEM[ ]	/* MeasurePixelPerEm */
PUSHB[ ]	/* 1 value pushed */
25 
LT[ ]	/* LessThan */
IF[ ]	/* If */
NPUSHB[ ]	/* 21 values pushed */
7 1 5 5 1 97 3 2 2 1 1 34 77 6 4 2 0 0 32 0 78 
ELSE[ ]	/* Else */
NPUSHB[ ]	/* 25 values pushed */
0 1 1 34 77 7 1 5 5 2 97 3 1 2 2 40 77 6 4 2 0 0 32 0 78 
EIF[ ]	/* EndIf */
NPUSHB[ ]	/* 11 values pushed */
37 21 37 21 36 35 21 18 8 8 30 
CALL[ ]	/* CallFunction */";
};
width = 1977;
}
);
note = m;
unicode = 109;
},
{
glyphname = n;
lastChange = "2022-11-15 14:54:54 +0000";
layers = (
{
layerId = m01;
shapes = (
{
closed = 1;
nodes = (
(486,884,o),
(576,942,o),
(689,942,cs),
(844,942,o),
(918,870,o),
(918,679,cs),
(918,154,l),
(755,126,l),
(755,0,l),
(1278,0,l),
(1278,126,l),
(1115,154,l),
(1115,683,ls),
(1115,968,o),
(981,1102,o),
(748,1102,cs),
(609,1102,o),
(499,1036,o),
(427,921,c),
(413,1082,l),
(74,1082,l),
(74,955,l),
(237,927,l),
(237,154,l),
(74,126,l),
(74,0,l),
(597,0,l),
(597,126,l),
(434,154,l),
(434,789,l)
);
}
);
userData = {
assembly = "NPUSHB[ ]	/* 20 values pushed */
7 1 4 1 29 22 21 18 17 10 6 5 4 1 0 11 0 4 2 76 
MPPEM[ ]	/* MeasurePixelPerEm */
PUSHB[ ]	/* 1 value pushed */
25 
LT[ ]	/* LessThan */
IF[ ]	/* If */
NPUSHB[ ]	/* 18 values pushed */
0 4 4 1 97 2 1 1 1 34 77 3 1 0 0 32 0 78 
ELSE[ ]	/* Else */
NPUSHB[ ]	/* 22 values pushed */
0 1 1 34 77 0 4 4 2 97 0 2 2 40 77 3 1 0 0 32 0 78 
EIF[ ]	/* EndIf */
PUSHB[ ]	/* 8 values pushed */
37 21 35 21 18 5 8 27 
CALL[ ]	/* CallFunction */";
};
width = 1343;
}
);
note = n;
unicode = 110;
},
{
glyphname = o;
lastChange = "2022-11-15 14:54:54 +0000";
layers = (
{
layerId = m01;
shapes = (
{
closed = 1;
nodes = (
(762,-21,o),
(908,78,o),
(987,244,cs),
(1026,327,o),
(1046,422,o),
(1046,529,cs),
(1046,551,ls),
(1046,766,o),
(964,936,o),
(820,1031,cs),
(747,1078,o),
(661,1102,o),
(561,1102,cs),
(364,1102,o),
(216,1002,o),
(137,836,cs),
(98,753,o),
(78,658,o),
(78,551,cs),
(78,529,ls),
(78,316,o),
(160,144,o),
(305,50,cs),
(377,3,o),
(463,-21,o),
(563,-21,cs)
);
},
{
closed = 1;
nodes = (
(275,551,ls),
(275,784,o),
(375,947,o),
(561,947,cs),
(743,947,o),
(849,800,o),
(849,551,cs),
(849,529,ls),
(849,280,o),
(743,133,o),
(563,133,cs),
(375,133,o),
(275,296,o),
(275,529,cs)
);
}
);
userData = {
assembly = "NPUSHB[ ]	/* 42 values pushed */
0 3 3 1 97 0 1 1 40 77 5 1 2 2 0 97 4 1 0 0 38 0 78 19 18 1 0 28 26 18 35 19 35 10 8 0 17 1 17 6 8 22 
CALL[ ]	/* CallFunction */";
};
width = 1124;
}
);
note = o;
unicode = 111;
},
{
glyphname = p;
lastChange = "2022-11-15 14:54:54 +0000";
layers = (
{
layerId = m01;
shapes = (
{
closed = 1;
nodes = (
(465,24,o),
(565,-21,o),
(698,-21,cs),
(874,-21,o),
(1001,71,o),
(1069,227,cs),
(1102,305,o),
(1119,396,o),
(1119,500,cs),
(1119,521,ls),
(1119,877,o),
(959,1102,o),
(695,1102,cs),
(559,1102,o),
(456,1049,o),
(384,950,c),
(366,1082,l),
(34,1082,l),
(34,955,l),
(197,927,l),
(197,-261,l),
(44,-289,l),
(44,-416,l),
(566,-416,l),
(566,-289,l),
(394,-261,l),
(394,112,l)
);
},
{
closed = 1;
nodes = (
(394,800,l),
(443,888,o),
(523,942,o),
(635,942,cs),
(818,942,o),
(921,787,o),
(921,521,cs),
(921,500,ls),
(921,283,o),
(824,133,o),
(637,133,cs),
(521,133,o),
(443,184,o),
(394,273,c)
);
}
);
userData = {
assembly = "NPUSHB[ ]	/* 24 values pushed */
10 7 2 5 1 38 37 6 3 4 5 25 1 3 4 5 4 1 0 4 0 3 4 76 
MPPEM[ ]	/* MeasurePixelPerEm */
PUSHB[ ]	/* 1 value pushed */
25 
LT[ ]	/* LessThan */
IF[ ]	/* If */
NPUSHB[ ]	/* 28 values pushed */
0 5 5 1 97 2 1 1 1 34 77 6 1 4 4 3 97 0 3 3 38 77 0 0 0 36 0 78 
ELSE[ ]	/* Else */
NPUSHB[ ]	/* 32 values pushed */
0 1 1 34 77 0 5 5 2 97 0 2 2 40 77 6 1 4 4 3 97 0 3 3 38 77 0 0 0 36 0 78 
EIF[ ]	/* EndIf */
NPUSHB[ ]	/* 15 values pushed */
27 26 35 33 26 40 27 40 39 35 21 18 7 8 26 
CALL[ ]	/* CallFunction */";
};
width = 1197;
}
);
note = p;
unicode = 112;
},
{
glyphname = q;
lastChange = "2022-11-15 14:54:54 +0000";
layers = (
{
layerId = m01;
shapes = (
{
closed = 1;
nodes = (
(812,1082,l),
(796,963,l),
(727,1054,o),
(628,1102,o),
(501,1102,cs),
(237,1102,o),
(78,875,o),
(78,521,cs),
(78,500,ls),
(78,181,o),
(240,-21,o),
(499,-21,cs),
(620,-21,o),
(716,21,o),
(785,102,c),
(785,-261,l),
(622,-289,l),
(622,-416,l),
(1135,-416,l),
(1135,-289,l),
(982,-261,l),
(982,1082,l)
);
},
{
closed = 1;
nodes = (
(275,521,ls),
(275,774,o),
(365,947,o),
(551,947,cs),
(656,947,o),
(733,895,o),
(785,814,c),
(785,271,l),
(733,183,o),
(658,133,o),
(549,133,cs),
(362,133,o),
(275,281,o),
(275,500,cs)
);
}
);
userData = {
assembly = "MPPEM[ ]	/* MeasurePixelPerEm */
PUSHB[ ]	/* 1 value pushed */
25 
LT[ ]	/* LessThan */
IF[ ]	/* If */
NPUSHB[ ]	/* 22 values pushed */
21 1 5 2 28 27 2 4 5 6 1 1 4 5 4 1 0 4 0 1 4 76 
ELSE[ ]	/* Else */
NPUSHB[ ]	/* 22 values pushed */
21 1 5 3 28 27 2 4 5 6 1 1 4 5 4 1 0 4 0 1 4 76 
EIF[ ]	/* EndIf */
MPPEM[ ]	/* MeasurePixelPerEm */
PUSHB[ ]	/* 1 value pushed */
25 
LT[ ]	/* LessThan */
IF[ ]	/* If */
NPUSHB[ ]	/* 28 values pushed */
0 5 5 2 97 3 1 2 2 40 77 6 1 4 4 1 97 0 1 1 38 77 0 0 0 36 0 78 
ELSE[ ]	/* Else */
NPUSHB[ ]	/* 32 values pushed */
0 3 3 34 77 0 5 5 2 97 0 2 2 40 77 6 1 4 4 1 97 0 1 1 38 77 0 0 0 36 0 78 
EIF[ ]	/* EndIf */
NPUSHB[ ]	/* 15 values pushed */
25 24 32 30 24 38 25 38 19 39 37 18 7 8 26 
CALL[ ]	/* CallFunction */";
};
width = 1139;
}
);
note = q;
unicode = 113;
},
{
glyphname = r;
lastChange = "2022-11-15 14:54:54 +0000";
layers = (
{
layerId = m01;
shapes = (
{
closed = 1;
nodes = (
(471,858,o),
(541,918,o),
(645,911,cs),
(782,903,l),
(808,1086,l),
(789,1093,o),
(739,1102,o),
(698,1102,cs),
(582,1102,o),
(491,1036,o),
(430,925,c),
(428,944,l),
(411,1082,l),
(72,1082,l),
(72,955,l),
(235,927,l),
(235,154,l),
(72,126,l),
(72,0,l),
(595,0,l),
(595,126,l),
(432,154,l),
(432,767,l)
);
}
);
userData = {
assembly = "NPUSHB[ ]	/* 16 values pushed */
11 7 6 3 3 1 22 5 4 1 0 5 0 3 2 76 
MPPEM[ ]	/* MeasurePixelPerEm */
PUSHB[ ]	/* 1 value pushed */
25 
LT[ ]	/* LessThan */
IF[ ]	/* If */
NPUSHB[ ]	/* 17 values pushed */
0 3 3 1 97 2 1 1 1 34 77 0 0 0 32 0 78 
ELSE[ ]	/* Else */
NPUSHB[ ]	/* 21 values pushed */
0 1 1 34 77 0 3 3 2 97 0 2 2 40 77 0 0 0 32 0 78 
EIF[ ]	/* EndIf */
PUSHB[ ]	/* 7 values pushed */
35 36 21 18 4 8 26 
CALL[ ]	/* CallFunction */";
};
width = 854;
}
);
note = r;
unicode = 114;
},
{
glyphname = s;
lastChange = "2022-11-15 14:54:54 +0000";
layers = (
{
layerId = m01;
shapes = (
{
closed = 1;
nodes = (
(803,-21,o),
(933,118,o),
(933,301,cs),
(933,461,o),
(829,567,o),
(528,638,cs),
(364,678,o),
(310,713,o),
(310,799,cs),
(310,886,o),
(394,950,o),
(517,950,cs),
(600,950,o),
(663,931,o),
(710,896,c),
(742,752,l),
(890,752,l),
(880,999,l),
(793,1062,o),
(681,1102,o),
(517,1102,cs),
(279,1102,o),
(112,970,o),
(112,793,cs),
(112,625,o),
(232,531,o),
(493,471,cs),
(677,430,o),
(736,372,o),
(736,287,cs),
(736,196,o),
(672,127,o),
(512,127,cs),
(431,127,o),
(365,140,o),
(290,171,c),
(253,326,l),
(104,326,l),
(106,69,l),
(249,8,o),
(367,-21,o),
(512,-21,cs)
);
}
);
userData = {
assembly = "NPUSHB[ ]	/* 66 values pushed */
25 1 5 3 3 1 0 2 2 76 0 4 5 1 5 4 1 128 0 1 2 5 1 2 126 0 5 5 3 97 0 3 3 40 77 0 2 2 0 97 6 1 0 0 38 0 78 1 0 32 30 27 26 23 21 10 8 5 4 0 43 1 43 7 8 22 
CALL[ ]	/* CallFunction */";
};
width = 1022;
}
);
note = s;
unicode = 115;
},
{
glyphname = t;
lastChange = "2022-11-15 14:54:54 +0000";
layers = (
{
layerId = m01;
shapes = (
{
closed = 1;
nodes = (
(528,-17,o),
(621,-1,o),
(678,16,c),
(651,145,l),
(619,138,o),
(553,127,o),
(506,127,cs),
(437,127,o),
(392,175,o),
(392,279,cs),
(392,936,l),
(627,936,l),
(627,1082,l),
(392,1082,l),
(392,1343,l),
(195,1343,l),
(195,1082,l),
(24,1082,l),
(24,936,l),
(195,936,l),
(195,279,ls),
(195,72,o),
(296,-17,o),
(456,-17,cs)
);
}
);
userData = {
assembly = "NPUSHB[ ]	/* 60 values pushed */
20 1 6 1 21 1 0 6 2 76 0 3 2 3 133 5 1 1 1 2 95 4 1 2 2 34 77 0 6 6 0 98 7 1 0 0 38 0 78 1 0 18 16 13 12 11 10 9 8 7 6 5 4 0 23 1 23 8 8 22 
CALL[ ]	/* CallFunction */";
};
width = 730;
}
);
note = t;
unicode = 116;
},
{
glyphname = u;
lastChange = "2022-11-15 14:54:54 +0000";
layers = (
{
layerId = m01;
shapes = (
{
closed = 1;
nodes = (
(690,-21,o),
(799,44,o),
(867,160,c),
(880,0,l),
(1181,0,l),
(1181,126,l),
(1057,154,l),
(1057,1082,l),
(715,1082,l),
(715,955,l),
(860,927,l),
(860,302,l),
(813,198,o),
(723,139,o),
(583,139,cs),
(439,139,o),
(373,211,o),
(373,442,cs),
(373,1082,l),
(52,1082,l),
(52,955,l),
(176,927,l),
(176,444,ls),
(176,125,o),
(315,-21,o),
(550,-21,cs)
);
}
);
userData = {
assembly = "MPPEM[ ]	/* MeasurePixelPerEm */
PUSHB[ ]	/* 1 value pushed */
23 
LT[ ]	/* LessThan */
IF[ ]	/* If */
NPUSHB[ ]	/* 16 values pushed */
25 21 17 16 15 5 4 7 2 1 22 1 0 2 2 76 
ELSE[ ]	/* Else */
NPUSHB[ ]	/* 16 values pushed */
25 21 17 16 15 5 4 7 2 1 22 1 4 2 2 76 
EIF[ ]	/* EndIf */
MPPEM[ ]	/* MeasurePixelPerEm */
PUSHB[ ]	/* 1 value pushed */
23 
LT[ ]	/* LessThan */
IF[ ]	/* If */
NPUSHB[ ]	/* 19 values pushed */
3 1 1 1 34 77 0 2 2 0 97 4 5 2 0 0 38 0 78 
ELSE[ ]	/* Else */
NPUSHB[ ]	/* 23 values pushed */
3 1 1 1 34 77 0 4 4 32 77 0 2 2 0 97 5 1 0 0 38 0 78 
EIF[ ]	/* EndIf */
NPUSHB[ ]	/* 17 values pushed */
1 0 24 23 20 18 13 11 8 6 0 27 1 27 6 8 22 
CALL[ ]	/* CallFunction */";
};
width = 1245;
}
);
note = u;
unicode = 117;
},
{
glyphname = v;
lastChange = "2022-11-15 14:54:54 +0000";
layers = (
{
layerId = m01;
shapes = (
{
closed = 1;
nodes = (
(645,319,l),
(613,232,l),
(607,232,l),
(579,319,l),
(339,935,l),
(480,955,l),
(480,1082,l),
(26,1082,l),
(26,955,l),
(138,940,l),
(523,0,l),
(696,0,l),
(1062,940,l),
(1176,955,l),
(1176,1082,l),
(723,1082,l),
(723,955,l),
(868,935,l)
);
}
);
userData = {
assembly = "NPUSHB[ ]	/* 30 values pushed */
17 14 12 11 8 3 0 7 1 0 1 76 2 1 0 0 34 77 0 1 1 32 1 78 19 19 17 3 8 25 
CALL[ ]	/* CallFunction */";
};
width = 1206;
}
);
note = v;
unicode = 118;
},
{
glyphname = w;
lastChange = "2022-11-15 14:54:54 +0000";
layers = (
{
layerId = m01;
shapes = (
{
closed = 1;
nodes = (
(1657,938,l),
(1777,955,l),
(1777,1082,l),
(1340,1082,l),
(1340,955,l),
(1476,934,l),
(1325,396,l),
(1278,244,l),
(1272,244,l),
(1224,396,l),
(1000,1082,l),
(834,1082,l),
(599,394,l),
(555,266,l),
(549,266,l),
(515,394,l),
(366,933,l),
(499,955,l),
(499,1082,l),
(52,1082,l),
(52,955,l),
(173,941,l),
(458,0,l),
(627,0,l),
(862,650,l),
(913,823,l),
(919,824,l),
(971,650,l),
(1190,0,l),
(1377,0,l)
);
}
);
userData = {
assembly = "NPUSHB[ ]	/* 42 values pushed */
27 24 23 20 14 12 11 8 2 9 0 1 1 76 3 2 2 1 1 34 77 5 4 2 0 0 32 0 78 0 0 0 29 0 29 23 23 19 21 6 8 26 
CALL[ ]	/* CallFunction */";
};
width = 1823;
}
);
note = w;
unicode = 119;
},
{
glyphname = x;
lastChange = "2022-11-15 14:54:54 +0000";
layers = (
{
layerId = m01;
shapes = (
{
closed = 1;
nodes = (
(1163,0,l),
(1163,126,l),
(1051,149,l),
(714,550,l),
(1007,932,l),
(1117,955,l),
(1117,1082,l),
(700,1082,l),
(700,955,l),
(816,944,l),
(600,667,l),
(378,943,l),
(486,955,l),
(486,1082,l),
(62,1082,l),
(62,955,l),
(169,932,l),
(485,547,l),
(162,149,l),
(42,126,l),
(42,0,l),
(484,0,l),
(484,126,l),
(367,137,l),
(597,426,l),
(834,137,l),
(704,126,l),
(704,0,l)
);
}
);
userData = {
assembly = "NPUSHB[ ]	/* 41 values pushed */
25 23 21 18 17 16 15 14 11 9 7 4 3 2 1 0 16 0 1 1 76 2 1 1 1 34 77 3 1 0 0 32 0 78 22 22 22 21 4 8 26 
CALL[ ]	/* CallFunction */";
};
width = 1203;
}
);
note = x;
unicode = 120;
},
{
glyphname = y;
lastChange = "2022-11-15 14:54:54 +0000";
layers = (
{
layerId = m01;
shapes = (
{
closed = 1;
nodes = (
(425,-437,o),
(505,-387,o),
(562,-305,cs),
(590,-264,o),
(614,-218,o),
(634,-166,cs),
(1060,939,l),
(1172,955,l),
(1172,1082,l),
(727,1082,l),
(727,955,l),
(865,935,l),
(615,253,l),
(609,253,l),
(558,394,l),
(347,935,l),
(478,955,l),
(478,1082,l),
(24,1082,l),
(24,955,l),
(140,939,l),
(523,22,l),
(476,-92,ls),
(431,-203,o),
(384,-271,o),
(300,-271,cs),
(285,-271,o),
(235,-269,o),
(212,-266,c),
(192,-421,l),
(219,-428,o),
(278,-437,o),
(309,-437,cs)
);
}
);
userData = {
assembly = "NPUSHB[ ]	/* 50 values pushed */
25 22 21 19 17 16 13 11 8 1 2 3 1 0 1 2 76 3 1 2 2 34 77 0 1 1 0 98 4 1 0 0 42 0 78 1 0 24 23 15 14 8 4 0 30 1 30 5 8 22 
CALL[ ]	/* CallFunction */";
};
width = 1192;
}
);
note = y;
unicode = 121;
},
{
glyphname = z;
lastChange = "2022-11-15 14:54:54 +0000";
layers = (
{
layerId = m01;
shapes = (
{
closed = 1;
nodes = (
(101,1082,l),
(101,748,l),
(249,748,l),
(274,930,l),
(677,930,l),
(88,138,l),
(88,0,l),
(960,0,l),
(960,333,l),
(813,333,l),
(787,150,l),
(326,150,l),
(921,948,l),
(921,1082,l)
);
}
);
userData = {
assembly = "NPUSHB[ ]	/* 10 values pushed */
0 1 3 5 7 1 2 0 2 76 
MPPEM[ ]	/* MeasurePixelPerEm */
PUSHB[ ]	/* 1 value pushed */
14 
LT[ ]	/* LessThan */
IF[ ]	/* If */
NPUSHB[ ]	/* 34 values pushed */
0 4 3 1 3 4 114 0 1 0 0 1 112 0 3 3 5 95 0 5 5 34 77 0 0 0 2 96 0 2 2 32 2 78 
ELSE[ ]	/* Else */
NPUSHB[ ]	/* 36 values pushed */
0 4 3 1 3 4 1 128 0 1 0 3 1 0 126 0 3 3 5 95 0 5 5 34 77 0 0 0 2 96 0 2 2 32 2 78 
EIF[ ]	/* EndIf */
NPUSHB[ ]	/* 9 values pushed */
17 17 18 17 17 17 6 8 28 
CALL[ ]	/* CallFunction */";
};
width = 1032;
}
);
note = z;
unicode = 122;
},
{
glyphname = uni1780;
lastChange = "2022-11-15 14:54:54 +0000";
layers = (
{
layerId = m01;
shapes = (
{
closed = 1;
nodes = (
(1163,776,o),
(1132,834,o),
(1070,873,cs),
(1008,912,o),
(915,931,o),
(791,931,cs),
(651,931,ls),
(527,931,o),
(434,912,o),
(372,873,cs),
(310,834,o),
(279,776,o),
(279,698,cs),
(279,0,l),
(442,0,l),
(442,698,ls),
(442,745,o),
(459,779,o),
(494,802,cs),
(529,826,o),
(582,838,o),
(651,838,cs),
(791,838,ls),
(860,838,o),
(913,826,o),
(948,802,cs),
(983,779,o),
(1001,745,o),
(1001,698,cs),
(1001,0,l),
(1163,0,l),
(1163,698,ls)
);
},
{
closed = 1;
nodes = (
(299,996,ls),
(320,980,o),
(340,972,o),
(361,972,cs),
(363,972,ls),
(384,972,o),
(411,990,o),
(443,1025,c),
(331,1105,l),
(456,1170,l),
(686,1024,l),
(716,1024,l),
(863,1154,l),
(1010,1062,ls),
(1052,1037,o),
(1095,1024,o),
(1138,1024,cs),
(1181,1024,o),
(1221,1071,o),
(1256,1165,c),
(1203,1165,ls),
(1172,1165,o),
(1142,1173,o),
(1115,1190,cs),
(930,1303,l),
(893,1303,l),
(749,1178,l),
(550,1303,l),
(513,1303,l),
(186,1137,l),
(186,1085,l)
);
}
);
userData = {
assembly = "NPUSHB[ ]	/* 67 values pushed */
40 28 2 8 6 37 36 30 29 25 5 4 8 2 76 0 5 4 3 4 5 3 128 0 8 9 1 4 5 8 4 105 0 3 0 1 0 3 1 105 7 1 6 6 17 77 2 1 0 0 19 0 78 49 47 34 18 20 52 22 52 20 52 16 10 7 31 
CALL[ ]	/* CallFunction */";
};
width = 1442;
}
);
note = uni1780;
unicode = 6016;
},
{
glyphname = uni1781;
lastChange = "2022-11-15 14:54:54 +0000";
layers = (
{
layerId = m01;
shapes = (
{
closed = 1;
nodes = (
(457,908,o),
(469,906,o),
(476,902,cs),
(484,898,o),
(488,892,o),
(488,884,cs),
(488,869,o),
(484,858,o),
(476,850,cs),
(469,843,o),
(457,839,o),
(442,839,c),
(442,908,l)
);
},
{
closed = 1;
nodes = (
(279,155,o),
(310,97,o),
(372,58,cs),
(434,19,o),
(527,0,o),
(651,0,cs),
(791,0,ls),
(915,0,o),
(1008,33,o),
(1070,98,cs),
(1132,163,o),
(1163,254,o),
(1163,372,cs),
(1163,565,l),
(1000,478,l),
(1000,372,ls),
(1000,288,o),
(983,220,o),
(948,169,cs),
(913,118,o),
(860,93,o),
(791,93,cs),
(651,93,ls),
(582,93,o),
(529,105,o),
(494,128,cs),
(459,151,o),
(442,186,o),
(442,233,cs),
(442,423,l),
(1000,715,ls),
(1054,744,o),
(1095,775,o),
(1122,809,cs),
(1149,844,o),
(1163,884,o),
(1163,931,cs),
(1163,1071,ls),
(1163,1148,o),
(1132,1207,o),
(1070,1246,cs),
(1008,1284,o),
(915,1303,o),
(791,1303,cs),
(651,1303,ls),
(527,1303,o),
(434,1284,o),
(372,1246,cs),
(310,1207,o),
(279,1148,o),
(279,1071,cs),
(279,838,ls),
(279,807,o),
(293,783,o),
(320,768,cs),
(347,753,o),
(388,745,o),
(442,745,cs),
(489,745,o),
(524,757,o),
(547,780,cs),
(570,803,o),
(582,838,o),
(582,884,cs),
(582,923,o),
(570,952,o),
(547,972,cs),
(524,991,o),
(489,1001,o),
(442,1001,c),
(442,1071,ls),
(442,1117,o),
(459,1152,o),
(494,1175,cs),
(529,1198,o),
(582,1210,o),
(651,1210,cs),
(791,1210,ls),
(860,1210,o),
(913,1198,o),
(948,1175,cs),
(983,1152,o),
(1000,1117,o),
(1000,1071,cs),
(1000,931,ls),
(1000,892,o),
(986,856,o),
(959,825,cs),
(932,793,o),
(892,763,o),
(838,734,cs),
(279,442,l),
(279,233,ls)
);
}
);
userData = {
assembly = "NPUSHB[ ]	/* 14 values pushed */
5 0 2 0 2 71 60 59 48 4 5 3 2 76 
MPPEM[ ]	/* MeasurePixelPerEm */
PUSHB[ ]	/* 1 value pushed */
17 
LT[ ]	/* LessThan */
IF[ ]	/* If */
NPUSHB[ ]	/* 36 values pushed */
0 2 1 0 0 2 114 0 0 0 3 5 0 3 106 0 1 1 4 97 0 4 4 17 77 0 5 5 6 97 0 6 6 19 6 78 
ELSE[ ]	/* Else */
NPUSHB[ ]	/* 37 values pushed */
0 2 1 0 1 2 0 128 0 0 0 3 5 0 3 106 0 1 1 4 97 0 4 4 17 77 0 5 5 6 97 0 6 6 19 6 78 
EIF[ ]	/* EndIf */
NPUSHB[ ]	/* 10 values pushed */
57 61 55 38 20 59 17 7 7 29 
CALL[ ]	/* CallFunction */";
};
width = 1442;
}
);
note = uni1781;
unicode = 6017;
},
{
glyphname = uni1782;
lastChange = "2022-11-15 14:54:54 +0000";
layers = (
{
layerId = m01;
shapes = (
{
closed = 1;
nodes = (
(1051,1037,o),
(1094,1025,o),
(1138,1025,cs),
(1181,1025,o),
(1221,1072,o),
(1256,1165,c),
(1203,1165,ls),
(1172,1165,o),
(1142,1173,o),
(1115,1190,cs),
(930,1303,l),
(893,1303,l),
(749,1178,l),
(550,1303,l),
(513,1303,l),
(186,1137,l),
(186,1085,l),
(299,996,ls),
(320,980,o),
(340,972,o),
(361,972,cs),
(363,972,ls),
(384,972,o),
(411,990,o),
(443,1025,c),
(331,1105,l),
(456,1170,l),
(686,1025,l),
(716,1025,l),
(863,1154,l),
(1010,1062,ls)
);
},
{
closed = 1;
nodes = (
(442,0,l),
(442,48,l),
(547,192,ls),
(570,224,o),
(593,247,o),
(616,262,cs),
(639,275,o),
(668,282,o),
(705,282,cs),
(709,282,ls),
(748,282,o),
(776,297,o),
(791,326,cs),
(798,338,o),
(801,349,o),
(801,359,cs),
(801,375,o),
(794,389,o),
(780,402,cs),
(757,424,o),
(729,435,o),
(698,436,cs),
(667,436,o),
(636,428,o),
(605,413,cs),
(574,398,o),
(539,366,o),
(501,316,cs),
(442,239,l),
(442,698,ls),
(442,745,o),
(459,779,o),
(494,802,cs),
(529,826,o),
(582,838,o),
(651,838,cs),
(791,838,ls),
(860,838,o),
(913,826,o),
(948,802,cs),
(983,779,o),
(1001,745,o),
(1001,698,cs),
(1001,0,l),
(1163,0,l),
(1163,698,ls),
(1163,776,o),
(1132,834,o),
(1070,873,cs),
(1008,912,o),
(915,931,o),
(791,931,cs),
(651,931,ls),
(527,931,o),
(434,912,o),
(372,873,cs),
(310,834,o),
(279,776,o),
(279,698,cs),
(279,0,l)
);
}
);
userData = {
assembly = "NPUSHB[ ]	/* 92 values pushed */
16 4 2 4 2 13 12 5 1 4 0 4 36 1 7 6 46 27 2 8 7 4 76 6 1 0 1 75 0 1 0 9 0 1 9 128 0 4 5 1 0 1 4 0 105 0 9 0 11 6 9 11 105 0 6 0 7 8 6 7 105 3 1 2 2 17 77 10 1 8 8 19 8 78 67 64 60 59 55 52 21 54 38 33 34 18 20 52 18 12 7 31 
CALL[ ]	/* CallFunction */";
};
width = 1442;
}
);
note = uni1782;
unicode = 6018;
},
{
glyphname = uni1783;
lastChange = "2022-11-15 14:54:54 +0000";
layers = (
{
layerId = m01;
shapes = (
{
closed = 1;
nodes = (
(248,954,o),
(225,959,o),
(209,969,cs),
(194,978,o),
(186,993,o),
(186,1014,cs),
(186,1028,o),
(194,1047,o),
(209,1072,cs),
(225,1097,o),
(248,1128,o),
(279,1163,c),
(279,954,l)
);
},
{
closed = 1;
nodes = (
(93,960,o),
(109,921,o),
(140,897,cs),
(171,873,o),
(217,861,o),
(279,861,c),
(279,233,ls),
(279,155,o),
(312,97,o),
(378,58,cs),
(444,19,o),
(543,0,o),
(675,0,cs),
(768,0,ls),
(847,0,o),
(912,5,o),
(963,14,cs),
(1015,23,o),
(1052,36,o),
(1075,55,c),
(1098,36,o),
(1137,23,o),
(1191,14,cs),
(1244,5,o),
(1313,0,o),
(1396,0,cs),
(1489,0,ls),
(1621,0,o),
(1720,19,o),
(1786,58,cs),
(1852,97,o),
(1885,155,o),
(1885,233,cs),
(1885,869,l),
(1664,1009,l),
(1755,1125,l),
(1828,1079,ls),
(1861,1058,o),
(1893,1047,o),
(1924,1047,cs),
(1955,1047,o),
(1997,1094,o),
(2048,1187,c),
(2001,1187,ls),
(1975,1187,o),
(1943,1199,o),
(1905,1223,cs),
(1776,1303,l),
(1559,1025,l),
(1559,965,l),
(1722,862,l),
(1722,233,ls),
(1722,186,o),
(1703,151,o),
(1664,128,cs),
(1625,105,o),
(1567,93,o),
(1489,93,cs),
(1396,93,ls),
(1319,93,o),
(1260,105,o),
(1221,128,cs),
(1183,151,o),
(1164,186,o),
(1164,233,cs),
(1164,869,l),
(943,1009,l),
(1033,1125,l),
(1107,1079,ls),
(1140,1058,o),
(1172,1047,o),
(1203,1047,cs),
(1234,1047,o),
(1275,1094,o),
(1326,1187,c),
(1280,1187,ls),
(1254,1187,o),
(1222,1199,o),
(1184,1223,cs),
(1055,1303,l),
(838,1025,l),
(838,965,l),
(1001,862,l),
(1001,233,ls),
(1001,186,o),
(981,151,o),
(942,128,cs),
(903,105,o),
(845,93,o),
(768,93,cs),
(675,93,ls),
(597,93,o),
(539,105,o),
(501,128,cs),
(462,151,o),
(442,186,o),
(442,233,cs),
(442,1303,l),
(279,1303,l),
(186,1198,ls),
(155,1163,o),
(132,1129,o),
(116,1098,cs),
(101,1067,o),
(93,1039,o),
(93,1013,cs)
);
}
);
userData = {
assembly = "NPUSHB[ ]	/* 104 values pushed */
82 57 1 3 7 6 83 72 71 58 47 46 6 0 7 84 70 59 45 4 3 0 14 1 1 5 4 76 73 48 2 4 74 9 1 6 10 1 7 0 6 7 105 11 1 0 0 3 5 0 3 105 0 4 4 17 77 8 1 5 5 1 97 2 12 2 1 1 19 1 78 11 9 0 0 80 78 77 75 66 63 55 53 52 50 41 38 34 33 25 24 20 17 9 88 11 88 0 8 0 8 13 7 22 
CALL[ ]	/* CallFunction */";
};
width = 2164;
}
);
note = uni1783;
unicode = 6019;
},
{
glyphname = uni1784;
lastChange = "2022-11-15 14:54:54 +0000";
layers = (
{
layerId = m01;
shapes = (
{
closed = 1;
nodes = (
(790,1162,o),
(795,1175,o),
(804,1184,cs),
(814,1193,o),
(829,1197,o),
(848,1198,cs),
(867,1197,o),
(882,1193,o),
(891,1184,cs),
(900,1175,o),
(904,1163,o),
(904,1147,cs),
(904,1130,o),
(900,1117,o),
(891,1108,cs),
(882,1099,o),
(867,1094,o),
(848,1094,cs),
(829,1094,o),
(814,1099,o),
(804,1108,cs),
(795,1117,o),
(790,1129,o),
(790,1145,cs)
);
},
{
closed = 1;
nodes = (
(116,542,o),
(130,513,o),
(157,494,cs),
(184,475,o),
(224,465,o),
(279,465,c),
(279,0,l),
(442,0,l),
(721,180,l),
(1000,0,l),
(1163,0,l),
(1163,966,l),
(964,1039,l),
(1001,1075,o),
(1019,1110,o),
(1019,1143,cs),
(1019,1196,o),
(1005,1236,o),
(976,1263,cs),
(947,1290,o),
(905,1303,o),
(848,1303,cs),
(791,1303,o),
(748,1290,o),
(719,1263,cs),
(690,1236,o),
(675,1197,o),
(675,1146,cs),
(675,1123,o),
(680,1106,o),
(690,1094,c),
(558,1094,ls),
(519,1094,o),
(491,1100,o),
(472,1111,cs),
(453,1121,o),
(443,1139,o),
(443,1164,cs),
(443,1304,ls),
(443,1365,o),
(431,1412,o),
(407,1443,cs),
(384,1474,o),
(349,1489,o),
(302,1489,cs),
(263,1489,o),
(234,1480,o),
(215,1461,cs),
(196,1442,o),
(186,1412,o),
(186,1373,c),
(217,1373,o),
(240,1367,o),
(256,1355,cs),
(271,1344,o),
(279,1327,o),
(279,1304,cs),
(279,1164,ls),
(279,1105,o),
(302,1063,o),
(349,1038,cs),
(396,1013,o),
(465,1001,o),
(558,1001,cs),
(807,1001,l),
(1000,911,l),
(1000,111,l),
(721,290,l),
(442,111,l),
(442,838,l),
(279,838,l),
(206,758,ls),
(177,724,o),
(154,693,o),
(138,664,cs),
(123,635,o),
(116,607,o),
(116,581,cs)
);
},
{
closed = 1;
nodes = (
(209,595,o),
(215,611,o),
(227,631,cs),
(238,651,o),
(256,674,o),
(279,699,c),
(279,559,l),
(256,559,o),
(238,561,o),
(227,564,cs),
(215,568,o),
(209,574,o),
(209,582,cs)
);
}
);
userData = {
assembly = "NPUSHB[ ]	/* 97 values pushed */
46 26 2 6 7 17 1 2 6 45 44 43 29 4 3 5 3 76 0 9 8 9 133 0 8 11 8 133 10 1 0 0 7 6 0 7 103 12 1 2 0 5 3 2 5 105 0 1 1 11 97 0 11 11 17 77 0 6 6 3 95 4 1 3 3 19 3 78 16 16 78 76 71 69 62 60 57 56 49 47 42 41 33 32 31 30 28 27 16 24 16 24 38 35 13 7 24 
CALL[ ]	/* CallFunction */";
};
width = 1442;
}
);
note = uni1784;
unicode = 6020;
},
{
glyphname = uni1785;
lastChange = "2022-11-15 14:54:54 +0000";
layers = (
{
layerId = m01;
shapes = (
{
closed = 1;
nodes = (
(978,582,o),
(960,584,o),
(948,587,c),
(937,592,o),
(931,598,o),
(931,605,cs),
(931,619,o),
(937,635,o),
(948,654,cs),
(960,673,o),
(978,696,o),
(1001,722,c),
(1001,582,l)
);
},
{
closed = 1;
nodes = (
(279,977,l),
(279,233,ls),
(279,155,o),
(308,97,o),
(367,58,cs),
(425,19,o),
(512,0,o),
(628,0,cs),
(814,0,ls),
(930,0,o),
(1017,19,o),
(1076,58,cs),
(1134,97,o),
(1163,155,o),
(1163,233,cs),
(1163,861,l),
(1001,861,l),
(928,781,ls),
(897,748,o),
(875,717,o),
(860,687,cs),
(845,657,o),
(838,629,o),
(838,604,cs),
(838,565,o),
(852,537,o),
(879,518,cs),
(906,499,o),
(947,489,o),
(1001,489,c),
(1001,233,ls),
(1001,186,o),
(985,151,o),
(954,128,cs),
(923,105,o),
(876,93,o),
(814,93,cs),
(628,93,ls),
(566,93,o),
(520,105,o),
(489,128,cs),
(458,151,o),
(442,186,o),
(442,233,cs),
(442,977,l),
(331,1105,l),
(456,1170,l),
(686,1024,l),
(716,1024,l),
(863,1154,l),
(1010,1062,ls),
(1052,1037,o),
(1095,1024,o),
(1138,1024,cs),
(1181,1024,o),
(1221,1071,o),
(1256,1165,c),
(1203,1165,ls),
(1172,1165,o),
(1142,1173,o),
(1115,1190,cs),
(930,1303,l),
(893,1303,l),
(749,1178,l),
(550,1303,l),
(513,1303,l),
(186,1137,l),
(186,1085,l)
);
}
);
userData = {
assembly = "NPUSHB[ ]	/* 94 values pushed */
40 26 2 5 3 41 37 23 22 4 6 5 42 21 2 1 6 5 1 2 0 1 4 76 0 1 6 0 6 1 0 128 0 5 7 1 6 1 5 6 105 10 1 0 0 9 8 0 9 106 4 1 3 3 17 77 0 8 8 2 95 0 2 2 19 2 78 0 0 54 53 49 46 39 38 35 33 32 30 28 27 25 24 17 14 10 9 0 8 0 8 11 7 22 
CALL[ ]	/* CallFunction */";
};
width = 1442;
}
);
note = uni1785;
unicode = 6021;
},
{
glyphname = uni1786;
lastChange = "2022-11-15 14:54:54 +0000";
layers = (
{
layerId = m01;
shapes = (
{
closed = 1;
nodes = (
(232,279,o),
(236,296,o),
(243,308,cs),
(251,320,o),
(263,326,o),
(279,326,c),
(279,128,l),
(263,142,o),
(251,160,o),
(243,181,cs),
(236,202,o),
(232,227,o),
(232,256,cs)
);
},
{
closed = 1;
nodes = (
(139,215,o),
(145,178,o),
(157,146,cs),
(168,115,o),
(186,88,o),
(209,65,cs),
(279,0,l),
(442,0,l),
(442,326,l),
(511,326,ls),
(558,326,o),
(593,317,o),
(616,299,cs),
(639,281,o),
(651,254,o),
(651,217,cs),
(651,144,o),
(670,90,o),
(709,54,cs),
(748,18,o),
(806,0,o),
(884,0,cs),
(977,0,o),
(1046,19,o),
(1093,58,cs),
(1140,97,o),
(1163,155,o),
(1163,233,cs),
(1163,861,l),
(1000,861,l),
(927,781,ls),
(897,748,o),
(875,717,o),
(860,687,cs),
(845,657,o),
(837,629,o),
(837,604,cs),
(837,565,o),
(851,537,o),
(878,518,cs),
(905,499,o),
(946,489,o),
(1000,489,c),
(1000,233,ls),
(1000,186,o),
(990,151,o),
(971,128,cs),
(951,105,o),
(922,93,o),
(884,93,cs),
(837,93,o),
(802,103,o),
(779,124,cs),
(756,145,o),
(744,176,o),
(744,217,cs),
(744,284,o),
(725,335,o),
(686,369,cs),
(647,402,o),
(589,419,o),
(511,419,cs),
(442,419,l),
(442,977,l),
(331,1105,l),
(456,1170,l),
(685,1024,l),
(715,1024,l),
(862,1154,l),
(1009,1062,ls),
(1052,1037,o),
(1095,1024,o),
(1138,1024,cs),
(1181,1024,o),
(1220,1071,o),
(1255,1165,c),
(1202,1165,ls),
(1171,1165,o),
(1142,1173,o),
(1115,1190,cs),
(929,1303,l),
(892,1303,l),
(749,1178,l),
(550,1303,l),
(512,1303,l),
(186,1137,l),
(186,1085,l),
(279,977,l),
(279,419,l),
(232,419,o),
(197,405,o),
(174,378,cs),
(151,351,o),
(139,310,o),
(139,256,cs)
);
},
{
closed = 1;
nodes = (
(930,619,o),
(936,635,o),
(948,654,cs),
(960,673,o),
(977,696,o),
(1000,722,c),
(1000,582,l),
(977,582,o),
(960,584,o),
(948,587,c),
(936,592,o),
(930,598,o),
(930,605,cs)
);
}
);
userData = {
assembly = "NPUSHB[ ]	/* 123 values pushed */
38 24 2 4 2 39 35 21 20 4 5 4 40 19 2 10 5 14 10 2 1 10 4 1 8 0 5 76 0 10 5 1 5 10 1 128 0 4 6 1 5 10 4 5 105 15 1 1 0 9 7 1 9 106 16 14 2 7 12 1 0 8 7 0 106 3 1 2 2 17 77 0 8 8 11 98 13 1 11 11 19 11 78 18 18 9 9 18 89 18 89 81 80 79 77 71 69 65 64 56 55 51 49 43 41 37 36 33 31 30 28 26 25 23 22 9 17 9 17 21 17 7 23 
CALL[ ]	/* CallFunction */";
};
width = 1442;
}
);
note = uni1786;
unicode = 6022;
},
{
glyphname = uni1787;
lastChange = "2022-11-15 14:54:54 +0000";
layers = (
{
layerId = m01;
shapes = (
{
closed = 1;
nodes = (
(721,290,l),
(442,111,l),
(442,956,l),
(298,1070,l),
(453,1168,l),
(652,1001,l),
(838,1001,ls),
(941,1001,o),
(1021,1019,o),
(1078,1054,cs),
(1135,1090,o),
(1163,1142,o),
(1163,1210,cs),
(1163,1288,o),
(1149,1346,o),
(1122,1385,cs),
(1094,1424,o),
(1052,1443,o),
(997,1443,cs),
(960,1443,o),
(931,1436,o),
(912,1421,cs),
(893,1405,o),
(884,1381,o),
(884,1350,c),
(923,1350,o),
(953,1338,o),
(972,1314,cs),
(991,1291,o),
(1001,1257,o),
(1001,1210,cs),
(1001,1175,o),
(988,1147,o),
(961,1126,cs),
(933,1105,o),
(892,1094,o),
(838,1094,cs),
(795,1094,l),
(545,1303,l),
(493,1303,l),
(186,1110,l),
(186,1039,l),
(279,966,l),
(279,0,l),
(442,0,l),
(721,180,l),
(1001,0,l),
(1163,0,l),
(1163,861,l),
(1001,861,l),
(1001,111,l)
);
}
);
userData = {
assembly = "NPUSHB[ ]	/* 70 values pushed */
35 9 2 4 3 36 8 2 7 4 37 7 2 0 7 40 39 38 4 4 1 0 4 76 0 6 5 6 133 0 5 3 5 133 0 4 0 7 0 4 7 104 0 3 3 17 77 0 0 0 1 95 2 1 1 1 19 1 78 38 35 22 33 20 18 17 16 8 7 30 
CALL[ ]	/* CallFunction */";
};
width = 1442;
}
);
note = uni1787;
unicode = 6023;
},
{
glyphname = uni1788;
lastChange = "2022-11-15 14:54:54 +0000";
layers = (
{
layerId = m01;
shapes = (
{
closed = 1;
nodes = (
(511,349,o),
(529,345,o),
(541,337,cs),
(552,330,o),
(558,318,o),
(558,303,cs),
(558,284,o),
(553,266,o),
(544,247,cs),
(535,229,o),
(521,211,o),
(503,192,cs),
(442,131,l),
(442,349,l),
(488,349,ls)
);
},
{
closed = 1;
nodes = (
(442,0,l),
(577,133,ls),
(602,157,o),
(620,183,o),
(633,212,cs),
(645,241,o),
(651,271,o),
(651,303,cs),
(651,349,o),
(637,384,o),
(610,408,cs),
(583,431,o),
(542,442,o),
(488,442,cs),
(442,442,l),
(442,1075,l),
(637,1163,l),
(1000,998,l),
(1000,233,ls),
(1000,155,o),
(1033,97,o),
(1099,58,cs),
(1165,19,o),
(1264,0,o),
(1396,0,cs),
(1489,0,ls),
(1568,0,o),
(1633,5,o),
(1685,14,cs),
(1736,23,o),
(1773,36,o),
(1796,55,c),
(1819,36,o),
(1858,23,o),
(1912,14,cs),
(1965,5,o),
(2034,0,o),
(2118,0,cs),
(2211,0,ls),
(2342,0,o),
(2441,19,o),
(2508,58,cs),
(2573,97,o),
(2606,155,o),
(2606,233,cs),
(2606,869,l),
(2386,1009,l),
(2476,1125,l),
(2549,1079,ls),
(2583,1058,o),
(2615,1047,o),
(2645,1047,cs),
(2676,1047,o),
(2718,1094,o),
(2769,1187,c),
(2723,1187,ls),
(2697,1187,o),
(2665,1199,o),
(2627,1223,cs),
(2497,1303,l),
(2280,1025,l),
(2280,965,l),
(2443,862,l),
(2443,233,ls),
(2443,186,o),
(2424,151,o),
(2386,128,cs),
(2347,105,o),
(2288,93,o),
(2211,93,cs),
(2118,93,ls),
(2040,93,o),
(1982,105,o),
(1943,128,cs),
(1904,151,o),
(1885,186,o),
(1885,233,cs),
(1885,869,l),
(1664,1009,l),
(1754,1125,l),
(1828,1079,ls),
(1861,1058,o),
(1893,1047,o),
(1924,1047,cs),
(1955,1047,o),
(1996,1094,o),
(2048,1187,c),
(2001,1187,ls),
(1975,1187,o),
(1943,1199,o),
(1905,1223,cs),
(1776,1303,l),
(1559,1025,l),
(1559,965,l),
(1722,862,l),
(1722,233,ls),
(1722,186,o),
(1702,151,o),
(1663,128,cs),
(1625,105,o),
(1567,93,o),
(1489,93,cs),
(1396,93,ls),
(1319,93,o),
(1261,105,o),
(1222,128,cs),
(1183,151,o),
(1163,186,o),
(1163,233,cs),
(1163,1103,l),
(721,1303,l),
(279,1104,l),
(279,0,l)
);
}
);
userData = {
assembly = "NPUSHB[ ]	/* 106 values pushed */
91 66 43 41 28 27 6 7 6 93 92 81 80 79 68 67 56 55 54 26 11 3 7 2 1 5 0 16 1 1 5 4 76 82 57 42 3 6 74 9 1 6 10 1 7 3 6 7 105 0 3 11 1 0 5 3 0 105 8 1 5 5 1 97 4 2 12 3 1 1 19 1 78 13 11 1 0 89 87 86 84 75 72 64 62 61 59 50 47 40 39 31 29 22 19 11 97 13 97 0 10 1 10 13 7 22 
CALL[ ]	/* CallFunction */";
};
width = 2885;
}
);
note = uni1788;
unicode = 6024;
},
{
glyphname = uni1789;
lastChange = "2022-11-15 14:54:54 +0000";
layers = (
{
layerId = m01;
shapes = (
{
closed = 1;
nodes = (
(1885,-217,o),
(1871,-171,o),
(1844,-140,cs),
(1817,-109,o),
(1777,-93,o),
(1723,-93,cs),
(1684,-93,o),
(1654,-101,o),
(1635,-116,cs),
(1616,-132,o),
(1606,-155,o),
(1606,-186,c),
(1645,-186,o),
(1674,-194,o),
(1693,-209,cs),
(1713,-225,o),
(1723,-248,o),
(1723,-279,cs),
(1723,-341,o),
(1709,-388,o),
(1680,-419,cs),
(1651,-450,o),
(1609,-465,o),
(1552,-465,cs),
(1493,-465,o),
(1438,-456,o),
(1385,-437,cs),
(1332,-418,o),
(1283,-388,o),
(1237,-349,cs),
(1154,-279,o),
(1060,-227,o),
(956,-192,cs),
(851,-157,o),
(736,-140,o),
(611,-140,cs),
(547,-140,o),
(487,-147,o),
(432,-160,cs),
(320,-189,o),
(279,-207,o),
(279,-270,cs),
(279,-317,l),
(325,-289,o),
(376,-268,o),
(432,-253,cs),
(487,-240,o),
(547,-233,o),
(611,-233,cs),
(691,-233,o),
(770,-248,o),
(847,-279,cs),
(924,-310,o),
(999,-357,o),
(1073,-419,cs),
(1128,-466,o),
(1196,-500,o),
(1276,-523,cs),
(1356,-547,o),
(1448,-559,o),
(1552,-559,cs),
(1663,-559,o),
(1747,-536,o),
(1802,-489,cs),
(1857,-442,o),
(1885,-372,o),
(1885,-279,cs)
);
},
{
closed = 1;
nodes = (
(442,0,l),
(577,133,ls),
(602,157,o),
(620,183,o),
(633,212,cs),
(645,241,o),
(651,271,o),
(651,303,cs),
(651,349,o),
(637,384,o),
(610,408,cs),
(583,431,o),
(542,442,o),
(488,442,cs),
(442,442,l),
(442,1076,l),
(553,1173,l),
(722,1007,l),
(891,1173,l),
(1000,1075,l),
(1000,0,l),
(1163,0,l),
(1163,1039,l),
(1373,1155,l),
(1722,961,l),
(1722,0,l),
(1885,0,l),
(1885,1054,l),
(1443,1303,l),
(1100,1110,l),
(888,1303,l),
(722,1140,l),
(555,1303,l),
(279,1056,l),
(279,0,l)
);
},
{
closed = 1;
nodes = (
(442,349,l),
(488,349,ls),
(511,349,o),
(529,345,o),
(541,337,cs),
(552,330,o),
(558,318,o),
(558,303,cs),
(558,284,o),
(553,266,o),
(544,247,cs),
(535,229,o),
(521,211,o),
(503,192,cs),
(442,131,l)
);
}
);
userData = {
assembly = "NPUSHB[ ]	/* 27 values pushed */
48 1 7 6 16 1 3 1 2 76 87 86 85 84 83 70 69 68 67 66 63 62 61 58 14 9 74 
MPPEM[ ]	/* MeasurePixelPerEm */
PUSHB[ ]	/* 1 value pushed */
12 
LT[ ]	/* LessThan */
IF[ ]	/* If */
NPUSHB[ ]	/* 51 values pushed */
0 5 7 2 7 5 2 128 0 4 2 1 2 4 1 128 0 9 11 1 6 7 9 6 105 0 2 0 1 3 2 1 105 10 8 2 7 7 19 77 0 3 3 0 98 0 0 0 20 0 78 
ELSE[ ]	/* Else */
MPPEM[ ]	/* MeasurePixelPerEm */
PUSHB[ ]	/* 1 value pushed */
15 
LT[ ]	/* LessThan */
IF[ ]	/* If */
NPUSHB[ ]	/* 50 values pushed */
0 4 2 1 2 4 1 128 0 9 11 1 6 7 9 6 105 10 8 2 7 7 19 77 0 5 5 18 77 0 1 1 2 97 0 2 2 18 77 0 3 3 0 98 0 0 0 20 0 78 
ELSE[ ]	/* Else */
MPPEM[ ]	/* MeasurePixelPerEm */
PUSHB[ ]	/* 1 value pushed */
22 
LT[ ]	/* LessThan */
IF[ ]	/* If */
NPUSHB[ ]	/* 47 values pushed */
0 4 2 1 2 4 1 128 0 9 11 1 6 7 9 6 105 0 3 0 0 3 0 102 10 8 2 7 7 19 77 0 5 5 18 77 0 1 1 2 97 0 2 2 18 1 78 
ELSE[ ]	/* Else */
NPUSHB[ ]	/* 45 values pushed */
0 4 2 1 2 4 1 128 0 9 11 1 6 7 9 6 105 0 2 0 1 3 2 1 105 0 3 0 0 3 0 102 10 8 2 7 7 19 77 0 5 5 18 5 78 
EIF[ ]	/* EndIf */
EIF[ ]	/* EndIf */
EIF[ ]	/* EndIf */
NPUSHB[ ]	/* 23 values pushed */
47 46 82 81 73 71 65 64 60 59 46 56 47 56 35 22 38 40 38 35 12 7 28 
CALL[ ]	/* CallFunction */";
};
width = 2164;
}
);
note = uni1789;
unicode = 6025;
},
{
glyphname = uni178A;
lastChange = "2022-11-15 14:54:54 +0000";
layers = (
{
layerId = m01;
shapes = (
{
closed = 1;
nodes = (
(597,1094,o),
(539,1100,o),
(501,1112,cs),
(462,1123,o),
(442,1140,o),
(442,1164,cs),
(442,1195,o),
(450,1210,o),
(466,1210,cs),
(481,1210,o),
(489,1195,o),
(489,1164,c),
(520,1164,o),
(543,1170,o),
(558,1181,cs),
(574,1193,o),
(582,1210,o),
(582,1233,cs),
(582,1256,o),
(572,1274,o),
(553,1286,cs),
(533,1297,o),
(503,1303,o),
(464,1303,cs),
(403,1303,o),
(357,1291,o),
(326,1268,cs),
(295,1245,o),
(279,1210,o),
(279,1164,cs),
(279,1109,o),
(312,1069,o),
(378,1042,cs),
(443,1015,o),
(542,1001,o),
(675,1001,cs),
(768,1001,ls),
(900,1001,o),
(999,1019,o),
(1065,1056,cs),
(1130,1093,o),
(1163,1148,o),
(1163,1221,cs),
(1163,1295,o),
(1148,1351,o),
(1117,1388,cs),
(1086,1425,o),
(1039,1443,o),
(977,1443,cs),
(946,1443,o),
(923,1435,o),
(907,1420,cs),
(892,1404,o),
(884,1381,o),
(884,1350,c),
(923,1350,o),
(952,1339,o),
(972,1318,cs),
(991,1297,o),
(1000,1264,o),
(1000,1221,cs),
(1000,1179,o),
(981,1147,o),
(942,1125,cs),
(903,1104,o),
(845,1094,o),
(768,1094,cs),
(675,1094,ls)
);
},
{
closed = 1;
nodes = (
(442,0,l),
(721,180,l),
(1000,0,l),
(1163,0,l),
(1163,861,l),
(1000,861,l),
(1000,111,l),
(721,290,l),
(442,111,l),
(442,861,l),
(279,861,l),
(279,0,l)
);
}
);
userData = {
assembly = "NPUSHB[ ]	/* 84 values pushed */
57 52 47 3 8 7 1 76 0 5 6 0 6 5 114 0 2 0 1 4 2 1 105 11 1 0 0 3 7 0 3 105 0 6 6 4 97 0 4 4 17 77 10 1 7 7 8 95 9 1 8 8 19 8 78 2 0 56 55 54 53 51 50 49 48 41 39 38 37 31 29 23 20 14 12 9 8 0 45 2 45 12 7 22 
CALL[ ]	/* CallFunction */";
};
width = 1442;
}
);
note = uni178A;
unicode = 6026;
},
{
glyphname = uni178B;
lastChange = "2022-11-15 14:54:54 +0000";
layers = (
{
layerId = m01;
shapes = (
{
closed = 1;
nodes = (
(248,954,o),
(225,959,o),
(209,969,cs),
(194,978,o),
(186,993,o),
(186,1014,cs),
(186,1028,o),
(194,1047,o),
(209,1072,cs),
(225,1097,o),
(248,1128,o),
(279,1163,c),
(279,954,l)
);
},
{
closed = 1;
nodes = (
(93,960,o),
(109,921,o),
(140,897,cs),
(171,873,o),
(217,861,o),
(279,861,c),
(279,233,ls),
(279,155,o),
(312,97,o),
(378,58,cs),
(444,19,o),
(543,0,o),
(675,0,cs),
(768,0,ls),
(900,0,o),
(999,19,o),
(1065,58,cs),
(1131,97,o),
(1164,155,o),
(1164,233,cs),
(1164,869,l),
(935,1014,l),
(986,1113,l),
(1025,1091,o),
(1059,1075,o),
(1089,1064,cs),
(1119,1053,o),
(1144,1047,o),
(1165,1047,cs),
(1211,1047,o),
(1246,1067,o),
(1269,1106,cs),
(1292,1145,o),
(1303,1203,o),
(1303,1280,cs),
(1303,1350,o),
(1291,1402,o),
(1268,1437,cs),
(1245,1472,o),
(1210,1489,o),
(1164,1489,cs),
(1133,1489,o),
(1109,1481,o),
(1094,1466,cs),
(1078,1451,o),
(1070,1427,o),
(1070,1396,c),
(1117,1396,o),
(1152,1387,o),
(1175,1368,cs),
(1198,1349,o),
(1210,1319,o),
(1210,1280,cs),
(1210,1257,o),
(1207,1240,o),
(1202,1228,cs),
(1196,1216,o),
(1188,1210,o),
(1177,1210,cs),
(1154,1210,o),
(1116,1226,o),
(1061,1258,cs),
(981,1303,l),
(838,1027,l),
(838,965,l),
(1001,862,l),
(1001,233,ls),
(1001,186,o),
(981,151,o),
(942,128,cs),
(903,105,o),
(845,93,o),
(768,93,cs),
(675,93,ls),
(597,93,o),
(539,105,o),
(501,128,cs),
(462,151,o),
(442,186,o),
(442,233,cs),
(442,1303,l),
(279,1303,l),
(186,1198,ls),
(155,1163,o),
(132,1129,o),
(116,1098,cs),
(101,1067,o),
(93,1039,o),
(93,1013,cs)
);
}
);
userData = {
assembly = "NPUSHB[ ]	/* 94 values pushed */
66 1 2 8 5 67 38 37 3 0 8 68 36 2 2 0 3 76 39 1 3 1 75 0 7 0 6 3 7 6 105 0 5 0 8 0 5 8 105 9 1 0 0 2 4 0 2 105 0 3 3 17 77 0 4 4 1 97 10 1 1 1 19 1 78 11 9 0 0 63 61 55 53 50 49 42 41 32 29 25 24 16 15 9 72 11 72 0 8 0 8 11 7 22 
CALL[ ]	/* CallFunction */";
};
width = 1442;
}
);
note = uni178B;
unicode = 6027;
},
{
glyphname = uni178C;
lastChange = "2022-11-15 14:54:54 +0000";
layers = (
{
layerId = m01;
shapes = (
{
closed = 1;
nodes = (
(457,908,o),
(469,906,o),
(476,902,cs),
(484,898,o),
(488,892,o),
(488,884,cs),
(488,869,o),
(484,858,o),
(476,850,cs),
(469,843,o),
(457,839,o),
(442,839,c),
(442,908,l)
);
},
{
closed = 1;
nodes = (
(279,186,o),
(300,117,o),
(343,71,cs),
(386,24,o),
(450,1,o),
(536,1,cs),
(564,1,l),
(1001,250,l),
(1001,117,ls),
(1001,101,o),
(991,89,o),
(972,82,cs),
(953,74,o),
(923,70,o),
(884,70,c),
(884,31,o),
(894,1,o),
(914,-18,cs),
(933,-37,o),
(962,-47,o),
(1001,-47,cs),
(1055,-47,o),
(1095,-33,o),
(1122,-6,cs),
(1149,21,o),
(1163,61,o),
(1163,115,cs),
(1163,535,l),
(1001,535,l),
(1001,357,l),
(541,94,l),
(508,94,o),
(483,109,o),
(467,140,cs),
(450,171,o),
(442,216,o),
(442,277,cs),
(442,415,l),
(1018,702,ls),
(1115,751,o),
(1163,826,o),
(1163,925,cs),
(1163,1056,l),
(888,1303,l),
(722,1140,l),
(555,1303,l),
(279,1056,l),
(279,838,ls),
(279,807,o),
(293,783,o),
(320,768,cs),
(347,753,o),
(388,745,o),
(442,745,cs),
(489,745,o),
(524,757,o),
(547,780,cs),
(570,803,o),
(582,838,o),
(582,884,cs),
(582,923,o),
(570,952,o),
(547,972,cs),
(524,991,o),
(489,1001,o),
(442,1001,c),
(442,1076,l),
(553,1173,l),
(722,1007,l),
(891,1173,l),
(1000,1075,l),
(1000,925,ls),
(1000,840,o),
(983,789,o),
(949,772,cs),
(279,438,l),
(279,278,ls)
);
}
);
userData = {
assembly = "NPUSHB[ ]	/* 27 values pushed */
5 0 2 0 5 63 33 26 10 4 7 1 2 76 59 58 57 56 55 41 40 39 38 37 10 5 74 
MPPEM[ ]	/* MeasurePixelPerEm */
PUSHB[ ]	/* 1 value pushed */
17 
LT[ ]	/* LessThan */
IF[ ]	/* If */
NPUSHB[ ]	/* 44 values pushed */
0 5 0 0 5 112 0 3 7 4 7 3 4 128 0 0 0 6 1 0 6 106 8 1 7 7 4 97 0 4 4 19 77 0 1 1 2 97 0 2 2 19 2 78 
ELSE[ ]	/* Else */
MPPEM[ ]	/* MeasurePixelPerEm */
PUSHB[ ]	/* 1 value pushed */
22 
LT[ ]	/* LessThan */
IF[ ]	/* If */
NPUSHB[ ]	/* 43 values pushed */
0 5 0 5 133 0 3 7 4 7 3 4 128 0 0 0 6 1 0 6 106 8 1 7 7 4 97 0 4 4 19 77 0 1 1 2 97 0 2 2 19 2 78 
ELSE[ ]	/* Else */
NPUSHB[ ]	/* 40 values pushed */
0 5 0 5 133 0 3 7 4 7 3 4 128 0 0 0 6 1 0 6 106 0 1 0 2 1 2 101 8 1 7 7 4 97 0 4 4 19 4 78 
EIF[ ]	/* EndIf */
EIF[ ]	/* EndIf */
NPUSHB[ ]	/* 16 values pushed */
9 9 9 67 9 67 38 29 37 19 36 25 17 9 7 29 
CALL[ ]	/* CallFunction */";
};
width = 1442;
}
);
note = uni178C;
unicode = 6028;
},
{
glyphname = uni178D;
lastChange = "2022-11-15 14:54:54 +0000";
layers = (
{
layerId = m01;
shapes = (
{
closed = 1;
nodes = (
(511,349,o),
(529,345,o),
(541,337,cs),
(552,330,o),
(558,318,o),
(558,303,cs),
(558,284,o),
(553,266,o),
(544,247,cs),
(535,229,o),
(521,211,o),
(503,192,cs),
(442,131,l),
(442,349,l),
(488,349,ls)
);
},
{
closed = 1;
nodes = (
(442,0,l),
(577,133,ls),
(602,157,o),
(620,183,o),
(633,212,cs),
(645,241,o),
(651,271,o),
(651,303,cs),
(651,349,o),
(637,384,o),
(610,408,cs),
(583,431,o),
(542,442,o),
(488,442,cs),
(442,442,l),
(442,1076,l),
(553,1173,l),
(722,1007,l),
(891,1173,l),
(1000,1075,l),
(1000,419,l),
(954,419,o),
(919,405,o),
(896,378,cs),
(873,351,o),
(861,310,o),
(861,256,cs),
(861,215,o),
(867,178,o),
(879,146,cs),
(890,115,o),
(908,88,o),
(931,65,cs),
(1000,0,l),
(1163,0,l),
(1163,326,l),
(1233,326,ls),
(1280,326,o),
(1314,317,o),
(1337,299,cs),
(1361,281,o),
(1373,254,o),
(1373,217,cs),
(1373,144,o),
(1392,90,o),
(1431,54,cs),
(1470,18,o),
(1528,0,o),
(1606,0,cs),
(1699,0,o),
(1768,19,o),
(1815,58,cs),
(1862,97,o),
(1885,155,o),
(1885,233,cs),
(1885,869,l),
(1664,1009,l),
(1754,1125,l),
(1828,1079,ls),
(1861,1058,o),
(1893,1047,o),
(1924,1047,cs),
(1955,1047,o),
(1996,1094,o),
(2048,1187,c),
(2001,1187,ls),
(1975,1187,o),
(1943,1199,o),
(1905,1223,cs),
(1776,1303,l),
(1559,1025,l),
(1559,965,l),
(1722,862,l),
(1722,233,ls),
(1722,186,o),
(1712,151,o),
(1693,128,cs),
(1673,105,o),
(1644,93,o),
(1606,93,cs),
(1559,93,o),
(1524,103,o),
(1501,124,cs),
(1478,145,o),
(1466,176,o),
(1466,217,cs),
(1466,284,o),
(1447,335,o),
(1408,369,cs),
(1369,402,o),
(1311,419,o),
(1233,419,cs),
(1163,419,l),
(1163,1052,l),
(888,1303,l),
(722,1140,l),
(555,1303,l),
(279,1056,l),
(279,0,l)
);
},
{
closed = 1;
nodes = (
(954,279,o),
(958,296,o),
(965,308,cs),
(973,320,o),
(985,326,o),
(1000,326,c),
(1000,128,l),
(985,142,o),
(973,160,o),
(965,181,cs),
(958,202,o),
(954,227,o),
(954,256,cs)
);
}
);
userData = {
assembly = "NPUSHB[ ]	/* 103 values pushed */
95 93 80 79 77 76 48 21 8 5 4 78 50 49 38 37 36 6 10 5 15 2 2 3 1 3 76 94 39 2 4 74 0 4 0 5 10 4 5 105 0 10 12 1 0 1 10 0 105 9 1 2 7 1 1 3 2 1 105 0 3 3 6 95 11 8 2 6 6 19 6 78 1 0 92 91 83 81 75 74 66 65 64 62 56 54 46 44 43 41 32 30 24 22 17 16 0 10 1 10 13 7 22 
CALL[ ]	/* CallFunction */";
};
width = 2164;
}
);
note = uni178D;
unicode = 6029;
},
{
glyphname = uni178E;
lastChange = "2022-11-15 14:54:54 +0000";
layers = (
{
layerId = m01;
shapes = (
{
closed = 1;
nodes = (
(511,349,o),
(529,345,o),
(541,337,cs),
(552,330,o),
(558,318,o),
(558,303,cs),
(558,284,o),
(553,266,o),
(544,247,cs),
(535,229,o),
(521,211,o),
(503,192,cs),
(442,131,l),
(442,349,l),
(488,349,ls)
);
},
{
closed = 1;
nodes = (
(442,0,l),
(577,133,ls),
(602,157,o),
(620,183,o),
(633,212,cs),
(645,241,o),
(651,271,o),
(651,303,cs),
(651,349,o),
(637,384,o),
(610,408,cs),
(583,431,o),
(542,442,o),
(488,442,cs),
(442,442,l),
(442,1075,l),
(637,1163,l),
(1000,998,l),
(1000,0,l),
(1163,0,l),
(1443,180,l),
(1722,0,l),
(1885,0,l),
(1885,1075,l),
(2080,1163,l),
(2443,998,l),
(2443,0,l),
(2606,0,l),
(2606,1103,l),
(2164,1303,l),
(1722,1104,l),
(1722,111,l),
(1443,290,l),
(1163,111,l),
(1163,1103,l),
(721,1303,l),
(279,1104,l),
(279,0,l)
);
}
);
userData = {
assembly = "NPUSHB[ ]	/* 62 values pushed */
42 41 40 19 2 5 1 0 1 76 44 43 39 38 37 24 23 22 16 15 14 11 12 4 74 0 4 6 1 0 1 4 0 105 5 3 2 3 1 1 19 1 78 1 0 36 35 27 25 21 20 18 17 13 12 0 10 1 10 7 7 22 
CALL[ ]	/* CallFunction */";
};
width = 2885;
}
);
note = uni178E;
unicode = 6030;
},
{
glyphname = uni178F;
lastChange = "2022-11-15 14:54:54 +0000";
layers = (
{
layerId = m01;
shapes = (
{
closed = 1;
nodes = (
(1052,1037,o),
(1095,1024,o),
(1138,1024,cs),
(1181,1024,o),
(1221,1071,o),
(1256,1165,c),
(1203,1165,ls),
(1172,1165,o),
(1142,1173,o),
(1115,1190,cs),
(930,1303,l),
(893,1303,l),
(749,1178,l),
(550,1303,l),
(513,1303,l),
(186,1137,l),
(186,1085,l),
(299,996,ls),
(320,980,o),
(340,972,o),
(361,972,cs),
(363,972,ls),
(384,972,o),
(411,990,o),
(443,1025,c),
(331,1105,l),
(456,1170,l),
(686,1024,l),
(716,1024,l),
(863,1154,l),
(1010,1062,ls)
);
},
{
closed = 1;
nodes = (
(442,0,l),
(577,133,ls),
(602,157,o),
(620,183,o),
(633,212,cs),
(645,241,o),
(651,271,o),
(651,303,cs),
(651,349,o),
(637,384,o),
(610,408,cs),
(583,431,o),
(543,442,o),
(489,442,cs),
(442,442,l),
(442,698,ls),
(442,745,o),
(459,779,o),
(494,802,cs),
(529,826,o),
(582,838,o),
(651,838,cs),
(791,838,ls),
(860,838,o),
(913,826,o),
(948,802,cs),
(983,779,o),
(1001,745,o),
(1001,698,cs),
(1001,0,l),
(1163,0,l),
(1163,698,ls),
(1163,776,o),
(1132,834,o),
(1070,873,cs),
(1008,912,o),
(915,931,o),
(791,931,cs),
(651,931,ls),
(527,931,o),
(434,912,o),
(372,873,cs),
(310,834,o),
(279,776,o),
(279,698,cs),
(279,0,l)
);
},
{
closed = 1;
nodes = (
(442,349,l),
(489,349,ls),
(512,349,o),
(529,345,o),
(541,337,cs),
(552,330,o),
(558,318,o),
(558,303,cs),
(558,284,o),
(553,266,o),
(544,247,cs),
(535,229,o),
(521,211,o),
(503,192,cs),
(442,131,l)
);
}
);
userData = {
assembly = "NPUSHB[ ]	/* 91 values pushed */
16 4 2 4 2 13 12 6 5 1 5 0 4 28 1 7 6 3 76 0 1 0 11 0 1 11 128 0 4 5 1 0 1 4 0 105 0 11 0 8 9 11 8 105 0 9 12 1 6 7 9 6 106 3 1 2 2 17 77 10 1 7 7 19 7 78 27 26 67 64 60 59 51 49 45 42 38 37 26 36 27 36 33 34 18 20 52 18 13 7 28 
CALL[ ]	/* CallFunction */";
};
width = 1442;
}
);
note = uni178F;
unicode = 6031;
},
{
glyphname = uni1790;
lastChange = "2022-11-15 14:54:54 +0000";
layers = (
{
layerId = m01;
shapes = (
{
closed = 1;
nodes = (
(978,582,o),
(960,584,o),
(948,587,c),
(937,592,o),
(931,598,o),
(931,605,cs),
(931,619,o),
(937,635,o),
(948,654,cs),
(960,673,o),
(978,696,o),
(1001,722,c),
(1001,582,l)
);
},
{
closed = 1;
nodes = (
(279,966,l),
(279,233,ls),
(279,155,o),
(308,97,o),
(367,58,cs),
(425,19,o),
(512,0,o),
(628,0,cs),
(814,0,ls),
(930,0,o),
(1017,19,o),
(1076,58,cs),
(1134,97,o),
(1163,155,o),
(1163,233,cs),
(1163,861,l),
(1001,861,l),
(928,781,ls),
(897,748,o),
(875,717,o),
(860,687,cs),
(845,657,o),
(838,629,o),
(838,604,cs),
(838,565,o),
(852,537,o),
(879,518,cs),
(906,499,o),
(947,489,o),
(1001,489,c),
(1001,233,ls),
(1001,186,o),
(985,151,o),
(954,128,cs),
(923,105,o),
(876,93,o),
(814,93,cs),
(628,93,ls),
(566,93,o),
(520,105,o),
(489,128,cs),
(458,151,o),
(442,186,o),
(442,233,cs),
(442,956,l),
(298,1070,l),
(453,1168,l),
(652,1001,l),
(838,1001,ls),
(941,1001,o),
(1021,1019,o),
(1078,1054,cs),
(1135,1090,o),
(1163,1142,o),
(1163,1210,cs),
(1163,1288,o),
(1149,1346,o),
(1122,1385,cs),
(1094,1424,o),
(1052,1443,o),
(997,1443,cs),
(960,1443,o),
(931,1436,o),
(912,1421,cs),
(893,1405,o),
(884,1381,o),
(884,1350,c),
(923,1350,o),
(953,1338,o),
(972,1314,cs),
(991,1291,o),
(1001,1257,o),
(1001,1210,cs),
(1001,1175,o),
(988,1147,o),
(961,1126,cs),
(933,1105,o),
(892,1094,o),
(838,1094,cs),
(795,1094,l),
(545,1303,l),
(493,1303,l),
(186,1110,l),
(186,1039,l)
);
}
);
userData = {
assembly = "NPUSHB[ ]	/* 100 values pushed */
49 23 2 4 3 50 22 2 7 4 51 21 2 1 7 5 1 2 0 1 4 76 0 6 5 6 133 0 5 3 5 133 0 1 7 0 7 1 0 128 0 4 0 7 1 4 7 104 10 1 0 0 9 8 0 9 105 0 3 3 17 77 0 8 8 2 95 0 2 2 19 2 78 0 0 63 62 58 55 48 46 40 38 35 34 28 26 25 24 17 14 10 9 0 8 0 8 11 7 22 
CALL[ ]	/* CallFunction */";
};
width = 1442;
}
);
note = uni1790;
unicode = 6032;
},
{
glyphname = uni1791;
lastChange = "2022-11-15 14:54:54 +0000";
layers = (
{
layerId = m01;
shapes = (
{
closed = 1;
nodes = (
(1046,652,o),
(1070,643,o),
(1070,625,cs),
(1070,606,o),
(1046,597,o),
(998,597,cs),
(942,597,l),
(942,634,o),
(961,652,o),
(998,652,cs)
);
},
{
closed = 1;
nodes = (
(279,711,o),
(316,633,o),
(390,581,cs),
(464,530,o),
(575,504,o),
(722,504,cs),
(779,504,l),
(779,280,ls),
(779,218,o),
(772,172,o),
(759,141,cs),
(746,110,o),
(725,94,o),
(698,94,cs),
(667,94,o),
(643,100,o),
(628,111,cs),
(613,122,o),
(605,140,o),
(605,163,cs),
(605,280,ls),
(605,327,o),
(596,361,o),
(579,384,cs),
(561,408,o),
(534,420,o),
(499,420,cs),
(456,420,o),
(425,412,o),
(404,397,cs),
(383,381,o),
(373,358,o),
(373,327,c),
(419,327,o),
(442,311,o),
(442,280,cs),
(442,163,ls),
(442,108,o),
(463,68,o),
(506,41,cs),
(549,14,o),
(613,0,o),
(698,0,cs),
(779,0,o),
(840,23,o),
(881,70,cs),
(922,117,o),
(942,188,o),
(942,281,cs),
(942,504,l),
(998,504,ls),
(1053,504,o),
(1094,514,o),
(1121,534,cs),
(1149,554,o),
(1163,585,o),
(1163,626,cs),
(1163,665,o),
(1149,695,o),
(1121,715,cs),
(1094,736,o),
(1053,746,o),
(998,746,cs),
(925,746,o),
(871,733,o),
(834,708,cs),
(797,683,o),
(779,646,o),
(779,597,c),
(722,597,ls),
(629,597,o),
(559,615,o),
(512,651,cs),
(465,688,o),
(442,742,o),
(442,815,cs),
(442,1031,ls),
(442,1091,o),
(465,1136,o),
(512,1165,cs),
(559,1195,o),
(628,1210,o),
(721,1210,cs),
(814,1210,o),
(885,1195,o),
(932,1165,cs),
(978,1136,o),
(1001,1091,o),
(1001,1031,cs),
(1001,996,o),
(989,978,o),
(966,978,cs),
(943,978,o),
(931,993,o),
(931,1024,c),
(869,1024,o),
(838,1001,o),
(838,954,cs),
(838,907,o),
(882,884,o),
(970,884,cs),
(1099,884,o),
(1163,933,o),
(1163,1031,cs),
(1163,1122,o),
(1126,1190,o),
(1053,1235,cs),
(979,1280,o),
(868,1303,o),
(721,1303,cs),
(574,1303,o),
(464,1280,o),
(390,1235,cs),
(316,1190,o),
(279,1122,o),
(279,1031,cs),
(279,815,ls)
);
}
);
userData = {
assembly = "NPUSHB[ ]	/* 107 values pushed */
0 13 2 14 14 13 114 0 8 5 7 5 8 7 128 0 7 9 5 7 9 126 0 14 0 12 4 14 12 106 0 4 15 1 0 1 4 0 105 3 1 1 10 1 5 8 1 5 105 0 2 2 11 97 0 11 11 17 77 0 9 9 6 97 0 6 6 19 6 78 1 0 87 85 84 83 81 79 75 73 66 64 60 58 51 49 46 45 40 38 34 32 26 24 21 19 12 10 4 2 0 6 1 6 16 7 22 
CALL[ ]	/* CallFunction */";
};
width = 1442;
}
);
note = uni1791;
unicode = 6033;
},
{
glyphname = uni1792;
lastChange = "2022-11-15 14:54:54 +0000";
layers = (
{
layerId = m01;
shapes = (
{
closed = 1;
nodes = (
(978,582,o),
(960,584,o),
(948,587,c),
(937,592,o),
(931,598,o),
(931,605,cs),
(931,619,o),
(937,635,o),
(948,654,cs),
(960,673,o),
(978,696,o),
(1001,722,c),
(1001,582,l)
);
},
{
closed = 1;
nodes = (
(279,977,l),
(279,0,l),
(442,0,l),
(721,180,l),
(1001,0,l),
(1163,0,l),
(1163,861,l),
(1001,861,l),
(928,781,ls),
(897,748,o),
(875,717,o),
(860,687,cs),
(845,657,o),
(838,629,o),
(838,604,cs),
(838,565,o),
(852,537,o),
(879,518,cs),
(906,499,o),
(947,489,o),
(1001,489,c),
(1001,111,l),
(721,290,l),
(442,111,l),
(442,977,l),
(331,1105,l),
(456,1170,l),
(686,1024,l),
(716,1024,l),
(863,1154,l),
(1010,1062,ls),
(1052,1037,o),
(1095,1024,o),
(1138,1024,cs),
(1181,1024,o),
(1221,1071,o),
(1256,1165,c),
(1203,1165,ls),
(1172,1165,o),
(1142,1173,o),
(1115,1190,cs),
(930,1303,l),
(893,1303,l),
(749,1178,l),
(550,1303,l),
(513,1303,l),
(186,1137,l),
(186,1085,l)
);
}
);
userData = {
assembly = "NPUSHB[ ]	/* 94 values pushed */
35 21 2 6 4 36 32 18 17 4 7 6 37 16 2 1 7 5 1 2 0 1 40 39 38 13 4 2 9 5 76 0 6 8 1 7 1 6 7 105 10 1 0 0 9 2 0 9 106 5 1 4 4 17 77 0 1 1 2 95 3 1 2 2 19 2 78 0 0 42 41 34 33 30 28 27 25 23 22 20 19 15 14 12 11 10 9 0 8 0 8 11 7 22 
CALL[ ]	/* CallFunction */";
};
width = 1442;
}
);
note = uni1792;
unicode = 6034;
},
{
glyphname = uni1793;
lastChange = "2022-11-15 14:54:54 +0000";
layers = (
{
layerId = m01;
shapes = (
{
closed = 1;
nodes = (
(977,861,o),
(960,867,o),
(948,879,cs),
(937,890,o),
(931,908,o),
(931,931,cs),
(931,938,o),
(937,944,o),
(948,949,c),
(960,952,o),
(977,954,o),
(1000,954,c),
(1000,861,l)
);
},
{
closed = 1;
nodes = (
(442,0,l),
(442,233,l),
(480,233,o),
(513,226,o),
(542,211,cs),
(571,196,o),
(597,174,o),
(618,145,cs),
(652,97,o),
(692,61,o),
(737,36,cs),
(782,12,o),
(832,0,o),
(887,0,cs),
(980,0,o),
(1049,18,o),
(1094,54,cs),
(1140,91,o),
(1163,145,o),
(1163,217,cs),
(1163,529,l),
(512,752,ls),
(465,768,o),
(442,807,o),
(442,869,cs),
(442,1086,ls),
(442,1128,o),
(465,1159,o),
(512,1179,cs),
(559,1200,o),
(628,1210,o),
(721,1210,cs),
(814,1210,o),
(884,1200,o),
(931,1179,cs),
(977,1159,o),
(1000,1128,o),
(1000,1086,cs),
(1000,1047,l),
(946,1047,o),
(906,1037,o),
(879,1018,cs),
(852,999,o),
(838,970,o),
(838,931,cs),
(838,876,o),
(852,836,o),
(879,809,cs),
(906,782,o),
(946,768,o),
(1000,768,cs),
(1054,768,o),
(1095,776,o),
(1122,791,cs),
(1149,806,o),
(1163,829,o),
(1163,860,cs),
(1163,1086,ls),
(1163,1158,o),
(1126,1212,o),
(1053,1249,cs),
(979,1285,o),
(868,1303,o),
(721,1303,cs),
(574,1303,o),
(464,1285,o),
(390,1249,cs),
(316,1212,o),
(279,1158,o),
(279,1086,cs),
(279,869,ls),
(279,824,o),
(296,785,o),
(331,750,cs),
(365,715,o),
(417,686,o),
(487,663,cs),
(1001,487,l),
(1001,217,ls),
(1001,176,o),
(992,145,o),
(973,125,cs),
(954,104,o),
(925,94,o),
(887,94,cs),
(850,94,o),
(816,104,o),
(784,123,cs),
(751,142,o),
(721,171,o),
(693,209,cs),
(665,248,o),
(630,278,o),
(588,297,cs),
(547,316,o),
(498,326,o),
(442,326,c),
(442,543,l),
(279,543,l),
(279,0,l)
);
}
);
userData = {
assembly = "NPUSHB[ ]	/* 95 values pushed */
75 44 2 10 9 1 76 0 4 0 0 1 4 0 105 12 1 1 0 3 9 1 3 105 0 10 0 7 11 10 7 105 0 5 5 2 97 0 2 2 17 77 0 9 9 6 97 8 1 6 6 19 77 0 11 11 6 97 8 1 6 6 19 6 78 0 0 71 69 63 62 61 60 59 58 57 56 50 48 37 35 31 30 24 22 15 13 0 8 0 8 17 13 7 23 
CALL[ ]	/* CallFunction */";
};
width = 1442;
}
);
note = uni1793;
unicode = 6035;
},
{
glyphname = uni1794;
lastChange = "2022-11-15 14:54:54 +0000";
layers = (
{
layerId = m01;
shapes = (
{
closed = 1;
nodes = (
(899,0,o),
(998,19,o),
(1065,58,cs),
(1130,97,o),
(1163,155,o),
(1163,233,cs),
(1163,869,l),
(943,1009,l),
(1033,1125,l),
(1106,1079,ls),
(1140,1058,o),
(1172,1047,o),
(1202,1047,cs),
(1233,1047,o),
(1275,1094,o),
(1326,1187,c),
(1280,1187,ls),
(1254,1187,o),
(1222,1199,o),
(1184,1223,cs),
(1054,1303,l),
(837,1025,l),
(837,965,l),
(1000,862,l),
(1000,233,ls),
(1000,186,o),
(981,151,o),
(943,128,cs),
(904,105,o),
(845,93,o),
(768,93,cs),
(675,93,ls),
(597,93,o),
(539,105,o),
(500,128,cs),
(461,151,o),
(442,186,o),
(442,233,cs),
(442,869,l),
(221,1009,l),
(311,1125,l),
(385,1079,ls),
(418,1058,o),
(450,1047,o),
(481,1047,cs),
(512,1047,o),
(553,1094,o),
(605,1187,c),
(558,1187,ls),
(532,1187,o),
(500,1199,o),
(462,1223,cs),
(333,1303,l),
(116,1025,l),
(116,965,l),
(279,862,l),
(279,233,ls),
(279,155,o),
(312,97,o),
(378,58,cs),
(443,19,o),
(542,0,o),
(675,0,cs),
(768,0,ls)
);
}
);
userData = {
assembly = "NPUSHB[ ]	/* 66 values pushed */
43 18 2 2 1 45 44 33 32 31 20 19 8 7 6 10 3 2 2 76 34 9 2 1 74 4 1 1 5 1 2 3 1 2 105 0 3 3 0 97 6 1 0 0 19 0 78 2 0 41 39 38 36 27 24 16 14 13 11 0 49 2 49 7 7 22 
CALL[ ]	/* CallFunction */";
};
width = 1442;
}
);
note = uni1794;
unicode = 6036;
},
{
glyphname = uni1795;
lastChange = "2022-11-15 14:54:54 +0000";
layers = (
{
layerId = m01;
shapes = (
{
closed = 1;
nodes = (
(978,582,o),
(960,584,o),
(948,587,c),
(937,592,o),
(931,598,o),
(931,605,cs),
(931,619,o),
(937,635,o),
(948,654,cs),
(960,673,o),
(978,696,o),
(1001,722,c),
(1001,582,l)
);
},
{
closed = 1;
nodes = (
(279,966,l),
(279,0,l),
(442,0,l),
(721,180,l),
(1001,0,l),
(1163,0,l),
(1163,861,l),
(1001,861,l),
(928,781,ls),
(897,748,o),
(875,717,o),
(860,687,cs),
(845,657,o),
(838,629,o),
(838,604,cs),
(838,565,o),
(852,537,o),
(879,518,cs),
(906,499,o),
(947,489,o),
(1001,489,c),
(1001,111,l),
(721,290,l),
(442,111,l),
(442,956,l),
(298,1070,l),
(453,1168,l),
(652,1001,l),
(838,1001,ls),
(941,1001,o),
(1021,1019,o),
(1078,1054,cs),
(1135,1090,o),
(1163,1142,o),
(1163,1210,cs),
(1163,1288,o),
(1149,1346,o),
(1122,1385,cs),
(1094,1424,o),
(1052,1443,o),
(997,1443,cs),
(960,1443,o),
(931,1436,o),
(912,1421,cs),
(893,1405,o),
(884,1381,o),
(884,1350,c),
(923,1350,o),
(953,1338,o),
(972,1314,cs),
(991,1291,o),
(1001,1257,o),
(1001,1210,cs),
(1001,1175,o),
(988,1147,o),
(961,1126,cs),
(933,1105,o),
(892,1094,o),
(838,1094,cs),
(795,1094,l),
(545,1303,l),
(493,1303,l),
(186,1110,l),
(186,1039,l)
);
}
);
userData = {
assembly = "NPUSHB[ ]	/* 100 values pushed */
44 18 2 5 4 45 17 2 8 5 46 16 2 1 8 5 1 2 0 1 49 48 47 13 4 2 9 5 76 0 7 6 7 133 0 6 4 6 133 0 5 0 8 1 5 8 104 10 1 0 0 9 2 0 9 105 0 4 4 17 77 0 1 1 2 95 3 1 2 2 19 2 78 0 0 51 50 43 41 35 33 30 29 23 21 20 19 15 14 12 11 10 9 0 8 0 8 11 7 22 
CALL[ ]	/* CallFunction */";
};
width = 1442;
}
);
note = uni1795;
unicode = 6037;
},
{
glyphname = uni1796;
lastChange = "2022-11-15 14:54:54 +0000";
layers = (
{
layerId = m01;
shapes = (
{
closed = 1;
nodes = (
(511,349,o),
(529,345,o),
(541,337,cs),
(552,330,o),
(558,318,o),
(558,303,cs),
(558,284,o),
(553,266,o),
(544,247,cs),
(535,229,o),
(521,211,o),
(503,192,cs),
(442,131,l),
(442,349,l),
(488,349,ls)
);
},
{
closed = 1;
nodes = (
(442,0,l),
(577,133,ls),
(602,157,o),
(620,183,o),
(633,212,cs),
(645,241,o),
(651,271,o),
(651,303,cs),
(651,349,o),
(637,384,o),
(610,408,cs),
(583,431,o),
(542,442,o),
(488,442,cs),
(442,442,l),
(442,1076,l),
(553,1173,l),
(722,1007,l),
(891,1173,l),
(1000,1075,l),
(1000,0,l),
(1163,0,l),
(1163,1052,l),
(888,1303,l),
(722,1140,l),
(555,1303,l),
(279,1056,l),
(279,0,l)
);
}
);
userData = {
assembly = "NPUSHB[ ]	/* 49 values pushed */
2 1 1 0 1 76 34 33 32 19 18 17 16 15 12 9 2 74 0 2 4 1 0 1 2 0 105 3 1 1 1 19 1 78 1 0 31 30 22 20 14 13 0 10 1 10 5 7 22 
CALL[ ]	/* CallFunction */";
};
width = 1442;
}
);
note = uni1796;
unicode = 6038;
},
{
glyphname = uni1797;
lastChange = "2022-11-15 14:54:54 +0000";
layers = (
{
layerId = m01;
shapes = (
{
closed = 1;
nodes = (
(1052,1037,o),
(1095,1024,o),
(1138,1024,cs),
(1181,1024,o),
(1221,1071,o),
(1256,1165,c),
(1203,1165,ls),
(1172,1165,o),
(1142,1173,o),
(1115,1190,cs),
(930,1303,l),
(893,1303,l),
(749,1178,l),
(550,1303,l),
(513,1303,l),
(186,1137,l),
(186,1085,l),
(299,996,ls),
(320,980,o),
(340,972,o),
(361,972,cs),
(363,972,ls),
(385,972,o),
(412,990,o),
(443,1025,c),
(331,1105,l),
(456,1170,l),
(686,1024,l),
(716,1024,l),
(863,1154,l),
(1010,1062,ls)
);
},
{
closed = 1;
nodes = (
(93,276,o),
(99,249,o),
(112,220,cs),
(124,191,o),
(142,162,o),
(167,133,cs),
(279,0,l),
(442,0,l),
(442,698,ls),
(442,745,o),
(459,779,o),
(494,802,cs),
(529,826,o),
(582,838,o),
(652,838,cs),
(791,838,ls),
(860,838,o),
(913,826,o),
(949,802,cs),
(984,779,o),
(1001,745,o),
(1001,698,cs),
(1001,0,l),
(1164,0,l),
(1164,698,ls),
(1164,776,o),
(1133,834,o),
(1070,873,cs),
(1008,912,o),
(915,931,o),
(791,931,cs),
(652,931,ls),
(527,931,o),
(434,912,o),
(372,873,cs),
(310,834,o),
(279,776,o),
(279,698,cs),
(279,442,l),
(233,442,ls),
(186,442,o),
(151,431,o),
(128,408,cs),
(105,384,o),
(93,349,o),
(93,303,cs)
);
},
{
closed = 1;
nodes = (
(186,318,o),
(190,330,o),
(197,337,cs),
(205,345,o),
(217,349,o),
(233,349,cs),
(279,349,l),
(279,145,l),
(235,197,ls),
(218,217,o),
(206,236,o),
(198,253,cs),
(190,270,o),
(186,287,o),
(186,303,cs)
);
}
);
userData = {
assembly = "NPUSHB[ ]	/* 83 values pushed */
16 4 2 4 2 13 12 6 5 1 5 0 4 27 1 7 6 3 76 0 1 0 11 0 1 11 128 0 4 5 1 0 1 4 0 105 0 11 0 8 10 11 8 105 0 10 0 6 7 10 6 105 3 1 2 2 17 77 9 1 7 7 19 7 78 67 64 60 58 50 49 52 23 35 33 34 18 20 52 18 12 7 31 
CALL[ ]	/* CallFunction */";
};
width = 1442;
}
);
note = uni1797;
unicode = 6039;
},
{
glyphname = uni1798;
lastChange = "2022-11-15 14:54:54 +0000";
layers = (
{
layerId = m01;
shapes = (
{
closed = 1;
nodes = (
(899,0,o),
(998,19,o),
(1065,58,cs),
(1130,97,o),
(1163,155,o),
(1163,233,cs),
(1163,869,l),
(943,1009,l),
(1033,1125,l),
(1106,1079,ls),
(1140,1058,o),
(1172,1047,o),
(1202,1047,cs),
(1233,1047,o),
(1275,1094,o),
(1326,1187,c),
(1280,1187,ls),
(1254,1187,o),
(1222,1199,o),
(1184,1223,cs),
(1054,1303,l),
(837,1025,l),
(837,965,l),
(1000,862,l),
(1000,652,l),
(442,652,l),
(442,869,l),
(221,1009,l),
(311,1125,l),
(385,1079,ls),
(418,1058,o),
(450,1047,o),
(481,1047,cs),
(512,1047,o),
(553,1094,o),
(605,1187,c),
(558,1187,ls),
(532,1187,o),
(500,1199,o),
(462,1223,cs),
(333,1303,l),
(116,1025,l),
(116,965,l),
(279,862,l),
(279,233,ls),
(279,155,o),
(312,97,o),
(378,58,cs),
(443,19,o),
(542,0,o),
(675,0,cs),
(768,0,ls)
);
},
{
closed = 1;
nodes = (
(442,559,l),
(1000,559,l),
(1000,233,ls),
(1000,186,o),
(981,151,o),
(943,128,cs),
(904,105,o),
(845,93,o),
(768,93,cs),
(675,93,ls),
(597,93,o),
(539,105,o),
(500,128,cs),
(461,151,o),
(442,186,o),
(442,233,cs)
);
}
);
userData = {
assembly = "NPUSHB[ ]	/* 78 values pushed */
35 18 2 2 1 37 36 25 24 23 20 19 8 7 6 10 3 2 2 76 26 9 2 1 74 4 1 1 5 1 2 3 1 2 105 0 3 0 6 7 3 6 103 0 7 7 0 97 8 1 0 0 19 0 78 2 0 51 48 44 43 33 31 30 28 22 21 16 14 13 11 0 41 2 41 9 7 22 
CALL[ ]	/* CallFunction */";
};
width = 1442;
}
);
note = uni1798;
unicode = 6040;
},
{
glyphname = uni1799;
lastChange = "2022-11-15 14:54:54 +0000";
layers = (
{
layerId = m01;
shapes = (
{
closed = 1;
nodes = (
(473,1128,o),
(496,1097,o),
(512,1072,cs),
(527,1047,o),
(535,1028,o),
(535,1014,cs),
(535,993,o),
(527,978,o),
(512,969,cs),
(496,959,o),
(473,954,o),
(442,954,c),
(442,1163,l)
);
},
{
closed = 1;
nodes = (
(279,155,o),
(312,97,o),
(378,58,cs),
(443,19,o),
(542,0,o),
(675,0,cs),
(768,0,ls),
(847,0,o),
(912,5,o),
(963,14,cs),
(1014,23,o),
(1052,36,o),
(1075,55,c),
(1098,36,o),
(1136,23,o),
(1190,14,cs),
(1243,5,o),
(1312,0,o),
(1396,0,cs),
(1489,0,ls),
(1621,0,o),
(1720,19,o),
(1786,58,cs),
(1852,97,o),
(1885,155,o),
(1885,233,cs),
(1885,869,l),
(1664,1009,l),
(1754,1125,l),
(1828,1079,ls),
(1861,1058,o),
(1893,1047,o),
(1924,1047,cs),
(1955,1047,o),
(1996,1094,o),
(2048,1187,c),
(2001,1187,ls),
(1975,1187,o),
(1943,1199,o),
(1905,1223,cs),
(1776,1303,l),
(1559,1025,l),
(1559,965,l),
(1722,862,l),
(1722,233,ls),
(1722,186,o),
(1703,151,o),
(1664,128,cs),
(1625,105,o),
(1567,93,o),
(1489,93,cs),
(1396,93,ls),
(1319,93,o),
(1260,105,o),
(1221,128,cs),
(1182,151,o),
(1163,186,o),
(1163,233,cs),
(1163,869,l),
(943,1009,l),
(1033,1125,l),
(1107,1079,ls),
(1140,1058,o),
(1172,1047,o),
(1202,1047,cs),
(1233,1047,o),
(1275,1094,o),
(1326,1187,c),
(1280,1187,ls),
(1254,1187,o),
(1222,1199,o),
(1184,1223,cs),
(1054,1303,l),
(838,1025,l),
(838,965,l),
(1000,862,l),
(1000,233,ls),
(1000,186,o),
(981,151,o),
(942,128,cs),
(903,105,o),
(845,93,o),
(768,93,cs),
(675,93,ls),
(597,93,o),
(539,105,o),
(501,128,cs),
(462,151,o),
(442,186,o),
(442,233,cs),
(442,861,l),
(504,861,o),
(551,873,o),
(582,897,cs),
(613,921,o),
(628,960,o),
(628,1013,cs),
(628,1039,o),
(620,1067,o),
(605,1098,cs),
(590,1129,o),
(566,1163,o),
(535,1198,cs),
(442,1303,l),
(279,1303,l),
(279,233,ls)
);
}
);
userData = {
assembly = "NPUSHB[ ]	/* 98 values pushed */
82 57 0 3 7 6 83 72 71 58 47 46 6 0 7 84 70 59 45 4 4 0 14 1 1 5 4 76 73 48 2 3 74 9 1 6 10 1 7 0 6 7 105 0 0 0 4 5 0 4 105 0 3 3 17 77 8 1 5 5 1 97 2 11 2 1 1 19 1 78 11 9 80 78 77 75 66 63 55 53 52 50 41 38 34 33 25 24 20 17 9 88 11 88 17 12 7 23 
CALL[ ]	/* CallFunction */";
};
width = 2164;
}
);
note = uni1799;
unicode = 6041;
},
{
glyphname = uni179A;
lastChange = "2022-11-15 14:54:54 +0000";
layers = (
{
layerId = m01;
shapes = (
{
closed = 1;
nodes = (
(256,195,o),
(238,224,o),
(227,248,cs),
(215,271,o),
(209,290,o),
(209,303,cs),
(209,318,o),
(213,330,o),
(220,337,cs),
(228,345,o),
(240,349,o),
(256,349,cs),
(279,349,l),
(279,162,l)
);
},
{
closed = 1;
nodes = (
(116,280,o),
(123,253,o),
(136,222,cs),
(150,191,o),
(170,156,o),
(197,117,cs),
(279,0,l),
(442,0,l),
(442,869,l),
(221,1009,l),
(311,1125,l),
(385,1079,ls),
(418,1058,o),
(450,1047,o),
(481,1047,cs),
(512,1047,o),
(553,1094,o),
(605,1187,c),
(558,1187,ls),
(532,1187,o),
(500,1199,o),
(462,1223,cs),
(333,1303,l),
(116,1025,l),
(116,965,l),
(279,862,l),
(279,442,l),
(256,442,ls),
(209,442,o),
(174,431,o),
(151,408,cs),
(128,384,o),
(116,349,o),
(116,303,cs)
);
}
);
userData = {
assembly = "NPUSHB[ ]	/* 51 values pushed */
36 1 4 3 26 25 24 11 4 2 4 0 1 1 0 3 76 27 1 3 74 0 3 0 4 2 3 4 105 0 2 0 0 1 2 0 105 0 1 1 19 1 78 33 38 40 25 33 5 7 27 
CALL[ ]	/* CallFunction */";
};
width = 721;
}
);
note = uni179A;
unicode = 6042;
},
{
glyphname = uni179B;
lastChange = "2022-11-15 14:54:54 +0000";
layers = (
{
layerId = m01;
shapes = (
{
closed = 1;
nodes = (
(511,349,o),
(529,345,o),
(541,337,cs),
(552,330,o),
(558,318,o),
(558,303,cs),
(558,284,o),
(553,266,o),
(544,247,cs),
(535,229,o),
(521,211,o),
(503,192,cs),
(442,131,l),
(442,349,l),
(488,349,ls)
);
},
{
closed = 1;
nodes = (
(442,0,l),
(577,133,ls),
(602,157,o),
(620,183,o),
(633,212,cs),
(645,241,o),
(651,271,o),
(651,303,cs),
(651,349,o),
(637,384,o),
(610,408,cs),
(583,431,o),
(542,442,o),
(488,442,cs),
(442,442,l),
(442,1075,l),
(637,1163,l),
(1000,998,l),
(1000,233,ls),
(1000,155,o),
(1033,97,o),
(1099,58,cs),
(1165,19,o),
(1264,0,o),
(1396,0,cs),
(1489,0,ls),
(1621,0,o),
(1720,19,o),
(1786,58,cs),
(1852,97,o),
(1885,155,o),
(1885,233,cs),
(1885,869,l),
(1664,1009,l),
(1754,1125,l),
(1828,1079,ls),
(1861,1058,o),
(1893,1047,o),
(1924,1047,cs),
(1955,1047,o),
(1996,1094,o),
(2048,1187,c),
(2001,1187,ls),
(1975,1187,o),
(1943,1199,o),
(1905,1223,cs),
(1776,1303,l),
(1559,1025,l),
(1559,965,l),
(1722,862,l),
(1722,233,ls),
(1722,186,o),
(1702,151,o),
(1663,128,cs),
(1625,105,o),
(1567,93,o),
(1489,93,cs),
(1396,93,ls),
(1319,93,o),
(1261,105,o),
(1222,128,cs),
(1183,151,o),
(1163,186,o),
(1163,233,cs),
(1163,1103,l),
(721,1303,l),
(279,1104,l),
(279,0,l)
);
}
);
userData = {
assembly = "NPUSHB[ ]	/* 83 values pushed */
57 34 32 19 18 5 6 5 59 58 47 46 45 17 6 2 6 2 1 4 0 3 76 48 33 2 5 74 0 5 0 6 2 5 6 105 0 2 7 1 0 4 2 0 105 0 4 4 1 97 3 8 2 1 1 19 1 78 13 11 1 0 55 53 52 50 41 38 31 30 22 20 11 63 13 63 0 10 1 10 9 7 22 
CALL[ ]	/* CallFunction */";
};
width = 2164;
}
);
note = uni179B;
unicode = 6043;
},
{
glyphname = uni179C;
lastChange = "2022-11-15 14:54:54 +0000";
layers = (
{
layerId = m01;
shapes = (
{
closed = 1;
nodes = (
(256,195,o),
(238,224,o),
(227,248,cs),
(215,271,o),
(209,290,o),
(209,303,cs),
(209,318,o),
(213,330,o),
(220,337,cs),
(228,345,o),
(240,349,o),
(256,349,cs),
(279,349,l),
(279,162,l)
);
},
{
closed = 1;
nodes = (
(116,280,o),
(123,253,o),
(136,222,cs),
(150,191,o),
(170,156,o),
(197,117,cs),
(279,0,l),
(442,0,l),
(442,869,l),
(213,1014,l),
(264,1113,l),
(303,1091,o),
(338,1075,o),
(367,1064,cs),
(397,1053,o),
(423,1047,o),
(444,1047,cs),
(490,1047,o),
(524,1067,o),
(547,1106,cs),
(570,1145,o),
(581,1203,o),
(581,1280,cs),
(581,1350,o),
(569,1402,o),
(546,1437,cs),
(523,1472,o),
(489,1489,o),
(442,1489,cs),
(411,1489,o),
(387,1481,o),
(372,1466,cs),
(357,1451,o),
(349,1427,o),
(349,1396,c),
(396,1396,o),
(430,1387,o),
(453,1368,cs),
(476,1349,o),
(488,1319,o),
(488,1280,cs),
(488,1257,o),
(485,1240,o),
(480,1228,cs),
(475,1216,o),
(466,1210,o),
(455,1210,cs),
(432,1210,o),
(394,1226,o),
(339,1258,cs),
(259,1303,l),
(116,1027,l),
(116,965,l),
(279,862,l),
(279,442,l),
(256,442,ls),
(209,442,o),
(174,431,o),
(151,408,cs),
(128,384,o),
(116,349,o),
(116,303,cs)
);
}
);
userData = {
assembly = "NPUSHB[ ]	/* 61 values pushed */
27 1 3 4 54 1 6 3 26 25 24 11 4 2 6 0 1 1 0 4 76 0 5 0 4 3 5 4 105 0 3 0 6 2 3 6 105 0 2 0 0 1 2 0 105 0 1 1 19 1 78 38 35 23 22 40 25 33 7 7 29 
CALL[ ]	/* CallFunction */";
};
width = 721;
}
);
note = uni179C;
unicode = 6044;
},
{
glyphname = uni179D;
lastChange = "2022-11-15 14:54:54 +0000";
layers = (
{
layerId = m01;
shapes = (
{
closed = 1;
nodes = (
(1051,1037,o),
(1094,1025,o),
(1138,1025,cs),
(1181,1025,o),
(1221,1072,o),
(1256,1165,c),
(1203,1165,ls),
(1172,1165,o),
(1142,1173,o),
(1115,1190,cs),
(930,1303,l),
(893,1303,l),
(749,1178,l),
(550,1303,l),
(513,1303,l),
(186,1137,l),
(186,1085,l),
(299,996,ls),
(320,980,o),
(340,972,o),
(361,972,cs),
(363,972,ls),
(384,972,o),
(411,990,o),
(443,1025,c),
(331,1105,l),
(456,1170,l),
(686,1025,l),
(716,1025,l),
(863,1154,l),
(1010,1062,ls)
);
},
{
closed = 1;
nodes = (
(442,0,l),
(442,48,l),
(547,192,ls),
(570,224,o),
(593,247,o),
(616,262,cs),
(639,275,o),
(668,282,o),
(705,282,cs),
(709,282,ls),
(748,282,o),
(776,297,o),
(791,326,cs),
(798,338,o),
(801,349,o),
(801,359,cs),
(801,375,o),
(794,389,o),
(780,402,cs),
(757,424,o),
(729,435,o),
(698,436,cs),
(667,436,o),
(636,428,o),
(605,413,cs),
(574,398,o),
(539,366,o),
(501,316,cs),
(442,239,l),
(442,698,ls),
(442,745,o),
(459,779,o),
(494,802,cs),
(529,826,o),
(582,838,o),
(651,838,cs),
(791,838,ls),
(860,838,o),
(913,826,o),
(948,802,cs),
(983,779,o),
(1001,745,o),
(1001,698,cs),
(1001,419,l),
(861,419,l),
(861,326,l),
(1001,326,l),
(1001,0,l),
(1163,0,l),
(1163,326,l),
(1210,326,ls),
(1241,326,o),
(1265,338,o),
(1280,361,cs),
(1295,384,o),
(1303,419,o),
(1303,465,c),
(1288,434,o),
(1257,419,o),
(1210,419,cs),
(1163,419,l),
(1163,698,ls),
(1163,776,o),
(1132,834,o),
(1070,873,cs),
(1008,912,o),
(915,931,o),
(791,931,cs),
(651,931,ls),
(527,931,o),
(434,912,o),
(372,873,cs),
(310,834,o),
(279,776,o),
(279,698,cs),
(279,0,l)
);
}
);
userData = {
assembly = "MPPEM[ ]	/* MeasurePixelPerEm */
PUSHB[ ]	/* 1 value pushed */
9 
LT[ ]	/* LessThan */
IF[ ]	/* If */
NPUSHB[ ]	/* 32 values pushed */
16 4 2 4 2 13 12 5 1 4 0 4 62 1 6 15 36 1 11 10 46 27 2 8 7 5 76 6 1 0 1 75 
ELSE[ ]	/* Else */
MPPEM[ ]	/* MeasurePixelPerEm */
PUSHB[ ]	/* 1 value pushed */
31 
LT[ ]	/* LessThan */
IF[ ]	/* If */
NPUSHB[ ]	/* 32 values pushed */
16 4 2 4 2 13 12 5 1 4 0 4 62 1 6 15 36 1 11 6 46 27 2 8 7 5 76 6 1 0 1 75 
ELSE[ ]	/* Else */
NPUSHB[ ]	/* 32 values pushed */
16 4 2 4 2 13 12 5 1 4 0 4 62 1 6 15 36 1 11 10 46 27 2 8 7 5 76 6 1 0 1 75 
EIF[ ]	/* EndIf */
EIF[ ]	/* EndIf */
MPPEM[ ]	/* MeasurePixelPerEm */
PUSHB[ ]	/* 1 value pushed */
9 
LT[ ]	/* LessThan */
IF[ ]	/* If */
NPUSHB[ ]	/* 56 values pushed */
0 1 0 9 0 1 9 128 0 4 5 1 0 1 4 0 105 0 9 0 15 6 9 15 105 14 1 10 13 1 11 7 10 11 106 0 6 0 7 8 6 7 105 3 1 2 2 17 77 12 1 8 8 19 8 78 
ELSE[ ]	/* Else */
MPPEM[ ]	/* MeasurePixelPerEm */
PUSHB[ ]	/* 1 value pushed */
31 
LT[ ]	/* LessThan */
IF[ ]	/* If */
NPUSHB[ ]	/* 55 values pushed */
0 1 0 9 0 1 9 128 0 4 5 1 0 1 4 0 105 0 9 0 15 6 9 15 105 13 1 11 7 6 11 90 14 10 2 6 0 7 8 6 7 106 3 1 2 2 17 77 12 1 8 8 19 8 78 
ELSE[ ]	/* Else */
NPUSHB[ ]	/* 56 values pushed */
0 1 0 9 0 1 9 128 0 4 5 1 0 1 4 0 105 0 9 0 15 6 9 15 105 14 1 10 13 1 11 7 10 11 106 0 6 0 7 8 6 7 105 3 1 2 2 17 77 12 1 8 8 19 8 78 
EIF[ ]	/* EndIf */
EIF[ ]	/* EndIf */
NPUSHB[ ]	/* 26 values pushed */
80 77 73 72 71 70 69 68 67 65 61 59 55 52 21 54 38 33 34 18 20 52 18 16 7 31 
CALL[ ]	/* CallFunction */";
};
width = 1442;
}
);
note = uni179D;
unicode = 6045;
},
{
glyphname = uni179E;
lastChange = "2022-11-15 14:54:54 +0000";
layers = (
{
layerId = m01;
shapes = (
{
closed = 1;
nodes = (
(899,0,o),
(998,19,o),
(1065,58,cs),
(1130,97,o),
(1163,155,o),
(1163,233,cs),
(1163,559,l),
(1210,559,ls),
(1241,559,o),
(1264,571,o),
(1280,594,cs),
(1295,617,o),
(1303,651,o),
(1303,698,c),
(1288,667,o),
(1257,652,o),
(1210,652,cs),
(1163,652,l),
(1163,869,l),
(943,1009,l),
(1033,1125,l),
(1106,1079,ls),
(1140,1058,o),
(1172,1047,o),
(1202,1047,cs),
(1233,1047,o),
(1275,1094,o),
(1326,1187,c),
(1280,1187,ls),
(1254,1187,o),
(1222,1199,o),
(1184,1223,cs),
(1054,1303,l),
(837,1025,l),
(837,965,l),
(1000,862,l),
(1000,652,l),
(833,652,l),
(833,559,l),
(1000,559,l),
(1000,233,ls),
(1000,186,o),
(981,151,o),
(943,128,cs),
(904,105,o),
(845,93,o),
(768,93,cs),
(675,93,ls),
(597,93,o),
(539,105,o),
(500,128,cs),
(461,151,o),
(442,186,o),
(442,233,cs),
(442,869,l),
(221,1009,l),
(311,1125,l),
(385,1079,ls),
(418,1058,o),
(450,1047,o),
(481,1047,cs),
(512,1047,o),
(553,1094,o),
(605,1187,c),
(558,1187,ls),
(532,1187,o),
(500,1199,o),
(462,1223,cs),
(333,1303,l),
(116,1025,l),
(116,965,l),
(279,862,l),
(279,233,ls),
(279,155,o),
(312,97,o),
(378,58,cs),
(443,19,o),
(542,0,o),
(675,0,cs),
(768,0,ls)
);
}
);
userData = {
assembly = "NPUSHB[ ]	/* 85 values pushed */
47 18 2 2 1 53 49 48 37 36 35 20 19 8 7 6 11 5 2 2 76 38 9 2 1 74 6 1 1 7 1 2 5 1 2 105 8 1 5 9 1 4 3 5 4 105 0 3 3 0 97 10 1 0 0 19 0 78 2 0 58 56 52 50 45 43 42 40 34 33 32 31 27 24 16 14 13 11 0 62 2 62 11 7 22 
CALL[ ]	/* CallFunction */";
};
width = 1442;
}
);
note = uni179E;
unicode = 6046;
},
{
glyphname = uni179F;
lastChange = "2022-11-15 14:54:54 +0000";
layers = (
{
layerId = m01;
shapes = (
{
closed = 1;
nodes = (
(726,1037,o),
(769,1024,o),
(812,1024,cs),
(855,1024,o),
(895,1071,o),
(930,1165,c),
(877,1165,ls),
(846,1165,o),
(816,1173,o),
(789,1190,cs),
(604,1303,l),
(567,1303,l),
(326,1091,l),
(326,1024,l),
(495,918,l),
(445,908,o),
(404,893,o),
(372,873,cs),
(310,834,o),
(279,776,o),
(279,698,cs),
(279,0,l),
(442,0,l),
(577,133,ls),
(602,157,o),
(620,183,o),
(633,212,cs),
(645,241,o),
(651,271,o),
(651,303,cs),
(651,349,o),
(637,384,o),
(610,408,cs),
(583,431,o),
(542,442,o),
(488,442,cs),
(442,442,l),
(442,698,ls),
(442,745,o),
(459,779,o),
(494,802,cs),
(529,826,o),
(582,838,o),
(651,838,cs),
(791,838,ls),
(860,838,o),
(913,826,o),
(948,802,cs),
(983,779,o),
(1000,745,o),
(1000,698,cs),
(1000,233,ls),
(1000,155,o),
(1033,97,o),
(1099,58,cs),
(1165,19,o),
(1264,0,o),
(1396,0,cs),
(1489,0,ls),
(1621,0,o),
(1720,19,o),
(1786,58,cs),
(1852,97,o),
(1885,155,o),
(1885,233,cs),
(1885,869,l),
(1664,1009,l),
(1754,1125,l),
(1828,1079,ls),
(1861,1058,o),
(1893,1047,o),
(1924,1047,cs),
(1955,1047,o),
(1996,1094,o),
(2048,1187,c),
(2001,1187,ls),
(1975,1187,o),
(1943,1199,o),
(1905,1223,cs),
(1776,1303,l),
(1559,1025,l),
(1559,965,l),
(1722,862,l),
(1722,233,ls),
(1722,186,o),
(1702,151,o),
(1663,128,cs),
(1625,105,o),
(1567,93,o),
(1489,93,cs),
(1396,93,ls),
(1319,93,o),
(1261,105,o),
(1222,128,cs),
(1183,151,o),
(1163,186,o),
(1163,233,cs),
(1163,698,ls),
(1163,776,o),
(1132,834,o),
(1070,873,cs),
(1008,912,o),
(915,931,o),
(791,931,cs),
(650,931,l),
(437,1065,l),
(537,1154,l),
(684,1062,ls)
);
},
{
closed = 1;
nodes = (
(442,349,l),
(488,349,ls),
(511,349,o),
(529,345,o),
(541,337,cs),
(552,330,o),
(558,318,o),
(558,303,cs),
(558,284,o),
(553,266,o),
(544,247,cs),
(535,229,o),
(521,211,o),
(503,192,cs),
(442,131,l)
);
}
);
userData = {
assembly = "NPUSHB[ ]	/* 109 values pushed */
72 31 2 1 4 3 9 21 1 10 3 32 20 2 0 10 70 33 19 3 5 0 84 1 1 11 5 76 71 1 10 1 75 22 1 8 74 0 2 0 3 10 2 3 105 0 9 0 10 0 9 10 105 0 0 0 5 6 0 5 106 0 6 12 1 11 1 6 11 105 0 8 8 17 77 0 1 1 4 97 7 1 4 4 19 4 78 83 82 82 92 83 92 81 79 78 76 24 24 36 55 56 33 41 55 35 13 7 31 
CALL[ ]	/* CallFunction */";
};
width = 2164;
}
);
note = uni179F;
unicode = 6047;
},
{
glyphname = uni17A0;
lastChange = "2022-11-15 14:54:54 +0000";
layers = (
{
layerId = m01;
shapes = (
{
closed = 1;
nodes = (
(899,0,o),
(998,19,o),
(1065,58,cs),
(1130,97,o),
(1163,155,o),
(1163,233,cs),
(1163,869,l),
(966,996,l),
(1202,1152,l),
(1722,984,l),
(1722,0,l),
(1885,0,l),
(1885,1103,l),
(1264,1303,l),
(837,1025,l),
(837,965,l),
(1000,862,l),
(1000,233,ls),
(1000,186,o),
(981,151,o),
(943,128,cs),
(904,105,o),
(845,93,o),
(768,93,cs),
(675,93,ls),
(597,93,o),
(539,105,o),
(500,128,cs),
(461,151,o),
(442,186,o),
(442,233,cs),
(442,869,l),
(221,1009,l),
(311,1125,l),
(385,1079,ls),
(418,1058,o),
(450,1047,o),
(481,1047,cs),
(512,1047,o),
(553,1094,o),
(605,1187,c),
(558,1187,ls),
(532,1187,o),
(500,1199,o),
(462,1223,cs),
(333,1303,l),
(116,1025,l),
(116,965,l),
(279,862,l),
(279,233,ls),
(279,155,o),
(312,97,o),
(378,58,cs),
(443,19,o),
(542,0,o),
(675,0,cs),
(768,0,ls)
);
}
);
userData = {
assembly = "NPUSHB[ ]	/* 65 values pushed */
39 35 18 3 2 1 41 40 38 33 32 31 20 19 8 7 6 11 3 2 2 76 34 9 2 1 74 0 1 0 2 3 1 2 105 0 3 3 0 97 4 5 2 0 0 19 0 78 2 0 37 36 27 24 16 14 13 11 0 45 2 45 6 7 22 
CALL[ ]	/* CallFunction */";
};
width = 2164;
}
);
note = uni17A0;
unicode = 6048;
},
{
glyphname = uni17A1;
lastChange = "2022-11-15 14:54:54 +0000";
layers = (
{
layerId = m01;
shapes = (
{
closed = 1;
nodes = (
(1046,652,o),
(1070,643,o),
(1070,625,cs),
(1070,606,o),
(1046,597,o),
(998,597,cs),
(942,597,l),
(942,634,o),
(961,652,o),
(998,652,cs)
);
},
{
closed = 1;
nodes = (
(279,711,o),
(316,633,o),
(390,581,cs),
(464,530,o),
(575,504,o),
(722,504,cs),
(779,504,l),
(779,280,ls),
(779,218,o),
(772,172,o),
(759,141,cs),
(746,110,o),
(725,94,o),
(698,94,cs),
(667,94,o),
(643,100,o),
(628,111,cs),
(613,122,o),
(605,140,o),
(605,163,cs),
(605,280,ls),
(605,327,o),
(596,361,o),
(579,384,cs),
(561,408,o),
(534,420,o),
(499,420,cs),
(456,420,o),
(425,412,o),
(404,397,cs),
(383,381,o),
(373,358,o),
(373,327,c),
(419,327,o),
(442,311,o),
(442,280,cs),
(442,163,ls),
(442,108,o),
(463,68,o),
(506,41,cs),
(549,14,o),
(613,0,o),
(698,0,cs),
(779,0,o),
(840,23,o),
(881,70,cs),
(922,117,o),
(942,188,o),
(942,281,cs),
(942,504,l),
(998,504,ls),
(1053,504,o),
(1094,514,o),
(1121,534,cs),
(1149,554,o),
(1163,585,o),
(1163,626,cs),
(1163,665,o),
(1149,695,o),
(1121,715,cs),
(1094,736,o),
(1053,746,o),
(998,746,cs),
(925,746,o),
(871,733,o),
(834,708,cs),
(797,683,o),
(779,646,o),
(779,597,c),
(722,597,ls),
(629,597,o),
(559,615,o),
(512,651,cs),
(465,688,o),
(442,742,o),
(442,815,cs),
(442,1031,ls),
(442,1091,o),
(465,1136,o),
(512,1165,cs),
(559,1195,o),
(628,1210,o),
(721,1210,cs),
(814,1210,o),
(885,1195,o),
(932,1165,cs),
(978,1136,o),
(1001,1091,o),
(1001,1031,cs),
(1001,996,o),
(989,978,o),
(966,978,cs),
(943,978,o),
(931,993,o),
(931,1024,c),
(869,1024,o),
(838,1001,o),
(838,954,cs),
(838,907,o),
(882,884,o),
(970,884,cs),
(1099,884,o),
(1163,933,o),
(1163,1031,cs),
(1163,1122,o),
(1126,1190,o),
(1053,1235,cs),
(979,1280,o),
(868,1303,o),
(721,1303,cs),
(574,1303,o),
(464,1280,o),
(390,1235,cs),
(316,1190,o),
(279,1122,o),
(279,1031,cs),
(279,815,ls)
);
},
{
closed = 1;
nodes = (
(861,-317,o),
(873,-334,o),
(896,-345,cs),
(918,-355,o),
(951,-360,o),
(994,-360,cs),
(1000,-360,l),
(1000,-673,l),
(1163,-673,l),
(1443,-501,l),
(1722,-673,l),
(1885,-673,l),
(1885,869,l),
(1664,1009,l),
(1754,1125,l),
(1828,1079,ls),
(1861,1058,o),
(1893,1047,o),
(1924,1047,cs),
(1955,1047,o),
(1996,1094,o),
(2048,1187,c),
(2001,1187,ls),
(1975,1187,o),
(1943,1199,o),
(1905,1223,cs),
(1776,1303,l),
(1559,1025,l),
(1559,965,l),
(1722,862,l),
(1722,-567,l),
(1443,-395,l),
(1163,-567,l),
(1163,-93,l),
(1000,-93,l),
(931,-161,ls),
(907,-184,o),
(890,-206,o),
(879,-228,cs),
(867,-251,o),
(861,-273,o),
(861,-294,cs)
);
},
{
closed = 1;
nodes = (
(955,-253,o),
(970,-234,o),
(1001,-204,c),
(1000,-272,l),
(970,-272,o),
(955,-268,o),
(955,-261,cs)
);
}
);
userData = {
assembly = "NPUSHB[ ]	/* 38 values pushed */
126 1 21 20 116 1 14 21 127 1 15 14 115 1 13 15 114 93 2 5 13 8 1 2 19 113 112 111 96 4 16 18 7 76 117 1 12 74 
MPPEM[ ]	/* MeasurePixelPerEm */
PUSHB[ ]	/* 1 value pushed */
12 
LT[ ]	/* LessThan */
IF[ ]	/* If */
NPUSHB[ ]	/* 95 values pushed */
0 14 21 15 15 14 114 0 9 6 8 6 9 8 128 0 8 10 6 8 10 126 0 20 0 21 14 20 21 105 0 15 0 13 5 15 13 106 0 5 22 1 0 1 5 0 105 4 1 1 11 1 6 9 1 6 105 23 1 2 0 18 16 2 18 105 0 19 17 1 16 19 16 99 0 3 3 12 97 0 12 12 17 77 0 10 10 7 97 0 7 7 19 7 78 
ELSE[ ]	/* Else */
NPUSHB[ ]	/* 98 values pushed */
0 14 21 15 15 14 114 0 9 6 8 6 9 8 128 0 8 10 6 8 10 126 0 20 0 21 14 20 21 105 0 15 0 13 5 15 13 106 0 5 22 1 0 1 5 0 105 4 1 1 11 1 6 9 1 6 105 23 1 2 0 18 16 2 18 105 0 3 3 12 97 0 12 12 17 77 0 10 10 7 97 0 7 7 19 77 17 1 16 16 19 95 0 19 19 18 16 78 
EIF[ ]	/* EndIf */
NPUSHB[ ]	/* 55 values pushed */
7 7 1 0 124 122 121 119 110 109 101 99 98 97 95 94 92 90 89 88 86 84 80 78 71 69 65 63 56 54 51 50 45 43 39 37 31 29 26 24 17 15 7 11 7 11 4 2 0 6 1 6 24 7 22 
CALL[ ]	/* CallFunction */";
};
width = 2164;
}
);
note = uni17A1;
unicode = 6049;
},
{
glyphname = uni17A2;
lastChange = "2022-11-15 14:54:54 +0000";
layers = (
{
layerId = m01;
shapes = (
{
closed = 1;
nodes = (
(256,195,o),
(238,224,o),
(227,248,cs),
(215,271,o),
(209,290,o),
(209,303,cs),
(209,318,o),
(213,330,o),
(220,337,cs),
(228,345,o),
(240,349,o),
(256,349,cs),
(279,349,l),
(279,162,l)
);
},
{
closed = 1;
nodes = (
(116,280,o),
(123,253,o),
(136,222,cs),
(150,191,o),
(170,156,o),
(197,117,cs),
(279,0,l),
(442,0,l),
(442,559,l),
(1000,559,l),
(1000,442,l),
(977,442,ls),
(930,442,o),
(896,431,o),
(873,408,cs),
(849,384,o),
(837,349,o),
(837,303,cs),
(837,280,o),
(844,253,o),
(858,222,cs),
(871,191,o),
(891,156,o),
(918,117,cs),
(1000,0,l),
(1163,0,l),
(1163,869,l),
(943,1009,l),
(1033,1125,l),
(1106,1079,ls),
(1140,1058,o),
(1172,1047,o),
(1202,1047,cs),
(1233,1047,o),
(1275,1094,o),
(1326,1187,c),
(1280,1187,ls),
(1254,1187,o),
(1222,1199,o),
(1184,1223,cs),
(1054,1303,l),
(837,1025,l),
(837,965,l),
(1000,862,l),
(1000,652,l),
(442,652,l),
(442,869,l),
(221,1009,l),
(311,1125,l),
(385,1079,ls),
(418,1058,o),
(450,1047,o),
(481,1047,cs),
(512,1047,o),
(553,1094,o),
(605,1187,c),
(558,1187,ls),
(532,1187,o),
(500,1199,o),
(462,1223,cs),
(333,1303,l),
(116,1025,l),
(116,965,l),
(279,862,l),
(279,442,l),
(256,442,ls),
(209,442,o),
(174,431,o),
(151,408,cs),
(128,384,o),
(116,349,o),
(116,303,cs)
);
},
{
closed = 1;
nodes = (
(931,318,o),
(935,330,o),
(942,337,cs),
(950,345,o),
(962,349,o),
(977,349,cs),
(1000,349,l),
(1000,162,l),
(977,195,o),
(959,224,o),
(948,248,cs),
(937,271,o),
(931,290,o),
(931,303,cs)
);
}
);
userData = {
assembly = "NPUSHB[ ]	/* 95 values pushed */
51 34 2 4 3 53 52 41 40 39 36 35 24 23 22 10 5 4 10 0 2 8 0 3 76 42 25 2 3 74 6 1 3 7 1 4 5 3 4 105 0 5 0 10 2 5 10 103 9 12 2 2 1 1 0 8 2 0 105 11 1 8 8 19 8 78 21 20 69 68 67 66 65 63 55 54 49 47 46 44 38 37 32 30 29 27 20 77 21 77 40 33 13 7 24 
CALL[ ]	/* CallFunction */";
};
width = 1442;
}
);
note = uni17A2;
unicode = 6050;
},
{
glyphname = uni17A5;
lastChange = "2022-11-15 14:54:54 +0000";
layers = (
{
layerId = m01;
shapes = (
{
closed = 1;
nodes = (
(652,1001,l),
(838,1001,ls),
(941,1001,o),
(1021,1019,o),
(1078,1054,cs),
(1135,1090,o),
(1163,1142,o),
(1163,1210,cs),
(1163,1288,o),
(1149,1346,o),
(1122,1385,cs),
(1094,1424,o),
(1052,1443,o),
(997,1443,cs),
(960,1443,o),
(931,1436,o),
(912,1421,cs),
(893,1405,o),
(884,1381,o),
(884,1350,c),
(923,1350,o),
(953,1338,o),
(972,1314,cs),
(991,1291,o),
(1001,1257,o),
(1001,1210,cs),
(1001,1175,o),
(988,1147,o),
(961,1126,cs),
(933,1105,o),
(892,1094,o),
(838,1094,cs),
(795,1094,l),
(545,1303,l),
(493,1303,l),
(186,1110,l),
(186,1039,l),
(346,916,l),
(442,954,l),
(298,1070,l),
(453,1168,l)
);
},
{
closed = 1;
nodes = (
(442,0,l),
(577,133,ls),
(602,157,o),
(620,183,o),
(633,212,cs),
(645,241,o),
(651,271,o),
(651,303,cs),
(651,349,o),
(637,384,o),
(610,408,cs),
(583,431,o),
(543,442,o),
(489,442,cs),
(442,442,l),
(442,698,ls),
(442,745,o),
(459,779,o),
(494,802,cs),
(529,826,o),
(582,838,o),
(651,838,cs),
(791,838,ls),
(860,838,o),
(913,826,o),
(948,802,cs),
(983,779,o),
(1001,745,o),
(1001,698,cs),
(1001,0,l),
(1163,0,l),
(1163,698,ls),
(1163,776,o),
(1132,834,o),
(1070,873,cs),
(1008,912,o),
(915,931,o),
(791,931,cs),
(651,931,ls),
(527,931,o),
(434,912,o),
(372,873,cs),
(310,834,o),
(279,776,o),
(279,698,cs),
(279,0,l)
);
},
{
closed = 1;
nodes = (
(442,349,l),
(489,349,ls),
(512,349,o),
(529,345,o),
(541,337,cs),
(552,330,o),
(558,318,o),
(558,303,cs),
(558,284,o),
(553,266,o),
(544,247,cs),
(535,229,o),
(521,211,o),
(503,192,cs),
(442,131,l)
);
}
);
userData = {
assembly = "NPUSHB[ ]	/* 94 values pushed */
30 4 2 1 0 3 1 4 1 1 1 10 4 2 1 7 10 33 1 6 5 5 76 0 3 2 3 133 0 2 0 2 133 0 1 0 4 10 1 4 104 0 10 0 7 8 10 7 105 0 8 11 1 5 6 8 5 106 0 0 0 17 77 9 1 6 6 19 6 78 32 31 72 69 65 64 56 54 50 47 43 42 31 41 32 41 38 35 22 33 21 12 7 27 
CALL[ ]	/* CallFunction */";
};
width = 1442;
}
);
note = uni17A5;
unicode = 6053;
},
{
glyphname = uni17A6;
lastChange = "2022-11-15 14:54:54 +0000";
layers = (
{
layerId = m01;
shapes = (
{
closed = 1;
nodes = (
(511,349,o),
(529,345,o),
(541,337,cs),
(552,330,o),
(558,318,o),
(558,303,cs),
(558,284,o),
(553,266,o),
(544,247,cs),
(535,229,o),
(521,211,o),
(503,192,cs),
(442,131,l),
(442,349,l),
(488,349,ls)
);
},
{
closed = 1;
nodes = (
(442,-698,l),
(577,-609,ls),
(602,-592,o),
(620,-571,o),
(633,-547,cs),
(645,-524,o),
(651,-496,o),
(651,-465,cs),
(651,-427,o),
(637,-398,o),
(610,-379,cs),
(583,-360,o),
(542,-350,o),
(488,-350,cs),
(442,-350,l),
(442,-274,l),
(594,-230,l),
(1000,-346,l),
(1000,-465,ls),
(1000,-543,o),
(1033,-601,o),
(1099,-640,cs),
(1165,-679,o),
(1264,-698,o),
(1396,-698,cs),
(1489,-698,ls),
(1621,-698,o),
(1720,-679,o),
(1786,-640,cs),
(1852,-601,o),
(1885,-543,o),
(1885,-465,cs),
(1885,869,l),
(1656,1014,l),
(1707,1113,l),
(1746,1091,o),
(1781,1075,o),
(1810,1064,cs),
(1840,1053,o),
(1866,1047,o),
(1887,1047,cs),
(1933,1047,o),
(1967,1067,o),
(1990,1106,cs),
(2013,1145,o),
(2024,1203,o),
(2024,1280,cs),
(2024,1350,o),
(2012,1402,o),
(1989,1437,cs),
(1966,1472,o),
(1932,1489,o),
(1885,1489,cs),
(1854,1489,o),
(1830,1481,o),
(1815,1466,cs),
(1800,1451,o),
(1792,1427,o),
(1792,1396,c),
(1839,1396,o),
(1873,1387,o),
(1896,1368,cs),
(1919,1349,o),
(1931,1319,o),
(1931,1280,cs),
(1931,1257,o),
(1928,1240,o),
(1923,1228,cs),
(1918,1216,o),
(1909,1210,o),
(1898,1210,cs),
(1875,1210,o),
(1837,1226,o),
(1782,1258,cs),
(1702,1303,l),
(1559,1027,l),
(1559,965,l),
(1722,862,l),
(1722,-465,ls),
(1722,-512,o),
(1702,-547,o),
(1663,-570,cs),
(1625,-593,o),
(1567,-605,o),
(1489,-605,cs),
(1396,-605,ls),
(1319,-605,o),
(1261,-593,o),
(1222,-570,cs),
(1183,-547,o),
(1163,-512,o),
(1163,-465,cs),
(1163,-222,l),
(721,-93,l),
(279,-222,l),
(279,-698,l)
);
},
{
closed = 1;
nodes = (
(442,0,l),
(577,133,ls),
(602,157,o),
(620,183,o),
(633,212,cs),
(645,241,o),
(651,271,o),
(651,303,cs),
(651,349,o),
(637,384,o),
(610,408,cs),
(583,431,o),
(542,442,o),
(488,442,cs),
(442,442,l),
(442,1075,l),
(637,1163,l),
(1000,998,l),
(1000,0,l),
(1163,0,l),
(1163,1103,l),
(721,1303,l),
(279,1104,l),
(279,0,l)
);
},
{
closed = 1;
nodes = (
(442,-443,l),
(488,-443,ls),
(511,-443,o),
(529,-445,o),
(541,-449,cs),
(552,-452,o),
(558,-458,o),
(558,-466,cs),
(558,-480,o),
(553,-493,o),
(544,-506,cs),
(535,-520,o),
(521,-533,o),
(503,-546,cs),
(442,-586,l)
);
}
);
userData = {
assembly = "NPUSHB[ ]	/* 42 values pushed */
79 30 2 9 10 106 29 16 15 11 5 12 9 108 107 78 77 76 14 6 2 12 2 1 1 0 65 64 63 50 49 48 6 6 1 38 33 2 8 4 6 76 
MPPEM[ ]	/* MeasurePixelPerEm */
PUSHB[ ]	/* 1 value pushed */
15 
LT[ ]	/* LessThan */
IF[ ]	/* If */
NPUSHB[ ]	/* 53 values pushed */
0 11 0 10 9 11 10 105 0 9 0 12 2 9 12 105 0 2 13 1 0 1 2 0 105 0 6 14 1 4 8 6 4 105 3 1 1 1 19 77 0 8 8 5 97 7 15 2 5 5 25 5 78 
ELSE[ ]	/* Else */
NPUSHB[ ]	/* 50 values pushed */
0 11 0 10 9 11 10 105 0 9 0 12 2 9 12 105 0 2 13 1 0 1 2 0 105 0 6 14 1 4 8 6 4 105 0 8 7 15 2 5 8 5 101 3 1 1 1 19 1 78 
EIF[ ]	/* EndIf */
NPUSHB[ ]	/* 41 values pushed */
44 42 32 31 1 0 103 101 95 93 90 89 82 81 72 69 62 61 53 51 42 112 44 112 31 41 32 41 28 27 19 17 13 12 0 10 1 10 16 7 22 
CALL[ ]	/* CallFunction */";
};
width = 2164;
}
);
note = uni17A6;
unicode = 6054;
},
{
glyphname = uni17A7;
lastChange = "2022-11-15 14:54:54 +0000";
layers = (
{
layerId = m01;
shapes = (
{
closed = 1;
nodes = (
(457,908,o),
(469,906,o),
(476,902,cs),
(484,898,o),
(488,892,o),
(488,884,cs),
(488,869,o),
(484,858,o),
(476,850,cs),
(469,843,o),
(457,839,o),
(442,839,c),
(442,908,l)
);
},
{
closed = 1;
nodes = (
(279,186,o),
(300,117,o),
(343,71,cs),
(386,24,o),
(450,1,o),
(536,1,cs),
(564,1,l),
(1001,250,l),
(1001,117,ls),
(1001,86,o),
(962,70,o),
(884,70,c),
(884,-8,o),
(923,-47,o),
(1001,-47,cs),
(1055,-47,o),
(1095,-33,o),
(1122,-6,cs),
(1149,21,o),
(1163,61,o),
(1163,115,cs),
(1163,535,l),
(1001,535,l),
(1001,357,l),
(541,94,l),
(508,94,o),
(483,109,o),
(467,140,cs),
(450,171,o),
(442,216,o),
(442,277,cs),
(442,415,l),
(1018,702,ls),
(1115,751,o),
(1163,826,o),
(1163,925,cs),
(1163,1071,ls),
(1163,1148,o),
(1132,1207,o),
(1070,1246,cs),
(1008,1284,o),
(915,1303,o),
(791,1303,cs),
(651,1303,ls),
(527,1303,o),
(434,1284,o),
(372,1246,cs),
(310,1207,o),
(279,1148,o),
(279,1071,cs),
(279,838,ls),
(279,807,o),
(293,783,o),
(320,768,cs),
(347,753,o),
(388,745,o),
(442,745,cs),
(489,745,o),
(524,757,o),
(547,780,cs),
(570,803,o),
(582,838,o),
(582,884,cs),
(582,923,o),
(570,952,o),
(547,972,cs),
(524,991,o),
(489,1001,o),
(442,1001,c),
(442,1071,ls),
(442,1117,o),
(459,1152,o),
(494,1175,cs),
(529,1198,o),
(582,1210,o),
(651,1210,cs),
(791,1210,ls),
(860,1210,o),
(913,1198,o),
(948,1175,cs),
(983,1152,o),
(1000,1117,o),
(1000,1071,cs),
(1000,925,ls),
(1000,840,o),
(983,789,o),
(949,772,cs),
(279,438,l),
(279,278,ls)
);
}
);
userData = {
assembly = "NPUSHB[ ]	/* 14 values pushed */
5 0 2 0 2 71 64 52 46 4 5 6 2 76 
MPPEM[ ]	/* MeasurePixelPerEm */
PUSHB[ ]	/* 1 value pushed */
17 
LT[ ]	/* LessThan */
IF[ ]	/* If */
NPUSHB[ ]	/* 54 values pushed */
0 2 1 0 0 2 114 0 6 3 5 3 6 5 128 0 0 0 3 6 0 3 106 0 1 1 4 97 0 4 4 17 77 0 5 5 9 97 0 9 9 19 77 0 8 8 7 98 0 7 7 19 7 78 
ELSE[ ]	/* Else */
MPPEM[ ]	/* MeasurePixelPerEm */
PUSHB[ ]	/* 1 value pushed */
22 
LT[ ]	/* LessThan */
IF[ ]	/* If */
NPUSHB[ ]	/* 55 values pushed */
0 2 1 0 1 2 0 128 0 6 3 5 3 6 5 128 0 0 0 3 6 0 3 106 0 1 1 4 97 0 4 4 17 77 0 5 5 9 97 0 9 9 19 77 0 8 8 7 98 0 7 7 19 7 78 
ELSE[ ]	/* Else */
NPUSHB[ ]	/* 52 values pushed */
0 2 1 0 1 2 0 128 0 6 3 5 3 6 5 128 0 0 0 3 6 0 3 106 0 8 0 7 8 7 102 0 1 1 4 97 0 4 4 17 77 0 5 5 9 97 0 9 9 19 9 78 
EIF[ ]	/* EndIf */
EIF[ ]	/* EndIf */
NPUSHB[ ]	/* 14 values pushed */
67 65 17 36 18 27 55 38 20 59 17 10 7 31 
CALL[ ]	/* CallFunction */";
};
width = 1442;
}
);
note = uni17A7;
unicode = 6055;
},
{
glyphname = uni17A8;
lastChange = "2022-11-15 14:54:54 +0000";
layers = (
{
layerId = m01;
shapes = (
{
closed = 1;
nodes = (
(1052,1409,o),
(1095,1396,o),
(1138,1396,cs),
(1181,1396,o),
(1221,1443,o),
(1256,1537,c),
(1203,1537,ls),
(1172,1537,o),
(1142,1545,o),
(1115,1562,cs),
(930,1676,l),
(893,1676,l),
(749,1550,l),
(550,1676,l),
(513,1676,l),
(186,1509,l),
(186,1457,l),
(299,1368,ls),
(320,1352,o),
(340,1344,o),
(361,1344,cs),
(363,1344,ls),
(384,1344,o),
(411,1362,o),
(443,1397,c),
(331,1477,l),
(456,1543,l),
(686,1396,l),
(716,1396,l),
(863,1527,l),
(1010,1435,ls)
);
},
{
closed = 1;
nodes = (
(279,186,o),
(300,117,o),
(343,71,cs),
(386,24,o),
(451,1,o),
(536,1,cs),
(564,1,l),
(1001,250,l),
(1001,117,ls),
(1001,86,o),
(962,70,o),
(884,70,c),
(884,-8,o),
(923,-47,o),
(1001,-47,cs),
(1055,-47,o),
(1095,-33,o),
(1122,-6,cs),
(1149,21,o),
(1163,61,o),
(1163,115,cs),
(1163,535,l),
(1001,535,l),
(1001,357,l),
(541,94,l),
(508,94,o),
(483,109,o),
(467,140,cs),
(450,171,o),
(442,216,o),
(442,277,cs),
(442,415,l),
(1018,702,ls),
(1115,751,o),
(1163,826,o),
(1163,925,cs),
(1163,1071,ls),
(1163,1148,o),
(1132,1207,o),
(1070,1246,cs),
(1008,1284,o),
(915,1303,o),
(791,1303,cs),
(651,1303,ls),
(527,1303,o),
(434,1284,o),
(372,1246,cs),
(310,1207,o),
(279,1148,o),
(279,1071,cs),
(279,838,ls),
(279,807,o),
(293,783,o),
(320,768,cs),
(347,753,o),
(388,745,o),
(442,745,cs),
(489,745,o),
(524,757,o),
(547,780,cs),
(570,803,o),
(582,838,o),
(582,884,cs),
(582,923,o),
(570,952,o),
(547,972,cs),
(524,991,o),
(489,1001,o),
(442,1001,c),
(442,1071,ls),
(442,1117,o),
(459,1152,o),
(494,1175,cs),
(529,1198,o),
(582,1210,o),
(651,1210,cs),
(791,1210,ls),
(860,1210,o),
(913,1198,o),
(948,1175,cs),
(983,1152,o),
(1001,1117,o),
(1001,1071,cs),
(1001,925,ls),
(1001,840,o),
(984,789,o),
(949,772,cs),
(279,438,l),
(279,278,ls)
);
},
{
closed = 1;
nodes = (
(442,908,l),
(457,908,o),
(469,906,o),
(476,902,cs),
(485,898,o),
(489,892,o),
(489,884,cs),
(489,869,o),
(485,858,o),
(476,850,cs),
(469,843,o),
(457,839,o),
(442,839,c)
);
}
);
userData = {
assembly = "NPUSHB[ ]	/* 27 values pushed */
16 4 2 4 2 13 12 6 5 1 5 0 4 31 26 2 6 8 97 90 78 72 4 11 12 4 76 
MPPEM[ ]	/* MeasurePixelPerEm */
PUSHB[ ]	/* 1 value pushed */
17 
LT[ ]	/* LessThan */
IF[ ]	/* If */
NPUSHB[ ]	/* 77 values pushed */
3 1 2 4 2 133 0 1 0 10 0 1 10 128 0 8 7 6 6 8 114 0 12 9 11 9 12 11 128 0 4 5 1 0 1 4 0 105 0 6 0 9 12 6 9 106 0 7 7 10 97 0 10 10 17 77 0 11 11 15 97 0 15 15 19 77 0 14 14 13 98 0 13 13 19 13 78 
ELSE[ ]	/* Else */
MPPEM[ ]	/* MeasurePixelPerEm */
PUSHB[ ]	/* 1 value pushed */
22 
LT[ ]	/* LessThan */
IF[ ]	/* If */
NPUSHB[ ]	/* 78 values pushed */
3 1 2 4 2 133 0 1 0 10 0 1 10 128 0 8 7 6 7 8 6 128 0 12 9 11 9 12 11 128 0 4 5 1 0 1 4 0 105 0 6 0 9 12 6 9 106 0 7 7 10 97 0 10 10 17 77 0 11 11 15 97 0 15 15 19 77 0 14 14 13 98 0 13 13 19 13 78 
ELSE[ ]	/* Else */
NPUSHB[ ]	/* 75 values pushed */
3 1 2 4 2 133 0 1 0 10 0 1 10 128 0 8 7 6 7 8 6 128 0 12 9 11 9 12 11 128 0 4 5 1 0 1 4 0 105 0 6 0 9 12 6 9 106 0 14 0 13 14 13 102 0 7 7 10 97 0 10 10 17 77 0 11 11 15 97 0 15 15 19 15 78 
EIF[ ]	/* EndIf */
EIF[ ]	/* EndIf */
NPUSHB[ ]	/* 26 values pushed */
93 91 88 87 86 84 80 79 77 76 65 62 55 53 20 59 18 33 34 18 20 52 18 16 7 31 
CALL[ ]	/* CallFunction */";
};
width = 1442;
}
);
note = uni17A8;
unicode = 6056;
},
{
glyphname = uni17A9;
lastChange = "2022-11-15 14:54:54 +0000";
layers = (
{
layerId = m01;
shapes = (
{
closed = 1;
nodes = (
(457,908,o),
(469,906,o),
(476,902,cs),
(484,898,o),
(488,892,o),
(488,884,cs),
(488,869,o),
(484,858,o),
(476,850,cs),
(469,843,o),
(457,839,o),
(442,839,c),
(442,908,l)
);
},
{
closed = 1;
nodes = (
(279,186,o),
(300,117,o),
(343,71,cs),
(386,24,o),
(450,1,o),
(536,1,cs),
(564,1,l),
(1001,250,l),
(1001,117,ls),
(1001,78,o),
(991,49,o),
(972,30,cs),
(953,10,o),
(923,0,o),
(884,0,c),
(884,-15,o),
(894,-27,o),
(914,-35,cs),
(933,-43,o),
(962,-47,o),
(1001,-47,cs),
(1032,-47,o),
(1055,-33,o),
(1070,-6,cs),
(1086,21,o),
(1094,61,o),
(1094,115,cs),
(1094,535,l),
(1001,535,l),
(1001,357,l),
(541,94,l),
(508,94,o),
(483,109,o),
(467,140,cs),
(450,171,o),
(442,216,o),
(442,277,cs),
(442,415,l),
(1018,702,ls),
(1115,751,o),
(1163,826,o),
(1163,925,cs),
(1163,1071,ls),
(1163,1148,o),
(1132,1207,o),
(1070,1246,cs),
(1008,1284,o),
(915,1303,o),
(791,1303,cs),
(651,1303,ls),
(527,1303,o),
(434,1284,o),
(372,1246,cs),
(310,1207,o),
(279,1148,o),
(279,1071,cs),
(279,838,ls),
(279,807,o),
(293,783,o),
(320,768,cs),
(347,753,o),
(388,745,o),
(442,745,cs),
(489,745,o),
(524,757,o),
(547,780,cs),
(570,803,o),
(582,838,o),
(582,884,cs),
(582,923,o),
(570,952,o),
(547,972,cs),
(524,991,o),
(489,1001,o),
(442,1001,c),
(442,1071,ls),
(442,1117,o),
(459,1152,o),
(494,1175,cs),
(529,1198,o),
(582,1210,o),
(651,1210,cs),
(791,1210,ls),
(860,1210,o),
(913,1198,o),
(948,1175,cs),
(983,1152,o),
(1000,1117,o),
(1000,1071,cs),
(1000,925,ls),
(1000,840,o),
(983,789,o),
(949,772,cs),
(279,438,l),
(279,278,ls)
);
},
{
closed = 1;
nodes = (
(1117,-78,o),
(1140,-93,o),
(1187,-93,cs),
(1218,-93,o),
(1241,-77,o),
(1256,-46,cs),
(1272,-14,o),
(1280,34,o),
(1280,97,cs),
(1280,535,l),
(1187,535,l),
(1187,99,ls),
(1187,56,o),
(1181,21,o),
(1169,-6,cs),
(1158,-33,o),
(1140,-47,o),
(1117,-47,c)
);
}
);
userData = {
assembly = "NPUSHB[ ]	/* 14 values pushed */
5 0 2 0 2 75 68 52 46 4 5 6 2 76 
MPPEM[ ]	/* MeasurePixelPerEm */
PUSHB[ ]	/* 1 value pushed */
12 
LT[ ]	/* LessThan */
IF[ ]	/* If */
NPUSHB[ ]	/* 68 values pushed */
0 2 1 0 0 2 114 0 8 9 7 9 8 7 128 0 12 7 11 7 12 11 128 0 0 0 3 6 0 3 106 0 11 6 11 85 0 1 1 4 97 0 4 4 17 77 0 5 5 9 97 0 9 9 19 77 10 1 6 6 7 97 0 7 7 19 7 78 
ELSE[ ]	/* Else */
MPPEM[ ]	/* MeasurePixelPerEm */
PUSHB[ ]	/* 1 value pushed */
17 
LT[ ]	/* LessThan */
IF[ ]	/* If */
NPUSHB[ ]	/* 65 values pushed */
0 2 1 0 0 2 114 0 8 9 7 9 8 7 128 0 0 0 3 6 0 3 106 0 11 6 11 85 0 1 1 4 97 0 4 4 17 77 0 5 5 9 97 0 9 9 19 77 10 1 6 6 7 97 0 7 7 19 77 0 12 12 18 12 78 
ELSE[ ]	/* Else */
MPPEM[ ]	/* MeasurePixelPerEm */
PUSHB[ ]	/* 1 value pushed */
22 
LT[ ]	/* LessThan */
IF[ ]	/* If */
NPUSHB[ ]	/* 66 values pushed */
0 2 1 0 1 2 0 128 0 8 9 7 9 8 7 128 0 0 0 3 6 0 3 106 0 11 6 11 85 0 1 1 4 97 0 4 4 17 77 0 5 5 9 97 0 9 9 19 77 10 1 6 6 7 97 0 7 7 19 77 0 12 12 18 12 78 
ELSE[ ]	/* Else */
NPUSHB[ ]	/* 67 values pushed */
0 2 1 0 1 2 0 128 0 8 9 7 9 8 7 128 0 12 7 11 7 12 11 128 0 0 0 3 6 0 3 106 0 7 12 6 7 89 10 1 6 0 11 6 11 101 0 1 1 4 97 0 4 4 17 77 0 5 5 9 97 0 9 9 19 9 78 
EIF[ ]	/* EndIf */
EIF[ ]	/* EndIf */
EIF[ ]	/* EndIf */
NPUSHB[ ]	/* 20 values pushed */
89 88 86 84 80 79 71 69 19 36 18 27 55 38 20 59 17 13 7 31 
CALL[ ]	/* CallFunction */";
};
width = 1442;
}
);
note = uni17A9;
unicode = 6057;
},
{
glyphname = uni17AA;
lastChange = "2022-11-15 14:54:54 +0000";
layers = (
{
layerId = m01;
shapes = (
{
closed = 1;
nodes = (
(652,1396,l),
(838,1396,ls),
(941,1396,o),
(1021,1414,o),
(1078,1449,cs),
(1135,1485,o),
(1163,1537,o),
(1163,1606,cs),
(1163,1684,o),
(1149,1742,o),
(1122,1781,cs),
(1094,1820,o),
(1052,1839,o),
(997,1839,cs),
(960,1839,o),
(931,1831,o),
(912,1816,cs),
(893,1801,o),
(884,1777,o),
(884,1745,c),
(923,1745,o),
(953,1733,o),
(972,1710,cs),
(991,1687,o),
(1001,1653,o),
(1001,1606,cs),
(1001,1571,o),
(988,1543,o),
(961,1522,cs),
(933,1500,o),
(892,1489,o),
(838,1489,cs),
(795,1489,l),
(545,1699,l),
(493,1699,l),
(186,1505,l),
(186,1435,l),
(346,1312,l),
(442,1350,l),
(298,1465,l),
(453,1564,l)
);
},
{
closed = 1;
nodes = (
(279,186,o),
(300,117,o),
(343,71,cs),
(386,24,o),
(451,1,o),
(536,1,cs),
(564,1,l),
(1001,250,l),
(1001,117,ls),
(1001,86,o),
(962,70,o),
(884,70,c),
(884,-8,o),
(923,-47,o),
(1001,-47,cs),
(1055,-47,o),
(1095,-33,o),
(1122,-6,cs),
(1149,21,o),
(1163,61,o),
(1163,115,cs),
(1163,535,l),
(1001,535,l),
(1001,357,l),
(541,94,l),
(508,94,o),
(483,109,o),
(467,140,cs),
(450,171,o),
(442,216,o),
(442,277,cs),
(442,415,l),
(1018,702,ls),
(1115,751,o),
(1163,826,o),
(1163,925,cs),
(1163,1071,ls),
(1163,1148,o),
(1132,1207,o),
(1070,1246,cs),
(1008,1284,o),
(915,1303,o),
(791,1303,cs),
(651,1303,ls),
(527,1303,o),
(434,1284,o),
(372,1246,cs),
(310,1207,o),
(279,1148,o),
(279,1071,cs),
(279,838,ls),
(279,807,o),
(293,783,o),
(320,768,cs),
(347,753,o),
(388,745,o),
(442,745,cs),
(489,745,o),
(524,757,o),
(547,780,cs),
(570,803,o),
(582,838,o),
(582,884,cs),
(582,923,o),
(570,952,o),
(547,972,cs),
(524,991,o),
(489,1001,o),
(442,1001,c),
(442,1071,ls),
(442,1117,o),
(459,1152,o),
(494,1175,cs),
(529,1198,o),
(582,1210,o),
(651,1210,cs),
(791,1210,ls),
(860,1210,o),
(913,1198,o),
(948,1175,cs),
(983,1152,o),
(1001,1117,o),
(1001,1071,cs),
(1001,925,ls),
(1001,840,o),
(984,789,o),
(949,772,cs),
(279,438,l),
(279,278,ls)
);
},
{
closed = 1;
nodes = (
(442,908,l),
(457,908,o),
(469,906,o),
(476,902,cs),
(485,898,o),
(489,892,o),
(489,884,cs),
(489,869,o),
(485,858,o),
(476,850,cs),
(469,843,o),
(457,839,o),
(442,839,c)
);
}
);
userData = {
assembly = "NPUSHB[ ]	/* 28 values pushed */
30 4 2 1 0 3 1 4 1 2 1 2 9 4 36 31 2 5 7 102 95 83 77 4 10 11 5 76 
MPPEM[ ]	/* MeasurePixelPerEm */
PUSHB[ ]	/* 1 value pushed */
17 
LT[ ]	/* LessThan */
IF[ ]	/* If */
NPUSHB[ ]	/* 77 values pushed */
0 3 2 3 133 0 2 0 2 133 0 0 1 0 133 0 7 6 5 5 7 114 0 11 8 10 8 11 10 128 0 1 0 4 9 1 4 104 0 5 0 8 11 5 8 106 0 6 6 9 97 0 9 9 17 77 0 10 10 14 97 0 14 14 19 77 0 13 13 12 98 0 12 12 19 12 78 
ELSE[ ]	/* Else */
MPPEM[ ]	/* MeasurePixelPerEm */
PUSHB[ ]	/* 1 value pushed */
22 
LT[ ]	/* LessThan */
IF[ ]	/* If */
NPUSHB[ ]	/* 78 values pushed */
0 3 2 3 133 0 2 0 2 133 0 0 1 0 133 0 7 6 5 6 7 5 128 0 11 8 10 8 11 10 128 0 1 0 4 9 1 4 104 0 5 0 8 11 5 8 106 0 6 6 9 97 0 9 9 17 77 0 10 10 14 97 0 14 14 19 77 0 13 13 12 98 0 12 12 19 12 78 
ELSE[ ]	/* Else */
NPUSHB[ ]	/* 75 values pushed */
0 3 2 3 133 0 2 0 2 133 0 0 1 0 133 0 7 6 5 6 7 5 128 0 11 8 10 8 11 10 128 0 1 0 4 9 1 4 104 0 5 0 8 11 5 8 106 0 13 0 12 13 12 102 0 6 6 9 97 0 9 9 17 77 0 10 10 14 97 0 14 14 19 14 78 
EIF[ ]	/* EndIf */
EIF[ ]	/* EndIf */
NPUSHB[ ]	/* 24 values pushed */
98 96 93 92 91 89 85 84 82 81 70 67 38 20 59 19 38 35 22 33 21 15 7 31 
CALL[ ]	/* CallFunction */";
};
width = 1442;
}
);
note = uni17AA;
unicode = 6058;
},
{
glyphname = uni17AB;
lastChange = "2022-11-15 14:54:54 +0000";
layers = (
{
layerId = m01;
shapes = (
{
closed = 1;
nodes = (
(899,0,o),
(998,19,o),
(1065,58,cs),
(1130,97,o),
(1163,155,o),
(1163,233,cs),
(1163,869,l),
(943,1009,l),
(1033,1125,l),
(1106,1079,ls),
(1140,1058,o),
(1172,1047,o),
(1202,1047,cs),
(1233,1047,o),
(1275,1094,o),
(1326,1187,c),
(1280,1187,ls),
(1254,1187,o),
(1222,1199,o),
(1184,1223,cs),
(1054,1303,l),
(837,1025,l),
(837,965,l),
(1000,862,l),
(1000,233,ls),
(1000,186,o),
(981,151,o),
(943,128,cs),
(904,105,o),
(845,93,o),
(768,93,cs),
(675,93,ls),
(597,93,o),
(539,105,o),
(500,128,cs),
(461,151,o),
(442,186,o),
(442,233,cs),
(442,869,l),
(221,1009,l),
(311,1125,l),
(385,1079,ls),
(418,1058,o),
(450,1047,o),
(481,1047,cs),
(512,1047,o),
(553,1094,o),
(605,1187,c),
(558,1187,ls),
(532,1187,o),
(500,1199,o),
(462,1223,cs),
(333,1303,l),
(116,1025,l),
(116,965,l),
(279,862,l),
(279,233,ls),
(279,155,o),
(312,97,o),
(378,58,cs),
(443,19,o),
(542,0,o),
(675,0,cs),
(768,0,ls)
);
},
{
closed = 1;
nodes = (
(224,-431,o),
(276,-461,o),
(343,-482,cs),
(410,-502,o),
(492,-512,o),
(588,-512,cs),
(780,-512,o),
(924,-489,o),
(1019,-442,cs),
(1115,-395,o),
(1163,-326,o),
(1163,-233,cs),
(1163,-186,o),
(1153,-151,o),
(1134,-128,cs),
(1115,-105,o),
(1086,-93,o),
(1047,-93,cs),
(1008,-93,o),
(979,-101,o),
(960,-116,cs),
(941,-132,o),
(931,-155,o),
(931,-186,c),
(954,-186,o),
(972,-190,o),
(984,-197,cs),
(995,-205,o),
(1000,-217,o),
(1000,-233,cs),
(1000,-295,o),
(966,-341,o),
(898,-372,cs),
(829,-403,o),
(726,-419,o),
(589,-419,cs),
(436,-419,o),
(301,-410,o),
(186,-391,c)
);
}
);
userData = {
assembly = "NPUSHB[ ]	/* 29 values pushed */
43 18 2 2 1 45 44 33 32 31 20 19 8 7 6 10 3 2 58 1 7 8 3 76 34 9 2 1 74 
MPPEM[ ]	/* MeasurePixelPerEm */
PUSHB[ ]	/* 1 value pushed */
12 
LT[ ]	/* LessThan */
IF[ ]	/* If */
NPUSHB[ ]	/* 47 values pushed */
0 9 0 8 0 9 8 128 0 8 7 0 8 7 126 4 1 1 5 1 2 3 1 2 105 0 3 3 0 97 10 1 0 0 19 77 0 7 7 6 97 0 6 6 20 6 78 
ELSE[ ]	/* Else */
MPPEM[ ]	/* MeasurePixelPerEm */
PUSHB[ ]	/* 1 value pushed */
15 
LT[ ]	/* LessThan */
IF[ ]	/* If */
NPUSHB[ ]	/* 45 values pushed */
0 8 9 7 9 8 7 128 4 1 1 5 1 2 3 1 2 105 0 3 3 0 97 10 1 0 0 19 77 0 9 9 18 77 0 7 7 6 97 0 6 6 20 6 78 
ELSE[ ]	/* Else */
NPUSHB[ ]	/* 42 values pushed */
0 8 9 7 9 8 7 128 4 1 1 5 1 2 3 1 2 105 0 7 0 6 7 6 101 0 3 3 0 97 10 1 0 0 19 77 0 9 9 18 9 78 
EIF[ ]	/* EndIf */
EIF[ ]	/* EndIf */
NPUSHB[ ]	/* 27 values pushed */
2 0 73 71 68 67 61 59 55 53 41 39 38 36 27 24 16 14 13 11 0 49 2 49 11 7 22 
CALL[ ]	/* CallFunction */";
};
width = 1442;
}
);
note = uni17AB;
unicode = 6059;
},
{
glyphname = uni17AC;
lastChange = "2022-11-15 14:54:54 +0000";
layers = (
{
layerId = m01;
shapes = (
{
closed = 1;
nodes = (
(899,0,o),
(998,19,o),
(1065,58,cs),
(1130,97,o),
(1163,155,o),
(1163,233,cs),
(1163,869,l),
(943,1009,l),
(1033,1125,l),
(1106,1079,ls),
(1140,1058,o),
(1172,1047,o),
(1202,1047,cs),
(1233,1047,o),
(1275,1094,o),
(1326,1187,c),
(1280,1187,ls),
(1254,1187,o),
(1222,1199,o),
(1184,1223,cs),
(1054,1303,l),
(837,1025,l),
(837,965,l),
(1000,862,l),
(1000,233,ls),
(1000,186,o),
(981,151,o),
(943,128,cs),
(904,105,o),
(845,93,o),
(768,93,cs),
(675,93,ls),
(597,93,o),
(539,105,o),
(500,128,cs),
(461,151,o),
(442,186,o),
(442,233,cs),
(442,869,l),
(221,1009,l),
(311,1125,l),
(385,1079,ls),
(418,1058,o),
(450,1047,o),
(481,1047,cs),
(512,1047,o),
(553,1094,o),
(605,1187,c),
(558,1187,ls),
(532,1187,o),
(500,1199,o),
(462,1223,cs),
(333,1303,l),
(116,1025,l),
(116,965,l),
(279,862,l),
(279,233,ls),
(279,155,o),
(312,97,o),
(378,58,cs),
(443,19,o),
(542,0,o),
(675,0,cs),
(768,0,ls)
);
},
{
closed = 1;
nodes = (
(225,-431,o),
(277,-461,o),
(344,-482,cs),
(411,-502,o),
(493,-512,o),
(588,-512,cs),
(676,-512,o),
(754,-507,o),
(822,-497,cs),
(889,-487,o),
(947,-472,o),
(995,-453,c),
(1011,-472,o),
(1032,-487,o),
(1058,-497,cs),
(1085,-507,o),
(1116,-512,o),
(1152,-512,cs),
(1203,-512,o),
(1241,-504,o),
(1266,-489,cs),
(1291,-473,o),
(1303,-450,o),
(1303,-420,c),
(1252,-420,o),
(1213,-414,o),
(1184,-402,cs),
(1155,-390,o),
(1138,-372,o),
(1132,-348,c),
(1153,-315,o),
(1164,-276,o),
(1164,-233,cs),
(1164,-186,o),
(1154,-151,o),
(1135,-128,cs),
(1116,-105,o),
(1087,-93,o),
(1049,-93,cs),
(1010,-93,o),
(980,-101,o),
(960,-116,cs),
(941,-132,o),
(931,-155,o),
(931,-186,c),
(977,-186,o),
(1000,-202,o),
(1000,-233,cs),
(1000,-295,o),
(966,-341,o),
(898,-372,cs),
(829,-403,o),
(727,-419,o),
(590,-419,cs),
(436,-419,o),
(302,-410,o),
(187,-391,c)
);
}
);
userData = {
assembly = "NPUSHB[ ]	/* 34 values pushed */
43 18 2 2 1 45 44 33 32 31 20 19 8 7 6 10 3 2 72 52 2 6 10 64 1 7 6 4 76 34 9 2 1 74 
MPPEM[ ]	/* MeasurePixelPerEm */
PUSHB[ ]	/* 1 value pushed */
12 
LT[ ]	/* LessThan */
IF[ ]	/* If */
NPUSHB[ ]	/* 42 values pushed */
4 1 1 5 1 2 3 1 2 105 0 11 0 10 6 11 10 105 0 3 3 0 97 12 1 0 0 19 77 9 1 6 6 7 97 8 1 7 7 20 7 78 
ELSE[ ]	/* Else */
MPPEM[ ]	/* MeasurePixelPerEm */
PUSHB[ ]	/* 1 value pushed */
15 
LT[ ]	/* LessThan */
IF[ ]	/* If */
NPUSHB[ ]	/* 44 values pushed */
4 1 1 5 1 2 3 1 2 105 0 3 3 0 97 12 1 0 0 19 77 0 10 10 11 97 0 11 11 18 77 9 1 6 6 7 97 8 1 7 7 20 7 78 
ELSE[ ]	/* Else */
NPUSHB[ ]	/* 41 values pushed */
4 1 1 5 1 2 3 1 2 105 9 1 6 8 1 7 6 7 101 0 3 3 0 97 12 1 0 0 19 77 0 10 10 11 97 0 11 11 18 10 78 
EIF[ ]	/* EndIf */
EIF[ ]	/* EndIf */
NPUSHB[ ]	/* 31 values pushed */
2 0 85 83 80 79 75 73 69 67 61 59 56 55 41 39 38 36 27 24 16 14 13 11 0 49 2 49 13 7 22 
CALL[ ]	/* CallFunction */";
};
width = 1442;
}
);
note = uni17AC;
unicode = 6060;
},
{
glyphname = uni17AD;
lastChange = "2022-11-15 14:54:54 +0000";
layers = (
{
layerId = m01;
shapes = (
{
closed = 1;
nodes = (
(512,349,o),
(529,345,o),
(541,337,cs),
(552,330,o),
(558,318,o),
(558,303,cs),
(558,284,o),
(553,266,o),
(544,247,cs),
(535,229,o),
(521,211,o),
(503,192,cs),
(442,131,l),
(442,349,l),
(489,349,ls)
);
},
{
closed = 1;
nodes = (
(224,-431,o),
(276,-461,o),
(343,-482,cs),
(410,-502,o),
(492,-512,o),
(588,-512,cs),
(780,-512,o),
(924,-489,o),
(1019,-442,cs),
(1115,-395,o),
(1163,-326,o),
(1163,-233,cs),
(1163,-186,o),
(1154,-151,o),
(1135,-128,cs),
(1116,-105,o),
(1086,-93,o),
(1047,-93,cs),
(1008,-93,o),
(980,-101,o),
(961,-116,cs),
(942,-132,o),
(932,-155,o),
(932,-186,c),
(955,-186,o),
(972,-190,o),
(984,-197,cs),
(995,-205,o),
(1001,-217,o),
(1001,-233,cs),
(1001,-295,o),
(967,-341,o),
(898,-372,cs),
(829,-403,o),
(726,-419,o),
(589,-419,cs),
(436,-419,o),
(301,-410,o),
(186,-391,c)
);
},
{
closed = 1;
nodes = (
(442,0,l),
(577,133,ls),
(602,157,o),
(620,183,o),
(633,212,cs),
(645,241,o),
(651,271,o),
(651,303,cs),
(651,349,o),
(637,384,o),
(610,408,cs),
(583,431,o),
(543,442,o),
(489,442,cs),
(442,442,l),
(442,1076,l),
(553,1173,l),
(722,1007,l),
(891,1173,l),
(1001,1075,l),
(1001,0,l),
(1163,0,l),
(1163,1052,l),
(888,1304,l),
(722,1140,l),
(556,1304,l),
(279,1056,l),
(279,0,l)
);
}
);
userData = {
assembly = "NPUSHB[ ]	/* 22 values pushed */
2 1 1 0 43 1 5 6 2 76 34 33 32 19 18 17 16 15 12 9 2 74 
MPPEM[ ]	/* MeasurePixelPerEm */
PUSHB[ ]	/* 1 value pushed */
12 
LT[ ]	/* LessThan */
IF[ ]	/* If */
NPUSHB[ ]	/* 41 values pushed */
0 7 1 6 1 7 6 128 0 6 5 1 6 5 126 0 2 8 1 0 1 2 0 105 3 1 1 1 19 77 0 5 5 4 97 0 4 4 20 4 78 
ELSE[ ]	/* Else */
MPPEM[ ]	/* MeasurePixelPerEm */
PUSHB[ ]	/* 1 value pushed */
15 
LT[ ]	/* LessThan */
IF[ ]	/* If */
NPUSHB[ ]	/* 39 values pushed */
0 6 7 5 7 6 5 128 0 2 8 1 0 1 2 0 105 3 1 1 1 19 77 0 7 7 18 77 0 5 5 4 97 0 4 4 20 4 78 
ELSE[ ]	/* Else */
NPUSHB[ ]	/* 36 values pushed */
0 6 7 5 7 6 5 128 0 2 8 1 0 1 2 0 105 0 5 0 4 5 4 101 3 1 1 1 19 77 0 7 7 18 7 78 
EIF[ ]	/* EndIf */
EIF[ ]	/* EndIf */
NPUSHB[ ]	/* 23 values pushed */
1 0 58 56 53 52 46 44 40 38 31 30 22 20 14 13 0 10 1 10 9 7 22 
CALL[ ]	/* CallFunction */";
};
width = 1442;
}
);
note = uni17AD;
unicode = 6061;
},
{
glyphname = uni17AE;
lastChange = "2022-11-15 14:54:54 +0000";
layers = (
{
layerId = m01;
shapes = (
{
closed = 1;
nodes = (
(512,349,o),
(529,345,o),
(541,337,cs),
(552,330,o),
(558,318,o),
(558,303,cs),
(558,284,o),
(553,266,o),
(544,247,cs),
(535,229,o),
(522,211,o),
(504,192,cs),
(442,131,l),
(442,349,l),
(489,349,ls)
);
},
{
closed = 1;
nodes = (
(225,-431,o),
(277,-461,o),
(344,-482,cs),
(411,-502,o),
(493,-512,o),
(588,-512,cs),
(676,-512,o),
(754,-507,o),
(822,-497,cs),
(889,-487,o),
(947,-472,o),
(995,-453,c),
(1011,-472,o),
(1032,-487,o),
(1058,-497,cs),
(1085,-507,o),
(1116,-512,o),
(1152,-512,cs),
(1203,-512,o),
(1241,-504,o),
(1266,-489,cs),
(1291,-473,o),
(1303,-450,o),
(1303,-420,c),
(1252,-420,o),
(1213,-414,o),
(1184,-402,cs),
(1155,-390,o),
(1138,-372,o),
(1132,-348,c),
(1153,-315,o),
(1164,-276,o),
(1164,-233,cs),
(1164,-186,o),
(1155,-151,o),
(1136,-128,cs),
(1117,-105,o),
(1088,-93,o),
(1049,-93,cs),
(1010,-93,o),
(980,-101,o),
(961,-116,cs),
(941,-132,o),
(931,-155,o),
(931,-186,c),
(978,-186,o),
(1001,-202,o),
(1001,-233,cs),
(1001,-295,o),
(967,-341,o),
(898,-372,cs),
(829,-403,o),
(727,-419,o),
(590,-419,cs),
(436,-419,o),
(302,-410,o),
(187,-391,c)
);
},
{
closed = 1;
nodes = (
(442,0,l),
(577,133,ls),
(602,157,o),
(620,183,o),
(633,212,cs),
(646,241,o),
(652,271,o),
(652,303,cs),
(652,349,o),
(638,384,o),
(611,408,cs),
(584,431,o),
(543,442,o),
(489,442,cs),
(442,442,l),
(442,1076,l),
(553,1173,l),
(722,1007,l),
(891,1173,l),
(1001,1075,l),
(1001,0,l),
(1164,0,l),
(1164,1052,l),
(888,1304,l),
(722,1140,l),
(556,1304,l),
(279,1056,l),
(279,0,l)
);
}
);
userData = {
assembly = "NPUSHB[ ]	/* 27 values pushed */
2 1 1 0 57 37 2 4 8 49 1 5 4 3 76 34 33 32 19 18 17 16 15 12 9 2 74 
MPPEM[ ]	/* MeasurePixelPerEm */
PUSHB[ ]	/* 1 value pushed */
12 
LT[ ]	/* LessThan */
IF[ ]	/* If */
NPUSHB[ ]	/* 36 values pushed */
0 2 10 1 0 1 2 0 105 0 9 0 8 4 9 8 105 3 1 1 1 19 77 7 1 4 4 5 97 6 1 5 5 20 5 78 
ELSE[ ]	/* Else */
MPPEM[ ]	/* MeasurePixelPerEm */
PUSHB[ ]	/* 1 value pushed */
15 
LT[ ]	/* LessThan */
IF[ ]	/* If */
NPUSHB[ ]	/* 38 values pushed */
0 2 10 1 0 1 2 0 105 3 1 1 1 19 77 0 8 8 9 97 0 9 9 18 77 7 1 4 4 5 97 6 1 5 5 20 5 78 
ELSE[ ]	/* Else */
NPUSHB[ ]	/* 35 values pushed */
0 2 10 1 0 1 2 0 105 7 1 4 6 1 5 4 5 101 3 1 1 1 19 77 0 8 8 9 97 0 9 9 18 8 78 
EIF[ ]	/* EndIf */
EIF[ ]	/* EndIf */
NPUSHB[ ]	/* 27 values pushed */
1 0 70 68 65 64 60 58 54 52 46 44 41 40 31 30 22 20 14 13 0 10 1 10 11 7 22 
CALL[ ]	/* CallFunction */";
};
width = 1442;
}
);
note = uni17AE;
unicode = 6062;
},
{
glyphname = uni17AF;
lastChange = "2022-11-15 14:54:54 +0000";
layers = (
{
layerId = m01;
shapes = (
{
closed = 1;
nodes = (
(256,559,o),
(238,561,o),
(227,564,cs),
(215,568,o),
(209,574,o),
(209,582,cs),
(209,595,o),
(215,611,o),
(227,631,cs),
(238,651,o),
(256,674,o),
(279,699,c),
(279,559,l)
);
},
{
closed = 1;
nodes = (
(116,542,o),
(130,513,o),
(157,494,cs),
(184,475,o),
(224,465,o),
(279,465,c),
(279,0,l),
(442,0,l),
(721,180,l),
(1000,0,l),
(1163,0,l),
(1163,1103,l),
(721,1303,l),
(442,1178,l),
(442,1304,ls),
(442,1365,o),
(430,1412,o),
(406,1443,cs),
(383,1474,o),
(349,1489,o),
(302,1489,cs),
(263,1489,o),
(234,1480,o),
(215,1461,cs),
(196,1442,o),
(186,1412,o),
(186,1373,c),
(217,1373,o),
(240,1367,o),
(256,1355,cs),
(271,1344,o),
(279,1327,o),
(279,1304,cs),
(279,1164,ls),
(279,1125,o),
(289,1096,o),
(308,1076,cs),
(327,1057,o),
(356,1047,o),
(395,1047,cs),
(426,1048,o),
(442,1057,o),
(442,1075,c),
(637,1163,l),
(1000,998,l),
(1000,111,l),
(721,290,l),
(442,111,l),
(442,838,l),
(279,838,l),
(206,758,ls),
(177,724,o),
(154,693,o),
(138,664,cs),
(123,635,o),
(116,607,o),
(116,581,cs)
);
}
);
userData = {
assembly = "NPUSHB[ ]	/* 90 values pushed */
51 50 29 28 27 5 1 2 49 1 7 1 1 1 0 7 48 47 46 32 4 4 6 4 76 0 2 3 1 3 2 1 128 0 3 9 1 1 7 3 1 105 8 1 0 0 6 4 0 6 105 0 7 7 4 95 5 1 4 4 19 4 78 10 9 0 0 45 44 36 35 34 33 31 30 23 21 18 17 9 52 10 52 0 8 0 8 10 7 22 
CALL[ ]	/* CallFunction */";
};
width = 1442;
}
);
note = uni17AF;
unicode = 6063;
},
{
glyphname = uni17B0;
lastChange = "2022-11-15 14:54:54 +0000";
layers = (
{
layerId = m01;
shapes = (
{
closed = 1;
nodes = (
(297,-464,o),
(279,-500,o),
(279,-559,cs),
(279,-605,o),
(303,-640,o),
(351,-663,cs),
(398,-686,o),
(470,-698,o),
(567,-698,cs),
(637,-698,o),
(689,-683,o),
(724,-652,cs),
(759,-621,o),
(776,-574,o),
(776,-511,c),
(852,-528,ls),
(886,-535,o),
(917,-538,o),
(946,-538,cs),
(1004,-538,o),
(1050,-523,o),
(1085,-494,cs),
(1137,-450,o),
(1163,-374,o),
(1163,-266,cs),
(1163,-47,l),
(1001,-47,l),
(921,-124,ls),
(841,-200,o),
(752,-265,o),
(654,-320,cs),
(557,-374,o),
(450,-417,o),
(334,-450,c)
);
},
{
closed = 1;
nodes = (
(442,0,l),
(577,133,ls),
(602,157,o),
(620,183,o),
(633,212,cs),
(645,241,o),
(651,271,o),
(651,303,cs),
(651,349,o),
(637,384,o),
(610,408,cs),
(583,431,o),
(542,442,o),
(488,442,cs),
(442,442,l),
(442,1076,l),
(553,1173,l),
(722,1007,l),
(891,1173,l),
(1000,1075,l),
(1000,0,l),
(1163,0,l),
(1163,1052,l),
(888,1304,l),
(722,1140,l),
(555,1304,l),
(279,1056,l),
(279,0,l)
);
},
{
closed = 1;
nodes = (
(442,-531,l),
(508,-506,o),
(583,-471,o),
(666,-424,c),
(666,-508,ls),
(666,-541,o),
(658,-565,o),
(641,-581,cs),
(624,-597,o),
(600,-605,o),
(567,-605,cs),
(525,-605,o),
(494,-601,o),
(474,-594,cs),
(453,-586,o),
(442,-574,o),
(442,-559,cs)
);
},
{
closed = 1;
nodes = (
(442,349,l),
(488,349,ls),
(511,349,o),
(529,345,o),
(541,337,cs),
(552,330,o),
(558,318,o),
(558,303,cs),
(558,284,o),
(553,266,o),
(544,247,cs),
(535,229,o),
(521,211,o),
(503,192,cs),
(442,131,l)
);
},
{
closed = 1;
nodes = (
(815,-333,o),
(909,-264,o),
(1001,-185,c),
(1001,-266,ls),
(1001,-331,o),
(991,-377,o),
(971,-404,cs),
(955,-425,o),
(934,-436,o),
(907,-436,cs),
(898,-436,o),
(889,-435,o),
(879,-432,cs),
(720,-392,l)
);
}
);
userData = {
assembly = "NPUSHB[ ]	/* 29 values pushed */
48 1 6 5 39 27 25 3 3 0 41 14 2 1 3 3 76 80 79 78 65 64 63 62 61 58 9 7 74 
MPPEM[ ]	/* MeasurePixelPerEm */
PUSHB[ ]	/* 1 value pushed */
12 
LT[ ]	/* LessThan */
IF[ ]	/* If */
NPUSHB[ ]	/* 45 values pushed */
0 0 6 3 6 0 3 128 0 7 10 1 5 6 7 5 105 8 1 6 6 19 77 0 3 3 1 98 0 1 1 20 77 9 1 4 4 2 97 0 2 2 25 2 78 
ELSE[ ]	/* Else */
MPPEM[ ]	/* MeasurePixelPerEm */
PUSHB[ ]	/* 1 value pushed */
15 
LT[ ]	/* LessThan */
IF[ ]	/* If */
NPUSHB[ ]	/* 42 values pushed */
0 7 10 1 5 6 7 5 105 8 1 6 6 19 77 0 0 0 18 77 0 3 3 1 98 0 1 1 20 77 9 1 4 4 2 97 0 2 2 25 2 78 
ELSE[ ]	/* Else */
MPPEM[ ]	/* MeasurePixelPerEm */
PUSHB[ ]	/* 1 value pushed */
22 
LT[ ]	/* LessThan */
IF[ ]	/* If */
NPUSHB[ ]	/* 37 values pushed */
0 7 10 1 5 6 7 5 105 0 3 0 1 4 3 1 106 9 1 4 0 2 4 2 101 8 1 6 6 19 77 0 0 0 18 0 78 
ELSE[ ]	/* Else */
NPUSHB[ ]	/* 40 values pushed */
0 0 6 3 6 0 3 128 0 7 10 1 5 6 7 5 105 0 3 0 1 4 3 1 106 9 1 4 0 2 4 2 101 8 1 6 6 19 6 78 
EIF[ ]	/* EndIf */
EIF[ ]	/* EndIf */
EIF[ ]	/* EndIf */
NPUSHB[ ]	/* 25 values pushed */
47 46 35 34 77 76 68 66 60 59 46 56 47 56 34 45 35 45 27 37 36 21 11 7 26 
CALL[ ]	/* CallFunction */";
};
width = 1442;
}
);
note = uni17B0;
unicode = 6064;
},
{
glyphname = uni17B1;
lastChange = "2022-11-15 14:54:54 +0000";
layers = (
{
layerId = m01;
shapes = (
{
closed = 1;
nodes = (
(552,1559,o),
(605,1553,o),
(658,1540,cs),
(711,1527,o),
(763,1508,o),
(815,1482,cs),
(896,1442,ls),
(957,1411,o),
(1033,1396,o),
(1122,1396,cs),
(1212,1396,o),
(1257,1427,o),
(1257,1489,c),
(1195,1489,o),
(1142,1500,o),
(1099,1521,cs),
(940,1601,ls),
(879,1632,o),
(816,1656,o),
(752,1671,cs),
(687,1686,o),
(622,1694,o),
(556,1694,c),
(186,1508,l),
(186,1415,l),
(307,1345,ls),
(332,1330,o),
(363,1322,o),
(400,1322,c),
(437,1336,l),
(302,1461,l),
(499,1559,l)
);
},
{
closed = 1;
nodes = (
(279,186,o),
(300,117,o),
(343,71,cs),
(386,24,o),
(451,1,o),
(536,1,cs),
(564,1,l),
(1001,250,l),
(1001,117,ls),
(1001,86,o),
(962,70,o),
(884,70,c),
(884,-8,o),
(923,-47,o),
(1001,-47,cs),
(1055,-47,o),
(1095,-33,o),
(1122,-6,cs),
(1149,21,o),
(1163,61,o),
(1163,115,cs),
(1163,535,l),
(1001,535,l),
(1001,357,l),
(541,94,l),
(508,94,o),
(483,109,o),
(467,140,cs),
(450,171,o),
(442,216,o),
(442,277,cs),
(442,415,l),
(1018,702,ls),
(1115,751,o),
(1163,826,o),
(1163,925,cs),
(1163,1071,ls),
(1163,1148,o),
(1132,1207,o),
(1070,1246,cs),
(1008,1284,o),
(915,1303,o),
(791,1303,cs),
(651,1303,ls),
(527,1303,o),
(434,1284,o),
(372,1246,cs),
(310,1207,o),
(279,1148,o),
(279,1071,cs),
(279,838,ls),
(279,807,o),
(293,783,o),
(320,768,cs),
(347,753,o),
(388,745,o),
(442,745,cs),
(489,745,o),
(524,757,o),
(547,780,cs),
(570,803,o),
(582,838,o),
(582,884,cs),
(582,923,o),
(570,952,o),
(547,972,cs),
(524,991,o),
(489,1001,o),
(442,1001,c),
(442,1071,ls),
(442,1117,o),
(459,1152,o),
(494,1175,cs),
(529,1198,o),
(582,1210,o),
(651,1210,cs),
(791,1210,ls),
(860,1210,o),
(913,1198,o),
(948,1175,cs),
(983,1152,o),
(1001,1117,o),
(1001,1071,cs),
(1001,925,ls),
(1001,840,o),
(984,789,o),
(949,772,cs),
(279,438,l),
(279,278,ls)
);
},
{
closed = 1;
nodes = (
(442,908,l),
(457,908,o),
(469,906,o),
(476,902,cs),
(485,898,o),
(489,892,o),
(489,884,cs),
(489,869,o),
(485,858,o),
(476,850,cs),
(469,843,o),
(457,839,o),
(442,839,c)
);
}
);
userData = {
assembly = "NPUSHB[ ]	/* 26 values pushed */
6 1 2 4 5 1 3 2 1 1 0 3 29 24 2 5 7 95 88 76 70 4 10 11 5 76 
MPPEM[ ]	/* MeasurePixelPerEm */
PUSHB[ ]	/* 1 value pushed */
17 
LT[ ]	/* LessThan */
IF[ ]	/* If */
NPUSHB[ ]	/* 78 values pushed */
0 0 3 9 3 0 9 128 0 7 6 5 5 7 114 0 11 8 10 8 11 10 128 0 1 0 4 2 1 4 105 0 2 0 3 0 2 3 105 0 5 0 8 11 5 8 106 0 6 6 9 97 0 9 9 17 77 0 10 10 14 97 0 14 14 19 77 0 13 13 12 98 0 12 12 19 12 78 
ELSE[ ]	/* Else */
MPPEM[ ]	/* MeasurePixelPerEm */
PUSHB[ ]	/* 1 value pushed */
22 
LT[ ]	/* LessThan */
IF[ ]	/* If */
NPUSHB[ ]	/* 79 values pushed */
0 0 3 9 3 0 9 128 0 7 6 5 6 7 5 128 0 11 8 10 8 11 10 128 0 1 0 4 2 1 4 105 0 2 0 3 0 2 3 105 0 5 0 8 11 5 8 106 0 6 6 9 97 0 9 9 17 77 0 10 10 14 97 0 14 14 19 77 0 13 13 12 98 0 12 12 19 12 78 
ELSE[ ]	/* Else */
NPUSHB[ ]	/* 76 values pushed */
0 0 3 9 3 0 9 128 0 7 6 5 6 7 5 128 0 11 8 10 8 11 10 128 0 1 0 4 2 1 4 105 0 2 0 3 0 2 3 105 0 5 0 8 11 5 8 106 0 13 0 12 13 12 102 0 6 6 9 97 0 9 9 17 77 0 10 10 14 97 0 14 14 19 14 78 
EIF[ ]	/* EndIf */
EIF[ ]	/* EndIf */
NPUSHB[ ]	/* 24 values pushed */
91 89 86 85 84 82 78 77 75 74 63 60 38 20 59 18 21 33 21 20 18 15 7 31 
CALL[ ]	/* CallFunction */";
};
width = 1442;
}
);
note = uni17B1;
unicode = 6065;
},
{
glyphname = uni17B2;
lastChange = "2022-11-15 14:54:54 +0000";
layers = (
{
layerId = m01;
shapes = (
{
closed = 1;
nodes = (
(946,326,o),
(967,318,o),
(981,303,cs),
(994,287,o),
(1001,264,o),
(1001,233,cs),
(1001,187,o),
(984,152,o),
(949,128,cs),
(914,105,o),
(861,94,o),
(792,94,cs),
(651,94,ls),
(582,94,o),
(529,105,o),
(494,128,cs),
(459,152,o),
(442,187,o),
(442,233,cs),
(442,1075,l),
(637,1163,l),
(1000,998,l),
(1163,1103,l),
(721,1303,l),
(279,1104,l),
(279,233,ls),
(279,155,o),
(310,97,o),
(372,59,cs),
(434,20,o),
(527,0,o),
(651,0,cs),
(792,0,ls),
(915,0,o),
(1008,20,o),
(1070,59,cs),
(1132,97,o),
(1163,155,o),
(1163,233,cs),
(1163,342,o),
(1121,407,o),
(1036,428,c),
(1077,461,ls),
(1134,504,o),
(1163,568,o),
(1163,652,cs),
(1163,722,o),
(1142,774,o),
(1099,809,cs),
(1057,844,o),
(993,861,o),
(907,861,cs),
(826,861,o),
(766,848,o),
(726,823,cs),
(686,797,o),
(666,758,o),
(666,706,cs),
(666,652,o),
(680,611,o),
(707,584,cs),
(735,557,o),
(777,543,o),
(832,543,cs),
(869,543,o),
(887,579,o),
(887,652,c),
(848,652,o),
(829,670,o),
(829,706,cs),
(829,727,o),
(836,742,o),
(849,753,cs),
(862,764,o),
(881,769,o),
(907,769,cs),
(939,769,o),
(963,759,o),
(978,739,cs),
(993,720,o),
(1001,691,o),
(1001,652,cs),
(1001,585,o),
(984,539,o),
(951,514,cs),
(667,286,l),
(667,285,ls),
(667,240,o),
(703,217,o),
(776,217,c),
(910,326,l),
(919,326,ls)
);
}
);
userData = {
assembly = "NPUSHB[ ]	/* 78 values pushed */
36 1 7 3 4 1 0 7 2 76 54 53 52 51 50 49 6 4 74 8 1 7 3 0 3 7 0 128 0 0 6 3 0 6 126 0 4 0 1 2 4 1 105 0 2 0 3 7 2 3 105 0 6 6 5 97 0 5 5 19 5 78 0 0 0 67 0 67 61 60 38 33 21 40 18 9 7 29 
CALL[ ]	/* CallFunction */";
};
width = 1442;
}
);
note = uni17B2;
unicode = 6066;
},
{
glyphname = uni17B3;
lastChange = "2022-11-15 14:54:54 +0000";
layers = (
{
layerId = m01;
shapes = (
{
closed = 1;
nodes = (
(542,1536,o),
(610,1522,o),
(666,1495,cs),
(859,1395,ls),
(900,1375,o),
(935,1365,o),
(966,1365,cs),
(978,1365,o),
(989,1366,o),
(1000,1369,cs),
(1039,1380,o),
(1069,1410,o),
(1092,1459,c),
(1065,1494,o),
(1051,1533,o),
(1051,1576,cs),
(1051,1605,o),
(1057,1635,o),
(1069,1666,c),
(1089,1735,o),
(1136,1769,o),
(1210,1769,cs),
(1242,1769,o),
(1258,1785,o),
(1258,1816,cs),
(1258,1847,o),
(1242,1863,o),
(1209,1863,cs),
(1076,1862,o),
(992,1821,o),
(956,1739,cs),
(933,1688,o),
(921,1642,o),
(921,1602,cs),
(921,1579,o),
(925,1557,o),
(934,1538,c),
(793,1611,ls),
(710,1654,o),
(619,1676,o),
(522,1676,c),
(186,1489,l),
(186,1396,l),
(296,1327,ls),
(335,1302,o),
(369,1290,o),
(398,1290,cs),
(415,1290,o),
(432,1294,o),
(447,1302,c),
(292,1442,l),
(462,1536,l)
);
},
{
closed = 1;
nodes = (
(279,186,o),
(300,117,o),
(343,71,cs),
(386,24,o),
(451,1,o),
(536,1,cs),
(564,1,l),
(1001,250,l),
(1001,117,ls),
(1001,86,o),
(962,70,o),
(884,70,c),
(884,-8,o),
(923,-47,o),
(1001,-47,cs),
(1055,-47,o),
(1095,-33,o),
(1122,-6,cs),
(1149,21,o),
(1163,61,o),
(1163,115,cs),
(1163,535,l),
(1001,535,l),
(1001,357,l),
(541,94,l),
(508,94,o),
(483,109,o),
(467,140,cs),
(450,171,o),
(442,216,o),
(442,277,cs),
(442,415,l),
(1018,702,ls),
(1115,751,o),
(1163,826,o),
(1163,925,cs),
(1163,1071,ls),
(1163,1148,o),
(1132,1207,o),
(1070,1246,cs),
(1008,1284,o),
(915,1303,o),
(791,1303,cs),
(651,1303,ls),
(527,1303,o),
(434,1284,o),
(372,1246,cs),
(310,1207,o),
(279,1148,o),
(279,1071,cs),
(279,838,ls),
(279,807,o),
(293,783,o),
(320,768,cs),
(347,753,o),
(388,745,o),
(442,745,cs),
(489,745,o),
(524,757,o),
(547,780,cs),
(570,803,o),
(582,838,o),
(582,884,cs),
(582,923,o),
(570,952,o),
(547,972,cs),
(524,991,o),
(489,1001,o),
(442,1001,c),
(442,1071,ls),
(442,1117,o),
(459,1152,o),
(494,1175,cs),
(529,1198,o),
(582,1210,o),
(651,1210,cs),
(791,1210,ls),
(860,1210,o),
(913,1198,o),
(948,1175,cs),
(983,1152,o),
(1001,1117,o),
(1001,1071,cs),
(1001,925,ls),
(1001,840,o),
(984,789,o),
(949,772,cs),
(279,438,l),
(279,278,ls)
);
},
{
closed = 1;
nodes = (
(442,908,l),
(457,908,o),
(469,906,o),
(476,902,cs),
(485,898,o),
(489,892,o),
(489,884,cs),
(489,869,o),
(485,858,o),
(476,850,cs),
(469,843,o),
(457,839,o),
(442,839,c)
);
}
);
userData = {
assembly = "NPUSHB[ ]	/* 29 values pushed */
12 1 5 1 28 8 7 1 4 4 5 2 1 0 10 42 37 2 6 8 108 101 89 83 4 11 12 5 76 
MPPEM[ ]	/* MeasurePixelPerEm */
PUSHB[ ]	/* 1 value pushed */
17 
LT[ ]	/* LessThan */
IF[ ]	/* If */
NPUSHB[ ]	/* 87 values pushed */
0 4 5 10 5 4 10 128 0 0 10 7 10 0 7 128 0 8 7 6 6 8 114 0 12 9 11 9 12 11 128 0 2 0 3 1 2 3 105 0 1 16 1 5 4 1 5 105 0 6 0 9 12 6 9 106 0 7 7 10 97 0 10 10 17 77 0 11 11 15 97 0 15 15 19 77 0 14 14 13 98 0 13 13 19 13 78 
ELSE[ ]	/* Else */
MPPEM[ ]	/* MeasurePixelPerEm */
PUSHB[ ]	/* 1 value pushed */
22 
LT[ ]	/* LessThan */
IF[ ]	/* If */
NPUSHB[ ]	/* 88 values pushed */
0 4 5 10 5 4 10 128 0 0 10 7 10 0 7 128 0 8 7 6 7 8 6 128 0 12 9 11 9 12 11 128 0 2 0 3 1 2 3 105 0 1 16 1 5 4 1 5 105 0 6 0 9 12 6 9 106 0 7 7 10 97 0 10 10 17 77 0 11 11 15 97 0 15 15 19 77 0 14 14 13 98 0 13 13 19 13 78 
ELSE[ ]	/* Else */
NPUSHB[ ]	/* 85 values pushed */
0 4 5 10 5 4 10 128 0 0 10 7 10 0 7 128 0 8 7 6 7 8 6 128 0 12 9 11 9 12 11 128 0 2 0 3 1 2 3 105 0 1 16 1 5 4 1 5 105 0 6 0 9 12 6 9 106 0 14 0 13 14 13 102 0 7 7 10 97 0 10 10 17 77 0 11 11 15 97 0 15 15 19 15 78 
EIF[ ]	/* EndIf */
EIF[ ]	/* EndIf */
NPUSHB[ ]	/* 34 values pushed */
0 0 104 102 99 98 97 95 91 90 88 87 76 73 66 64 58 57 53 50 39 38 0 36 0 36 40 34 39 20 35 17 7 27 
CALL[ ]	/* CallFunction */";
};
width = 1442;
}
);
note = uni17B3;
unicode = 6067;
},
{
glyphname = uni17A3;
lastChange = "2022-11-15 14:54:54 +0000";
layers = (
{
layerId = m01;
shapes = (
{
closed = 1;
nodes = (
(256,195,o),
(238,224,o),
(227,248,cs),
(215,271,o),
(209,290,o),
(209,303,cs),
(209,318,o),
(213,330,o),
(220,337,cs),
(228,345,o),
(240,349,o),
(256,349,cs),
(279,349,l),
(279,162,l)
);
},
{
closed = 1;
nodes = (
(116,280,o),
(123,253,o),
(136,222,cs),
(150,191,o),
(170,156,o),
(197,117,cs),
(279,0,l),
(442,0,l),
(442,559,l),
(1000,559,l),
(1000,442,l),
(977,442,ls),
(930,442,o),
(896,431,o),
(873,408,cs),
(849,384,o),
(837,349,o),
(837,303,cs),
(837,280,o),
(844,253,o),
(858,222,cs),
(871,191,o),
(891,156,o),
(918,117,cs),
(1000,0,l),
(1163,0,l),
(1163,869,l),
(943,1009,l),
(1033,1125,l),
(1106,1079,ls),
(1140,1058,o),
(1172,1047,o),
(1202,1047,cs),
(1233,1047,o),
(1275,1094,o),
(1326,1187,c),
(1280,1187,ls),
(1254,1187,o),
(1222,1199,o),
(1184,1223,cs),
(1054,1303,l),
(837,1025,l),
(837,965,l),
(1000,862,l),
(1000,652,l),
(442,652,l),
(442,869,l),
(221,1009,l),
(311,1125,l),
(385,1079,ls),
(418,1058,o),
(450,1047,o),
(481,1047,cs),
(512,1047,o),
(553,1094,o),
(605,1187,c),
(558,1187,ls),
(532,1187,o),
(500,1199,o),
(462,1223,cs),
(333,1303,l),
(116,1025,l),
(116,965,l),
(279,862,l),
(279,442,l),
(256,442,ls),
(209,442,o),
(174,431,o),
(151,408,cs),
(128,384,o),
(116,349,o),
(116,303,cs)
);
},
{
closed = 1;
nodes = (
(931,318,o),
(935,330,o),
(942,337,cs),
(950,345,o),
(962,349,o),
(977,349,cs),
(1000,349,l),
(1000,162,l),
(977,195,o),
(959,224,o),
(948,248,cs),
(937,271,o),
(931,290,o),
(931,303,cs)
);
}
);
userData = {
assembly = "NPUSHB[ ]	/* 95 values pushed */
51 34 2 4 3 53 52 41 40 39 36 35 24 23 22 10 5 4 10 0 2 8 0 3 76 42 25 2 3 74 6 1 3 7 1 4 5 3 4 105 0 5 0 10 2 5 10 103 9 12 2 2 1 1 0 8 2 0 105 11 1 8 8 19 8 78 21 20 69 68 67 66 65 63 55 54 49 47 46 44 38 37 32 30 29 27 20 77 21 77 40 33 13 7 24 
CALL[ ]	/* CallFunction */";
};
width = 1442;
}
);
note = uni17A3;
unicode = 6051;
},
{
glyphname = uni17A4;
lastChange = "2022-11-15 14:54:54 +0000";
layers = (
{
layerId = m01;
shapes = (
{
closed = 1;
nodes = (
(256,195,o),
(238,224,o),
(227,248,cs),
(215,271,o),
(209,290,o),
(209,303,cs),
(209,318,o),
(213,330,o),
(220,337,cs),
(228,345,o),
(240,349,o),
(256,349,cs),
(279,349,l),
(279,162,l)
);
},
{
closed = 1;
nodes = (
(116,280,o),
(123,253,o),
(136,222,cs),
(150,191,o),
(170,156,o),
(197,117,cs),
(279,0,l),
(442,0,l),
(442,559,l),
(1000,559,l),
(1000,442,l),
(977,442,ls),
(930,442,o),
(896,431,o),
(873,408,cs),
(849,384,o),
(837,349,o),
(837,303,cs),
(837,280,o),
(844,253,o),
(858,222,cs),
(871,191,o),
(891,156,o),
(918,117,cs),
(1000,0,l),
(1163,0,l),
(1163,869,l),
(966,996,l),
(1202,1152,l),
(1722,984,l),
(1722,0,l),
(1885,0,l),
(1885,1103,l),
(1264,1303,l),
(837,1025,l),
(837,965,l),
(1000,862,l),
(1000,652,l),
(442,652,l),
(442,869,l),
(221,1009,l),
(311,1125,l),
(385,1079,ls),
(418,1058,o),
(450,1047,o),
(481,1047,cs),
(512,1047,o),
(553,1094,o),
(605,1187,c),
(558,1187,ls),
(532,1187,o),
(500,1199,o),
(462,1223,cs),
(333,1303,l),
(116,1025,l),
(116,965,l),
(279,862,l),
(279,442,l),
(256,442,ls),
(209,442,o),
(174,431,o),
(151,408,cs),
(128,384,o),
(116,349,o),
(116,303,cs)
);
},
{
closed = 1;
nodes = (
(931,318,o),
(935,330,o),
(942,337,cs),
(950,345,o),
(962,349,o),
(977,349,cs),
(1000,349,l),
(1000,162,l),
(977,195,o),
(959,224,o),
(948,248,cs),
(937,271,o),
(931,290,o),
(931,303,cs)
);
}
);
userData = {
assembly = "NPUSHB[ ]	/* 82 values pushed */
71 30 26 3 10 9 73 72 61 60 59 32 31 29 24 23 22 11 2 10 10 0 2 3 0 3 76 62 25 2 9 74 0 9 0 10 2 9 10 105 0 2 0 6 5 2 6 103 8 1 5 1 1 0 3 5 0 105 7 4 2 3 3 19 3 78 69 67 66 64 40 17 17 40 21 22 23 40 33 11 7 31 
CALL[ ]	/* CallFunction */";
};
width = 2164;
}
);
note = uni17A4;
unicode = 6052;
},
{
glyphname = uni17B6;
lastChange = "2022-11-15 14:54:54 +0000";
layers = (
{
layerId = m01;
shapes = (
{
closed = 1;
nodes = (
(-83,1163,l),
(280,998,l),
(280,0,l),
(443,0,l),
(443,1103,l),
(1,1303,l),
(-370,1136,l),
(-279,1075,l)
);
}
);
userData = {
assembly = "NPUSHB[ ]	/* 18 values pushed */
7 6 5 2 1 5 0 74 0 0 0 19 0 78 19 1 7 23 
CALL[ ]	/* CallFunction */";
};
width = 721;
}
);
note = uni17B6;
unicode = 6070;
},
{
glyphname = uni17BF;
lastChange = "2022-11-15 14:54:54 +0000";
layers = (
{
layerId = m01;
shapes = (
{
closed = 1;
nodes = (
(-147,1755,o),
(-93,1747,o),
(-46,1731,cs),
(0,1716,o),
(39,1693,o),
(70,1662,c),
(-256,1662,ls),
(-271,1662,o),
(-283,1666,o),
(-291,1674,cs),
(-298,1681,o),
(-302,1693,o),
(-302,1708,cs),
(-302,1723,o),
(-294,1735,o),
(-279,1743,cs),
(-264,1751,o),
(-240,1755,o),
(-209,1755,cs)
);
},
{
closed = 1;
nodes = (
(-442,-403,o),
(-415,-462,o),
(-360,-501,cs),
(-306,-540,o),
(-225,-559,o),
(-116,-559,cs),
(117,-559,ls),
(225,-559,o),
(306,-540,o),
(360,-501,cs),
(415,-462,o),
(442,-403,o),
(442,-326,cs),
(442,1383,ls),
(442,1444,o),
(427,1498,o),
(396,1545,cs),
(365,1591,o),
(318,1630,o),
(256,1662,c),
(256,1941,l),
(163,1941,l),
(163,1708,l),
(70,1778,l),
(70,1941,l),
(-23,1941,l),
(-23,1821,l),
(-54,1839,o),
(-116,1848,o),
(-209,1848,cs),
(-271,1848,o),
(-318,1836,o),
(-349,1813,cs),
(-380,1790,o),
(-395,1755,o),
(-395,1708,cs),
(-395,1661,o),
(-383,1626,o),
(-360,1603,cs),
(-337,1580,o),
(-303,1569,o),
(-256,1569,cs),
(163,1569,ls),
(202,1569,o),
(231,1553,o),
(251,1522,cs),
(270,1491,o),
(279,1445,o),
(279,1383,cs),
(279,-326,ls),
(279,-373,o),
(265,-407,o),
(238,-430,cs),
(211,-453,o),
(171,-465,o),
(117,-465,cs),
(-116,-465,ls),
(-171,-465,o),
(-211,-453,o),
(-238,-430,cs),
(-265,-407,o),
(-279,-373,o),
(-279,-326,cs),
(-279,-93,l),
(-442,-93,l),
(-442,-326,ls)
);
}
);
userData = {
assembly = "NPUSHB[ ]	/* 16 values pushed */
54 51 2 0 6 55 1 1 0 2 76 58 1 1 1 75 
MPPEM[ ]	/* MeasurePixelPerEm */
PUSHB[ ]	/* 1 value pushed */
9 
LT[ ]	/* LessThan */
IF[ ]	/* If */
NPUSHB[ ]	/* 43 values pushed */
8 1 7 6 1 7 112 0 3 5 4 5 3 4 128 0 6 9 1 0 1 6 0 105 0 1 0 5 3 1 5 104 0 4 4 2 95 0 2 2 20 2 78 
ELSE[ ]	/* Else */
MPPEM[ ]	/* MeasurePixelPerEm */
PUSHB[ ]	/* 1 value pushed */
12 
LT[ ]	/* LessThan */
IF[ ]	/* If */
NPUSHB[ ]	/* 42 values pushed */
8 1 7 6 7 133 0 3 5 4 5 3 4 128 0 6 9 1 0 1 6 0 105 0 1 0 5 3 1 5 104 0 4 4 2 95 0 2 2 20 2 78 
ELSE[ ]	/* Else */
MPPEM[ ]	/* MeasurePixelPerEm */
PUSHB[ ]	/* 1 value pushed */
15 
LT[ ]	/* LessThan */
IF[ ]	/* If */
NPUSHB[ ]	/* 39 values pushed */
8 1 7 6 7 133 0 6 9 1 0 1 6 0 105 0 1 0 5 3 1 5 104 0 3 3 18 77 0 4 4 2 95 0 2 2 20 2 78 
ELSE[ ]	/* Else */
NPUSHB[ ]	/* 36 values pushed */
8 1 7 6 7 133 0 6 9 1 0 1 6 0 105 0 1 0 5 3 1 5 104 0 4 0 2 4 2 99 0 3 3 18 3 78 
EIF[ ]	/* EndIf */
EIF[ ]	/* EndIf */
EIF[ ]	/* EndIf */
NPUSHB[ ]	/* 25 values pushed */
1 0 57 56 53 52 50 48 42 39 32 29 25 24 20 17 9 7 0 12 1 12 10 7 22 
CALL[ ]	/* CallFunction */";
};
width = 721;
}
);
note = uni17BF;
unicode = 6079;
},
{
glyphname = uni17C0;
lastChange = "2022-11-15 14:54:54 +0000";
layers = (
{
layerId = m01;
shapes = (
{
closed = 1;
nodes = (
(279,-373,o),
(265,-407,o),
(238,-430,cs),
(211,-453,o),
(171,-465,o),
(117,-465,cs),
(-116,-465,ls),
(-171,-465,o),
(-211,-453,o),
(-238,-430,cs),
(-265,-407,o),
(-279,-373,o),
(-279,-326,cs),
(-279,-93,l),
(-442,-93,l),
(-442,-326,ls),
(-442,-403,o),
(-415,-462,o),
(-360,-501,cs),
(-306,-540,o),
(-225,-559,o),
(-116,-559,cs),
(117,-559,ls),
(225,-559,o),
(306,-540,o),
(360,-501,cs),
(415,-462,o),
(442,-403,o),
(442,-326,cs),
(442,1374,ls),
(442,1457,o),
(419,1520,o),
(373,1561,cs),
(326,1603,o),
(256,1624,o),
(163,1624,cs),
(-70,1624,ls),
(-108,1624,o),
(-137,1632,o),
(-157,1647,cs),
(-176,1662,o),
(-186,1686,o),
(-186,1717,cs),
(-186,1800,ls),
(-186,1847,o),
(-198,1882,o),
(-221,1905,cs),
(-244,1928,o),
(-280,1940,o),
(-327,1940,cs),
(-365,1940,o),
(-394,1932,o),
(-413,1917,cs),
(-432,1901,o),
(-442,1878,o),
(-442,1847,c),
(-411,1847,o),
(-387,1843,o),
(-372,1836,cs),
(-357,1828,o),
(-349,1816,o),
(-349,1800,cs),
(-349,1717,ls),
(-349,1655,o),
(-326,1608,o),
(-279,1577,cs),
(-232,1546,o),
(-163,1530,o),
(-70,1530,cs),
(163,1530,ls),
(202,1530,o),
(231,1517,o),
(251,1491,cs),
(270,1465,o),
(279,1426,o),
(279,1374,cs),
(279,-326,ls)
);
}
);
userData = {
assembly = "MPPEM[ ]	/* MeasurePixelPerEm */
PUSHB[ ]	/* 1 value pushed */
12 
LT[ ]	/* LessThan */
IF[ ]	/* If */
NPUSHB[ ]	/* 37 values pushed */
0 2 1 2 133 0 1 3 1 133 0 5 0 6 0 5 6 128 0 3 0 0 5 3 0 103 0 6 6 4 95 0 4 4 20 4 78 
ELSE[ ]	/* Else */
MPPEM[ ]	/* MeasurePixelPerEm */
PUSHB[ ]	/* 1 value pushed */
15 
LT[ ]	/* LessThan */
IF[ ]	/* If */
NPUSHB[ ]	/* 34 values pushed */
0 2 1 2 133 0 1 3 1 133 0 3 0 0 5 3 0 103 0 5 5 18 77 0 6 6 4 95 0 4 4 20 4 78 
ELSE[ ]	/* Else */
NPUSHB[ ]	/* 31 values pushed */
0 2 1 2 133 0 1 3 1 133 0 3 0 0 5 3 0 103 0 6 0 4 6 4 99 0 5 5 18 5 78 
EIF[ ]	/* EndIf */
EIF[ ]	/* EndIf */
NPUSHB[ ]	/* 10 values pushed */
52 20 55 55 35 23 52 7 7 29 
CALL[ ]	/* CallFunction */";
};
width = 721;
}
);
note = uni17C0;
unicode = 6080;
},
{
glyphname = uni17C1;
lastChange = "2022-11-15 14:54:54 +0000";
layers = (
{
layerId = m01;
shapes = (
{
closed = 1;
nodes = (
(496,1042,o),
(528,1031,o),
(558,1031,cs),
(589,1031,o),
(623,1085,o),
(659,1194,c),
(609,1194,ls),
(576,1194,o),
(545,1203,o),
(516,1221,cs),
(388,1303,l),
(279,1303,l),
(279,0,l),
(442,0,l),
(512,80,ls),
(543,116,o),
(566,153,o),
(582,190,cs),
(598,227,o),
(606,265,o),
(606,303,cs),
(606,349,o),
(592,384,o),
(565,407,cs),
(538,430,o),
(497,442,o),
(443,442,c),
(443,1076,l),
(461,1064,ls)
);
},
{
closed = 1;
nodes = (
(443,348,l),
(466,348,o),
(483,344,o),
(495,337,cs),
(506,330,o),
(512,318,o),
(512,303,cs),
(512,276,o),
(506,250,o),
(495,223,cs),
(483,196,o),
(466,170,o),
(443,144,c)
);
}
);
userData = {
assembly = "NPUSHB[ ]	/* 52 values pushed */
1 1 4 3 23 1 1 5 2 76 0 3 0 4 0 3 4 105 0 0 6 1 5 1 0 5 105 0 2 2 17 77 0 1 1 19 1 78 22 22 22 30 22 30 33 34 17 24 18 7 7 27 
CALL[ ]	/* CallFunction */";
};
width = 721;
}
);
note = uni17C1;
unicode = 6081;
},
{
glyphname = uni17C2;
lastChange = "2022-11-15 14:54:54 +0000";
layers = (
{
layerId = m01;
shapes = (
{
closed = 1;
nodes = (
(344,1567,o),
(335,1591,o),
(318,1606,cs),
(301,1621,o),
(276,1629,o),
(241,1629,cs),
(207,1629,o),
(182,1619,o),
(165,1600,cs),
(148,1581,o),
(139,1552,o),
(139,1513,cs),
(139,1474,o),
(160,1444,o),
(203,1425,cs),
(246,1406,o),
(310,1396,o),
(395,1396,cs),
(488,1396,o),
(558,1415,o),
(604,1454,cs),
(651,1493,o),
(674,1552,o),
(674,1629,cs),
(674,1706,o),
(655,1765,o),
(617,1804,cs),
(579,1843,o),
(522,1862,o),
(446,1862,cs),
(378,1862,o),
(344,1831,o),
(344,1769,c),
(400,1769,o),
(442,1757,o),
(469,1733,cs),
(496,1710,o),
(510,1676,o),
(510,1629,cs),
(510,1582,o),
(501,1548,o),
(482,1525,cs),
(463,1501,o),
(434,1489,o),
(395,1489,cs),
(327,1489,o),
(293,1497,o),
(293,1513,cs),
(293,1528,o),
(310,1536,o),
(344,1536,c)
);
},
{
closed = 1;
nodes = (
(442,0,l),
(511,80,ls),
(542,116,o),
(566,153,o),
(582,190,cs),
(597,227,o),
(605,265,o),
(605,303,cs),
(605,349,o),
(591,384,o),
(564,407,cs),
(537,430,o),
(496,442,o),
(442,442,c),
(442,1076,l),
(461,1064,ls),
(495,1042,o),
(527,1031,o),
(558,1031,cs),
(589,1031,o),
(622,1085,o),
(658,1194,c),
(608,1194,ls),
(575,1194,o),
(545,1203,o),
(516,1221,cs),
(388,1303,l),
(279,1303,l),
(279,0,l)
);
},
{
closed = 1;
nodes = (
(442,348,l),
(465,348,o),
(483,344,o),
(495,337,cs),
(506,330,o),
(511,318,o),
(511,303,cs),
(511,276,o),
(506,250,o),
(495,223,cs),
(483,196,o),
(465,170,o),
(442,144,c)
);
}
);
userData = {
assembly = "NPUSHB[ ]	/* 10 values pushed */
35 1 10 9 57 1 7 11 2 76 
MPPEM[ ]	/* MeasurePixelPerEm */
PUSHB[ ]	/* 1 value pushed */
18 
LT[ ]	/* LessThan */
IF[ ]	/* If */
NPUSHB[ ]	/* 58 values pushed */
0 5 2 0 1 5 114 0 0 1 2 0 1 126 0 3 0 2 5 3 2 105 0 1 0 4 8 1 4 106 0 9 0 10 6 9 10 105 0 6 12 1 11 7 6 11 105 0 8 8 17 77 0 7 7 19 7 78 
ELSE[ ]	/* Else */
NPUSHB[ ]	/* 59 values pushed */
0 5 2 0 2 5 0 128 0 0 1 2 0 1 126 0 3 0 2 5 3 2 105 0 1 0 4 8 1 4 106 0 9 0 10 6 9 10 105 0 6 12 1 11 7 6 11 105 0 8 8 17 77 0 7 7 19 7 78 
EIF[ ]	/* EndIf */
NPUSHB[ ]	/* 22 values pushed */
56 56 56 64 56 64 55 53 52 50 17 24 21 38 38 33 22 34 16 13 7 31 
CALL[ ]	/* CallFunction */";
};
width = 721;
}
);
note = uni17C2;
unicode = 6082;
},
{
glyphname = uni17C3;
lastChange = "2022-11-15 14:54:54 +0000";
layers = (
{
layerId = m01;
shapes = (
{
closed = 1;
nodes = (
(221,1583,o),
(167,1552,o),
(167,1489,cs),
(167,1427,o),
(235,1396,o),
(372,1396,cs),
(458,1396,o),
(522,1412,o),
(565,1443,cs),
(608,1474,o),
(629,1520,o),
(629,1583,cs),
(629,1645,o),
(608,1691,o),
(565,1722,cs),
(522,1753,o),
(458,1769,o),
(372,1769,cs),
(330,1769,l),
(330,1825,o),
(318,1867,o),
(294,1894,cs),
(271,1922,o),
(235,1936,o),
(186,1936,cs),
(124,1936,o),
(93,1905,o),
(93,1843,c),
(142,1843,o),
(167,1818,o),
(167,1769,cs),
(167,1707,o),
(221,1676,o),
(330,1676,cs),
(372,1676,ls),
(403,1676,o),
(427,1668,o),
(442,1652,cs),
(457,1637,o),
(465,1614,o),
(465,1583,cs),
(465,1552,o),
(457,1528,o),
(442,1513,cs),
(427,1497,o),
(403,1489,o),
(372,1489,cs),
(344,1489,o),
(330,1520,o),
(330,1583,c)
);
},
{
closed = 1;
nodes = (
(442,0,l),
(512,80,ls),
(543,116,o),
(566,153,o),
(583,190,cs),
(598,227,o),
(606,265,o),
(606,303,cs),
(606,349,o),
(592,384,o),
(565,407,cs),
(538,430,o),
(497,442,o),
(443,442,c),
(443,1076,l),
(462,1064,ls),
(496,1042,o),
(528,1031,o),
(558,1031,cs),
(589,1031,o),
(623,1085,o),
(659,1194,c),
(609,1194,ls),
(576,1194,o),
(545,1203,o),
(517,1221,cs),
(388,1303,l),
(279,1303,l),
(279,0,l)
);
},
{
closed = 1;
nodes = (
(443,348,l),
(466,348,o),
(483,344,o),
(495,337,cs),
(506,330,o),
(512,318,o),
(512,303,cs),
(512,276,o),
(506,250,o),
(495,223,cs),
(483,196,o),
(466,170,o),
(443,144,c)
);
}
);
userData = {
assembly = "NPUSHB[ ]	/* 10 values pushed */
35 1 11 10 57 1 8 12 2 76 
MPPEM[ ]	/* MeasurePixelPerEm */
PUSHB[ ]	/* 1 value pushed */
28 
LT[ ]	/* LessThan */
IF[ ]	/* If */
NPUSHB[ ]	/* 60 values pushed */
13 1 6 1 0 0 6 114 0 3 0 2 4 3 2 105 0 4 0 1 6 4 1 105 0 0 0 5 9 0 5 106 0 10 0 11 7 10 11 105 0 7 14 1 12 8 7 12 105 0 9 9 17 77 0 8 8 19 8 78 
ELSE[ ]	/* Else */
NPUSHB[ ]	/* 61 values pushed */
13 1 6 1 0 1 6 0 128 0 3 0 2 4 3 2 105 0 4 0 1 6 4 1 105 0 0 0 5 9 0 5 106 0 10 0 11 7 10 11 105 0 7 14 1 12 8 7 12 105 0 9 9 17 77 0 8 8 19 8 78 
EIF[ ]	/* EndIf */
NPUSHB[ ]	/* 31 values pushed */
56 56 0 0 56 64 56 64 55 53 52 50 48 47 46 45 37 36 0 33 0 33 38 35 33 18 54 33 15 7 28 
CALL[ ]	/* CallFunction */";
};
width = 721;
}
);
note = uni17C3;
unicode = 6083;
},
{
glyphname = uni17C4;
lastChange = "2022-11-15 14:54:54 +0000";
layers = (
{
layerId = m01;
shapes = (
{
closed = 1;
nodes = (
(-83,1163,l),
(280,998,l),
(280,0,l),
(443,0,l),
(443,1103,l),
(1,1303,l),
(-370,1136,l),
(-279,1075,l)
);
}
);
userData = {
assembly = "NPUSHB[ ]	/* 18 values pushed */
7 6 5 2 1 5 0 74 0 0 0 19 0 78 19 1 7 23 
CALL[ ]	/* CallFunction */";
};
width = 721;
}
);
note = uni17C4;
unicode = 6084;
},
{
glyphname = uni17C5;
lastChange = "2022-11-15 14:54:54 +0000";
layers = (
{
layerId = m01;
shapes = (
{
closed = 1;
nodes = (
(474,1086,o),
(489,1133,o),
(489,1164,cs),
(489,1536,ls),
(489,1598,o),
(479,1645,o),
(458,1676,cs),
(437,1707,o),
(405,1722,o),
(362,1722,cs),
(319,1722,o),
(287,1714,o),
(266,1699,cs),
(245,1684,o),
(234,1660,o),
(234,1629,c),
(265,1629,o),
(289,1621,o),
(304,1606,cs),
(319,1591,o),
(327,1567,o),
(327,1536,cs),
(327,1155,l),
(1,1303,l),
(-370,1136,l),
(-279,1075,l),
(-83,1163,l),
(280,998,l),
(280,0,l),
(443,0,l),
(443,1024,l)
);
}
);
userData = {
assembly = "NPUSHB[ ]	/* 34 values pushed */
8 7 6 5 4 3 0 7 0 1 1 76 0 2 1 2 133 0 1 0 1 133 0 0 0 19 0 78 35 26 17 3 7 25 
CALL[ ]	/* CallFunction */";
};
width = 721;
}
);
note = uni17C5;
unicode = 6085;
},
{
glyphname = uni17C7;
lastChange = "2022-11-15 14:54:54 +0000";
layers = (
{
layerId = m01;
shapes = (
{
closed = 1;
nodes = (
(395,1125,o),
(403,1148,o),
(419,1164,cs),
(434,1179,o),
(457,1187,o),
(488,1187,cs),
(519,1187,o),
(543,1179,o),
(558,1164,cs),
(574,1148,o),
(582,1125,o),
(582,1094,cs),
(582,1063,o),
(574,1039,o),
(558,1024,cs),
(543,1009,o),
(519,1001,o),
(488,1001,cs),
(457,1001,o),
(434,1009,o),
(419,1024,cs),
(403,1039,o),
(395,1063,o),
(395,1094,cs)
);
},
{
closed = 1;
nodes = (
(279,139,o),
(296,87,o),
(331,52,cs),
(366,17,o),
(418,0,o),
(488,0,cs),
(559,0,o),
(611,17,o),
(646,52,cs),
(681,87,o),
(698,139,o),
(698,209,cs),
(698,280,o),
(681,332,o),
(646,367,cs),
(611,402,o),
(559,419,o),
(488,419,cs),
(418,419,o),
(366,402,o),
(331,367,cs),
(296,332,o),
(279,280,o),
(279,209,cs)
);
},
{
closed = 1;
nodes = (
(279,1024,o),
(296,971,o),
(331,936,cs),
(366,901,o),
(418,884,o),
(488,884,cs),
(559,884,o),
(611,901,o),
(646,936,cs),
(681,971,o),
(698,1024,o),
(698,1094,cs),
(698,1164,o),
(681,1216,o),
(646,1251,cs),
(611,1286,o),
(559,1303,o),
(488,1303,cs),
(418,1303,o),
(366,1286,o),
(331,1251,cs),
(296,1216,o),
(279,1164,o),
(279,1094,cs)
);
},
{
closed = 1;
nodes = (
(395,240,o),
(403,264,o),
(419,279,cs),
(434,295,o),
(457,303,o),
(488,303,cs),
(519,303,o),
(543,295,o),
(558,279,cs),
(574,264,o),
(582,240,o),
(582,209,cs),
(582,178,o),
(574,155,o),
(558,140,cs),
(543,124,o),
(519,116,o),
(488,116,cs),
(457,116,o),
(434,124,o),
(419,140,cs),
(403,155,o),
(395,178,o),
(395,209,cs)
);
}
);
userData = {
assembly = "NPUSHB[ ]	/* 48 values pushed */
0 0 0 2 7 0 2 105 0 7 0 5 4 7 5 105 0 1 1 3 97 0 3 3 17 77 0 4 4 6 97 0 6 6 19 6 78 38 38 38 38 38 38 38 35 8 7 30 
CALL[ ]	/* CallFunction */";
};
width = 977;
}
);
note = uni17C7;
unicode = 6087;
},
{
glyphname = uni17C8;
lastChange = "2022-11-15 14:54:54 +0000";
layers = (
{
layerId = m01;
shapes = (
{
closed = 1;
nodes = (
(449,0,o),
(494,10,o),
(529,29,cs),
(564,48,o),
(590,77,o),
(605,115,c),
(574,97,o),
(550,88,o),
(535,88,cs),
(520,88,o),
(512,97,o),
(512,115,cs),
(512,154,o),
(502,184,o),
(483,203,cs),
(464,223,o),
(434,233,o),
(395,233,cs),
(356,233,o),
(327,223,o),
(308,204,cs),
(289,185,o),
(279,155,o),
(279,116,cs),
(279,77,o),
(289,48,o),
(308,29,cs),
(327,10,o),
(356,0,o),
(395,0,cs)
);
},
{
closed = 1;
nodes = (
(279,1006,o),
(289,977,o),
(308,958,cs),
(327,939,o),
(356,929,o),
(395,929,cs),
(449,929,o),
(494,939,o),
(529,958,cs),
(564,977,o),
(590,1006,o),
(605,1044,c),
(574,1026,o),
(550,1017,o),
(535,1017,cs),
(520,1017,o),
(512,1026,o),
(512,1044,cs),
(512,1083,o),
(502,1113,o),
(483,1132,cs),
(464,1152,o),
(434,1162,o),
(395,1162,cs),
(356,1162,o),
(327,1152,o),
(308,1133,cs),
(289,1114,o),
(279,1084,o),
(279,1045,cs)
);
}
);
userData = {
assembly = "NPUSHB[ ]	/* 70 values pushed */
36 1 5 4 16 1 2 1 2 76 0 5 4 3 4 5 3 128 0 2 1 0 1 2 0 128 0 4 7 1 3 1 4 3 105 0 1 1 0 97 6 1 0 0 19 0 78 21 20 1 0 35 33 29 27 20 39 21 39 15 13 9 7 0 19 1 19 8 7 22 
CALL[ ]	/* CallFunction */";
};
width = 791;
}
);
note = uni17C8;
unicode = 6088;
},
{
glyphname = uni17DC;
lastChange = "2022-11-15 14:54:54 +0000";
layers = (
{
layerId = m01;
shapes = (
{
closed = 1;
nodes = (
(988,-10,o),
(1150,123,o),
(1150,359,cs),
(1150,564,o),
(994,658,o),
(675,658,cs),
(543,658,o),
(466,671,o),
(422,724,cs),
(399,751,o),
(388,790,o),
(388,842,cs),
(388,974,o),
(487,1055,o),
(675,1055,cs),
(864,1055,o),
(963,1002,o),
(963,910,cs),
(963,871,o),
(949,851,o),
(922,851,cs),
(882,851,o),
(862,832,o),
(862,793,cs),
(862,754,o),
(882,734,o),
(922,734,cs),
(1027,734,o),
(1091,750,o),
(1125,802,cs),
(1142,827,o),
(1150,863,o),
(1150,910,cs),
(1150,1106,o),
(990,1210,o),
(675,1210,cs),
(362,1210,o),
(200,1078,o),
(200,842,cs),
(200,637,o),
(356,543,o),
(675,543,cs),
(808,543,o),
(884,531,o),
(929,478,cs),
(952,451,o),
(963,412,o),
(963,360,cs),
(963,227,o),
(864,146,o),
(675,146,cs),
(486,146,o),
(388,199,o),
(388,292,cs),
(388,331,o),
(402,350,o),
(429,350,cs),
(468,350,o),
(489,371,o),
(489,408,cs),
(489,448,o),
(469,468,o),
(429,468,cs),
(324,468,o),
(260,452,o),
(226,401,cs),
(209,376,o),
(200,340,o),
(200,293,cs),
(200,96,o),
(359,-10,o),
(675,-10,cs)
);
}
);
userData = {
assembly = "NPUSHB[ ]	/* 71 values pushed */
0 5 0 8 7 5 8 105 0 7 0 6 9 7 6 105 0 9 0 4 1 9 4 105 0 1 0 2 3 1 2 105 0 3 3 0 97 10 1 0 0 19 0 78 1 0 54 52 47 45 42 40 38 36 31 29 25 23 18 16 13 11 8 6 0 58 1 58 11 7 22 
CALL[ ]	/* CallFunction */";
};
width = 1350;
}
);
note = uni17DC;
unicode = 6108;
},
{
glyphname = uni1789.a;
lastChange = "2022-11-15 14:54:54 +0000";
layers = (
{
layerId = m01;
shapes = (
{
closed = 1;
nodes = (
(511,349,o),
(529,345,o),
(541,337,cs),
(552,330,o),
(558,318,o),
(558,303,cs),
(558,284,o),
(553,266,o),
(544,247,cs),
(535,229,o),
(521,211,o),
(503,192,cs),
(442,131,l),
(442,349,l),
(488,349,ls)
);
},
{
closed = 1;
nodes = (
(442,0,l),
(577,133,ls),
(602,157,o),
(620,183,o),
(633,212,cs),
(645,241,o),
(651,271,o),
(651,303,cs),
(651,349,o),
(637,384,o),
(610,408,cs),
(583,431,o),
(542,442,o),
(488,442,cs),
(442,442,l),
(442,1076,l),
(553,1173,l),
(722,1007,l),
(891,1173,l),
(1000,1075,l),
(1000,0,l),
(1163,0,l),
(1163,1039,l),
(1373,1155,l),
(1722,961,l),
(1722,0,l),
(1885,0,l),
(1885,1054,l),
(1443,1303,l),
(1100,1110,l),
(888,1303,l),
(722,1140,l),
(555,1303,l),
(279,1056,l),
(279,0,l)
);
}
);
userData = {
assembly = "NPUSHB[ ]	/* 57 values pushed */
2 1 1 0 1 76 41 40 39 38 37 24 23 22 21 20 17 16 15 12 14 3 74 0 3 5 1 0 1 3 0 105 4 2 2 1 1 19 1 78 1 0 36 35 27 25 19 18 14 13 0 10 1 10 6 7 22 
CALL[ ]	/* CallFunction */";
};
width = 2164;
}
);
note = uni1789.a;
},
{
glyphname = uni17BF.b;
lastChange = "2022-11-15 14:54:54 +0000";
layers = (
{
layerId = m01;
shapes = (
{
closed = 1;
nodes = (
(-147,1755,o),
(-93,1747,o),
(-46,1731,cs),
(0,1716,o),
(39,1693,o),
(70,1662,c),
(-256,1662,ls),
(-271,1662,o),
(-283,1666,o),
(-291,1674,cs),
(-298,1681,o),
(-302,1693,o),
(-302,1708,cs),
(-302,1723,o),
(-294,1735,o),
(-279,1743,cs),
(-264,1751,o),
(-240,1755,o),
(-209,1755,cs)
);
},
{
closed = 1;
nodes = (
(-442,-962,o),
(-415,-1020,o),
(-360,-1059,cs),
(-306,-1098,o),
(-225,-1117,o),
(-116,-1117,cs),
(117,-1117,ls),
(225,-1117,o),
(306,-1098,o),
(360,-1059,cs),
(415,-1020,o),
(442,-962,o),
(442,-884,cs),
(442,1383,ls),
(442,1444,o),
(427,1498,o),
(396,1545,cs),
(365,1591,o),
(318,1630,o),
(256,1662,c),
(256,1941,l),
(163,1941,l),
(163,1708,l),
(70,1778,l),
(70,1941,l),
(-23,1941,l),
(-23,1821,l),
(-54,1839,o),
(-116,1848,o),
(-209,1848,cs),
(-271,1848,o),
(-318,1836,o),
(-349,1813,cs),
(-380,1790,o),
(-395,1755,o),
(-395,1708,cs),
(-395,1661,o),
(-383,1626,o),
(-360,1603,cs),
(-337,1580,o),
(-303,1569,o),
(-256,1569,cs),
(163,1569,ls),
(202,1569,o),
(231,1553,o),
(251,1522,cs),
(270,1491,o),
(279,1445,o),
(279,1383,cs),
(279,-884,ls),
(279,-931,o),
(265,-966,o),
(238,-989,cs),
(211,-1012,o),
(171,-1024,o),
(117,-1024,cs),
(-116,-1024,ls),
(-171,-1024,o),
(-211,-1012,o),
(-238,-989,cs),
(-265,-966,o),
(-279,-931,o),
(-279,-884,cs),
(-279,-745,l),
(-442,-745,l),
(-442,-884,ls)
);
}
);
userData = {
assembly = "NPUSHB[ ]	/* 16 values pushed */
54 51 2 0 6 55 1 1 0 2 76 58 1 1 1 75 
MPPEM[ ]	/* MeasurePixelPerEm */
PUSHB[ ]	/* 1 value pushed */
9 
LT[ ]	/* LessThan */
IF[ ]	/* If */
NPUSHB[ ]	/* 48 values pushed */
8 1 7 6 1 7 112 0 3 5 4 5 3 4 128 0 6 9 1 0 1 6 0 105 0 1 0 5 3 1 5 104 0 4 2 2 4 87 0 4 4 2 95 0 2 4 2 79 
ELSE[ ]	/* Else */
NPUSHB[ ]	/* 47 values pushed */
8 1 7 6 7 133 0 3 5 4 5 3 4 128 0 6 9 1 0 1 6 0 105 0 1 0 5 3 1 5 104 0 4 2 2 4 87 0 4 4 2 95 0 2 4 2 79 
EIF[ ]	/* EndIf */
NPUSHB[ ]	/* 25 values pushed */
1 0 57 56 53 52 50 48 42 39 32 29 25 24 20 17 9 7 0 12 1 12 10 7 22 
CALL[ ]	/* CallFunction */";
};
width = 721;
}
);
note = uni17BF.b;
},
{
glyphname = uni17C0.b;
lastChange = "2022-11-15 14:54:54 +0000";
layers = (
{
layerId = m01;
shapes = (
{
closed = 1;
nodes = (
(279,-931,o),
(265,-966,o),
(238,-989,cs),
(211,-1012,o),
(171,-1024,o),
(117,-1024,cs),
(-116,-1024,ls),
(-171,-1024,o),
(-211,-1012,o),
(-238,-989,cs),
(-265,-966,o),
(-279,-931,o),
(-279,-884,cs),
(-279,-745,l),
(-442,-745,l),
(-442,-884,ls),
(-442,-962,o),
(-415,-1020,o),
(-360,-1059,cs),
(-306,-1098,o),
(-225,-1117,o),
(-116,-1117,cs),
(117,-1117,ls),
(225,-1117,o),
(306,-1098,o),
(360,-1059,cs),
(415,-1020,o),
(442,-962,o),
(442,-884,cs),
(442,1374,ls),
(442,1457,o),
(419,1520,o),
(373,1561,cs),
(326,1603,o),
(256,1624,o),
(163,1624,cs),
(-70,1624,ls),
(-108,1624,o),
(-137,1632,o),
(-157,1647,cs),
(-176,1662,o),
(-186,1686,o),
(-186,1717,cs),
(-186,1800,ls),
(-186,1847,o),
(-198,1882,o),
(-221,1905,cs),
(-244,1928,o),
(-280,1940,o),
(-327,1940,cs),
(-365,1940,o),
(-394,1932,o),
(-413,1917,cs),
(-432,1901,o),
(-442,1878,o),
(-442,1847,c),
(-411,1847,o),
(-387,1843,o),
(-372,1836,cs),
(-357,1828,o),
(-349,1816,o),
(-349,1800,cs),
(-349,1717,ls),
(-349,1655,o),
(-326,1608,o),
(-279,1577,cs),
(-232,1546,o),
(-163,1530,o),
(-70,1530,cs),
(163,1530,ls),
(202,1530,o),
(231,1517,o),
(251,1491,cs),
(270,1465,o),
(279,1426,o),
(279,1374,cs),
(279,-884,ls)
);
}
);
userData = {
assembly = "NPUSHB[ ]	/* 52 values pushed */
0 2 1 2 133 0 1 3 1 133 0 5 0 6 0 5 6 128 0 3 0 0 5 3 0 103 0 6 4 4 6 87 0 6 6 4 95 0 4 6 4 79 52 20 55 55 35 23 52 7 7 29 
CALL[ ]	/* CallFunction */";
};
width = 721;
}
);
note = uni17C0.b;
},
{
glyphname = uni1780_17B6;
lastChange = "2022-11-15 14:54:54 +0000";
layers = (
{
layerId = m01;
shapes = (
{
closed = 1;
nodes = (
(1163,776,o),
(1132,834,o),
(1070,873,cs),
(1008,912,o),
(915,931,o),
(791,931,cs),
(651,931,ls),
(527,931,o),
(434,912,o),
(372,873,cs),
(310,834,o),
(279,776,o),
(279,698,cs),
(279,0,l),
(442,0,l),
(442,698,ls),
(442,745,o),
(459,779,o),
(494,802,cs),
(529,826,o),
(582,838,o),
(651,838,cs),
(791,838,ls),
(860,838,o),
(913,826,o),
(948,802,cs),
(983,779,o),
(1001,745,o),
(1001,698,cs),
(1001,0,l),
(1163,0,l),
(1163,698,ls)
);
},
{
closed = 1;
nodes = (
(259,1011,ls),
(306,985,o),
(340,972,o),
(361,972,cs),
(363,972,ls),
(384,972,o),
(411,990,o),
(443,1025,c),
(368,1083,l),
(552,1169,l),
(1006,1002,l),
(1038,1001,l),
(1276,1153,l),
(1722,990,l),
(1722,0,l),
(1885,0,l),
(1885,1103,l),
(1339,1303,l),
(1088,1143,l),
(659,1303,l),
(617,1303,l),
(186,1102,l),
(186,1051,l)
);
}
);
userData = {
assembly = "NPUSHB[ ]	/* 68 values pushed */
43 40 39 33 32 31 28 24 8 5 7 27 1 6 5 2 76 44 1 7 74 0 5 7 6 7 5 6 128 0 6 3 7 6 3 126 0 3 0 1 0 3 1 106 0 7 7 17 77 4 2 2 0 0 19 0 78 20 52 19 21 52 20 52 16 8 7 30 
CALL[ ]	/* CallFunction */";
};
width = 1442;
}
);
note = uni1780_17B6;
},
{
glyphname = uni1780_17C5;
lastChange = "2022-11-15 14:54:54 +0000";
layers = (
{
layerId = m01;
shapes = (
{
closed = 1;
nodes = (
(1163,776,o),
(1132,834,o),
(1070,873,cs),
(1008,912,o),
(915,931,o),
(791,931,cs),
(651,931,ls),
(527,931,o),
(434,912,o),
(372,873,cs),
(310,834,o),
(279,776,o),
(279,698,cs),
(279,0,l),
(442,0,l),
(442,698,ls),
(442,745,o),
(459,779,o),
(494,802,cs),
(529,826,o),
(582,838,o),
(651,838,cs),
(791,838,ls),
(860,838,o),
(913,826,o),
(948,802,cs),
(983,779,o),
(1001,745,o),
(1001,698,cs),
(1001,0,l),
(1163,0,l),
(1163,698,ls)
);
},
{
closed = 1;
nodes = (
(259,1011,ls),
(306,985,o),
(340,972,o),
(361,972,cs),
(363,972,ls),
(384,972,o),
(411,990,o),
(443,1025,c),
(368,1083,l),
(552,1169,l),
(1006,1002,l),
(1038,1001,l),
(1276,1153,l),
(1722,990,l),
(1722,0,l),
(1885,0,l),
(1885,1024,l),
(1916,1086,o),
(1931,1133,o),
(1931,1164,cs),
(1931,1536,ls),
(1931,1598,o),
(1921,1645,o),
(1900,1676,cs),
(1879,1707,o),
(1847,1722,o),
(1804,1722,cs),
(1761,1722,o),
(1729,1714,o),
(1708,1699,cs),
(1687,1684,o),
(1676,1660,o),
(1676,1629,c),
(1707,1629,o),
(1731,1621,o),
(1746,1606,cs),
(1761,1591,o),
(1769,1567,o),
(1769,1536,cs),
(1769,1145,l),
(1339,1303,l),
(1088,1143,l),
(659,1303,l),
(617,1303,l),
(186,1102,l),
(186,1051,l)
);
}
);
userData = {
assembly = "NPUSHB[ ]	/* 83 values pushed */
45 43 40 39 33 32 31 28 24 9 5 7 27 1 6 5 2 76 44 1 7 1 75 0 9 8 9 133 0 8 7 8 133 0 5 7 6 7 5 6 128 0 6 3 7 6 3 126 0 3 0 1 0 3 1 106 0 7 7 17 77 4 2 2 0 0 19 0 78 55 53 23 20 52 19 21 52 20 52 16 10 7 31 
CALL[ ]	/* CallFunction */";
};
width = 1442;
}
);
note = uni1780_17C5;
},
{
glyphname = uni1781_17B6;
lastChange = "2022-11-15 14:54:54 +0000";
layers = (
{
layerId = m01;
shapes = (
{
closed = 1;
nodes = (
(457,908,o),
(469,906,o),
(476,902,cs),
(484,898,o),
(488,892,o),
(488,884,cs),
(488,869,o),
(484,858,o),
(476,850,cs),
(469,843,o),
(457,839,o),
(442,839,c),
(442,908,l)
);
},
{
closed = 1;
nodes = (
(279,155,o),
(310,97,o),
(372,58,cs),
(434,19,o),
(527,0,o),
(651,0,cs),
(791,0,ls),
(915,0,o),
(1008,33,o),
(1070,98,cs),
(1132,163,o),
(1163,254,o),
(1163,372,cs),
(1163,565,l),
(1000,478,l),
(1000,372,ls),
(1000,288,o),
(983,220,o),
(948,169,cs),
(913,118,o),
(860,93,o),
(791,93,cs),
(651,93,ls),
(582,93,o),
(529,105,o),
(494,128,cs),
(459,151,o),
(442,186,o),
(442,233,cs),
(442,423,l),
(1000,715,ls),
(1054,744,o),
(1095,775,o),
(1122,809,cs),
(1149,844,o),
(1163,884,o),
(1163,931,cs),
(1163,1075,l),
(1359,1163,l),
(1722,998,l),
(1722,0,l),
(1885,0,l),
(1885,1103,l),
(1443,1303,l),
(1142,1167,l),
(1127,1199,o),
(1103,1225,o),
(1070,1246,cs),
(1008,1284,o),
(915,1303,o),
(791,1303,cs),
(651,1303,ls),
(527,1303,o),
(434,1284,o),
(372,1246,cs),
(310,1207,o),
(279,1148,o),
(279,1071,cs),
(279,838,ls),
(279,807,o),
(293,783,o),
(320,768,cs),
(347,753,o),
(388,745,o),
(442,745,cs),
(489,745,o),
(524,757,o),
(547,780,cs),
(570,803,o),
(582,838,o),
(582,884,cs),
(582,923,o),
(570,952,o),
(547,972,cs),
(524,991,o),
(489,1001,o),
(442,1001,c),
(442,1071,ls),
(442,1117,o),
(459,1152,o),
(494,1175,cs),
(529,1198,o),
(582,1210,o),
(651,1210,cs),
(791,1210,ls),
(860,1210,o),
(913,1198,o),
(948,1175,cs),
(983,1152,o),
(1000,1117,o),
(1000,1071,cs),
(1000,931,ls),
(1000,892,o),
(986,856,o),
(959,825,cs),
(932,793,o),
(892,763,o),
(838,734,cs),
(279,442,l),
(279,233,ls)
);
}
);
userData = {
assembly = "NPUSHB[ ]	/* 26 values pushed */
78 77 73 71 4 4 3 76 5 0 3 0 4 33 22 21 10 4 1 5 3 76 72 1 6 74 
MPPEM[ ]	/* MeasurePixelPerEm */
PUSHB[ ]	/* 1 value pushed */
17 
LT[ ]	/* LessThan */
IF[ ]	/* If */
NPUSHB[ ]	/* 37 values pushed */
0 4 3 0 0 4 114 0 0 0 5 1 0 5 106 0 3 3 6 97 0 6 6 17 77 0 1 1 2 97 7 1 2 2 19 2 78 
ELSE[ ]	/* Else */
NPUSHB[ ]	/* 38 values pushed */
0 4 3 0 3 4 0 128 0 0 0 5 1 0 5 106 0 3 3 6 97 0 6 6 17 77 0 1 1 2 97 7 1 2 2 19 2 78 
EIF[ ]	/* EndIf */
NPUSHB[ ]	/* 11 values pushed */
22 55 38 20 61 57 60 17 8 7 30 
CALL[ ]	/* CallFunction */";
};
width = 1442;
}
);
note = uni1781_17B6;
},
{
glyphname = uni1781_17C5;
lastChange = "2022-11-15 14:54:54 +0000";
layers = (
{
layerId = m01;
shapes = (
{
closed = 1;
nodes = (
(1916,1086,o),
(1931,1133,o),
(1931,1164,cs),
(1931,1536,ls),
(1931,1598,o),
(1921,1645,o),
(1900,1676,cs),
(1879,1707,o),
(1847,1722,o),
(1804,1722,cs),
(1761,1722,o),
(1729,1714,o),
(1708,1699,cs),
(1687,1684,o),
(1676,1660,o),
(1676,1629,c),
(1707,1629,o),
(1731,1621,o),
(1746,1606,cs),
(1761,1591,o),
(1769,1567,o),
(1769,1536,cs),
(1769,1155,l),
(1443,1303,l),
(1142,1167,l),
(1127,1199,o),
(1103,1225,o),
(1070,1246,cs),
(1008,1284,o),
(915,1303,o),
(791,1303,cs),
(651,1303,ls),
(527,1303,o),
(434,1284,o),
(372,1246,cs),
(310,1207,o),
(279,1148,o),
(279,1071,cs),
(279,838,ls),
(279,807,o),
(293,783,o),
(320,768,cs),
(347,753,o),
(388,745,o),
(442,745,cs),
(489,745,o),
(524,757,o),
(547,780,cs),
(570,803,o),
(582,838,o),
(582,884,cs),
(582,923,o),
(570,952,o),
(547,972,cs),
(524,991,o),
(489,1001,o),
(442,1001,c),
(442,1071,ls),
(442,1117,o),
(459,1152,o),
(494,1175,cs),
(529,1198,o),
(582,1210,o),
(651,1210,cs),
(791,1210,ls),
(860,1210,o),
(913,1198,o),
(948,1175,cs),
(983,1152,o),
(1000,1117,o),
(1000,1071,cs),
(1000,931,ls),
(1000,892,o),
(986,856,o),
(959,825,cs),
(932,793,o),
(892,763,o),
(838,734,cs),
(279,442,l),
(279,233,ls),
(279,155,o),
(310,97,o),
(372,58,cs),
(434,19,o),
(527,0,o),
(651,0,cs),
(791,0,ls),
(915,0,o),
(1008,33,o),
(1070,98,cs),
(1132,163,o),
(1163,254,o),
(1163,372,cs),
(1163,565,l),
(1000,478,l),
(1000,372,ls),
(1000,288,o),
(983,220,o),
(948,169,cs),
(913,118,o),
(860,93,o),
(791,93,cs),
(651,93,ls),
(582,93,o),
(529,105,o),
(494,128,cs),
(459,151,o),
(442,186,o),
(442,233,cs),
(442,423,l),
(1000,715,ls),
(1054,744,o),
(1095,775,o),
(1122,809,cs),
(1149,844,o),
(1163,884,o),
(1163,931,cs),
(1163,1075,l),
(1359,1163,l),
(1722,998,l),
(1722,0,l),
(1885,0,l),
(1885,1024,l)
);
},
{
closed = 1;
nodes = (
(442,908,l),
(457,908,o),
(469,906,o),
(476,902,cs),
(484,898,o),
(488,892,o),
(488,884,cs),
(488,869,o),
(484,858,o),
(476,850,cs),
(469,843,o),
(457,839,o),
(442,839,c)
);
}
);
userData = {
assembly = "NPUSHB[ ]	/* 28 values pushed */
74 72 5 4 0 5 4 3 95 90 3 3 9 4 34 23 22 11 4 1 5 3 76 73 1 6 1 75 
MPPEM[ ]	/* MeasurePixelPerEm */
PUSHB[ ]	/* 1 value pushed */
17 
LT[ ]	/* LessThan */
IF[ ]	/* If */
NPUSHB[ ]	/* 47 values pushed */
0 8 7 8 133 0 7 6 7 133 0 4 3 9 9 4 114 0 9 0 5 1 9 5 106 0 3 3 6 97 0 6 6 17 77 0 1 1 0 97 2 1 0 0 19 0 78 
ELSE[ ]	/* Else */
NPUSHB[ ]	/* 48 values pushed */
0 8 7 8 133 0 7 6 7 133 0 4 3 9 3 4 9 128 0 9 0 5 1 9 5 106 0 3 3 6 97 0 6 6 17 77 0 1 1 0 97 2 1 0 0 19 0 78 
EIF[ ]	/* EndIf */
NPUSHB[ ]	/* 14 values pushed */
92 91 35 25 55 38 20 61 57 61 17 10 7 31 
CALL[ ]	/* CallFunction */";
};
width = 1442;
}
);
note = uni1781_17C5;
},
{
glyphname = uni1782_17B6;
lastChange = "2022-11-15 14:54:54 +0000";
layers = (
{
layerId = m01;
shapes = (
{
closed = 1;
nodes = (
(1088,1143,l),
(659,1303,l),
(617,1303,l),
(186,1102,l),
(186,1051,l),
(259,1011,ls),
(306,985,o),
(340,972,o),
(361,972,cs),
(363,972,ls),
(384,972,o),
(411,990,o),
(443,1025,c),
(368,1083,l),
(552,1169,l),
(1006,1002,l),
(1038,1001,l),
(1276,1153,l),
(1722,990,l),
(1722,0,l),
(1885,0,l),
(1885,1103,l),
(1339,1303,l)
);
},
{
closed = 1;
nodes = (
(442,0,l),
(442,48,l),
(547,192,ls),
(570,224,o),
(593,247,o),
(616,262,cs),
(639,275,o),
(668,282,o),
(705,282,cs),
(709,282,ls),
(748,282,o),
(776,297,o),
(791,326,cs),
(798,338,o),
(801,349,o),
(801,359,cs),
(801,375,o),
(794,389,o),
(780,402,cs),
(757,424,o),
(729,435,o),
(698,436,cs),
(667,436,o),
(636,428,o),
(605,413,cs),
(574,398,o),
(539,366,o),
(501,316,cs),
(442,239,l),
(442,698,ls),
(442,745,o),
(459,779,o),
(494,802,cs),
(529,826,o),
(582,838,o),
(651,838,cs),
(791,838,ls),
(860,838,o),
(913,826,o),
(948,802,cs),
(983,779,o),
(1001,745,o),
(1001,698,cs),
(1001,0,l),
(1163,0,l),
(1163,698,ls),
(1163,776,o),
(1132,834,o),
(1070,873,cs),
(1008,912,o),
(915,931,o),
(791,931,cs),
(651,931,ls),
(527,931,o),
(434,912,o),
(372,873,cs),
(310,834,o),
(279,776,o),
(279,698,cs),
(279,0,l)
);
}
);
userData = {
assembly = "NPUSHB[ ]	/* 88 values pushed */
19 16 15 9 8 7 4 0 8 1 3 3 1 2 1 31 1 5 4 41 22 2 0 5 4 76 20 1 3 74 0 1 3 2 3 1 2 128 0 2 7 3 2 7 126 0 7 0 9 4 7 9 106 0 4 0 5 0 4 5 105 0 3 3 17 77 8 6 2 0 0 19 0 78 62 59 20 52 21 54 40 20 52 19 17 10 7 31 
CALL[ ]	/* CallFunction */";
};
width = 1442;
}
);
note = uni1782_17B6;
},
{
glyphname = uni1782_17C5;
lastChange = "2022-11-15 14:54:54 +0000";
layers = (
{
layerId = m01;
shapes = (
{
closed = 1;
nodes = (
(1916,1086,o),
(1931,1133,o),
(1931,1164,cs),
(1931,1536,ls),
(1931,1598,o),
(1921,1645,o),
(1900,1676,cs),
(1879,1707,o),
(1847,1722,o),
(1804,1722,cs),
(1761,1722,o),
(1729,1714,o),
(1708,1699,cs),
(1687,1684,o),
(1676,1660,o),
(1676,1629,c),
(1707,1629,o),
(1731,1621,o),
(1746,1606,cs),
(1761,1591,o),
(1769,1567,o),
(1769,1536,cs),
(1769,1145,l),
(1339,1303,l),
(1088,1143,l),
(659,1303,l),
(617,1303,l),
(186,1102,l),
(186,1051,l),
(259,1011,ls),
(306,985,o),
(340,972,o),
(361,972,cs),
(363,972,ls),
(384,972,o),
(411,990,o),
(443,1025,c),
(368,1083,l),
(552,1169,l),
(1006,1002,l),
(1038,1001,l),
(1276,1153,l),
(1722,990,l),
(1722,0,l),
(1885,0,l),
(1885,1024,l)
);
},
{
closed = 1;
nodes = (
(442,0,l),
(442,48,l),
(547,192,ls),
(570,224,o),
(593,247,o),
(616,262,cs),
(639,275,o),
(668,282,o),
(705,282,cs),
(709,282,ls),
(748,282,o),
(776,297,o),
(791,326,cs),
(798,338,o),
(801,349,o),
(801,359,cs),
(801,375,o),
(794,389,o),
(780,402,cs),
(757,424,o),
(729,435,o),
(698,436,cs),
(667,436,o),
(636,428,o),
(605,413,cs),
(574,398,o),
(539,366,o),
(501,316,cs),
(442,239,l),
(442,698,ls),
(442,745,o),
(459,779,o),
(494,802,cs),
(529,826,o),
(582,838,o),
(651,838,cs),
(791,838,ls),
(860,838,o),
(913,826,o),
(948,802,cs),
(983,779,o),
(1001,745,o),
(1001,698,cs),
(1001,0,l),
(1163,0,l),
(1163,698,ls),
(1163,776,o),
(1132,834,o),
(1070,873,cs),
(1008,912,o),
(915,931,o),
(791,931,cs),
(651,931,ls),
(527,931,o),
(434,912,o),
(372,873,cs),
(310,834,o),
(279,776,o),
(279,698,cs),
(279,0,l)
);
}
);
userData = {
assembly = "NPUSHB[ ]	/* 104 values pushed */
21 19 16 15 9 8 7 4 0 9 1 3 3 1 2 1 47 1 7 6 57 38 2 0 7 4 76 20 1 3 1 75 0 5 4 5 133 0 4 3 4 133 0 1 3 2 3 1 2 128 0 2 9 3 2 9 126 0 9 0 11 6 9 11 106 0 6 0 7 0 6 7 105 0 3 3 17 77 10 8 2 0 0 19 0 78 78 75 71 70 66 63 21 54 43 35 23 20 52 19 17 12 7 31 
CALL[ ]	/* CallFunction */";
};
width = 1442;
}
);
note = uni1782_17C5;
},
{
glyphname = uni1783_17B6;
lastChange = "2022-11-15 14:54:54 +0000";
layers = (
{
layerId = m01;
shapes = (
{
closed = 1;
nodes = (
(248,954,o),
(225,959,o),
(209,969,cs),
(194,978,o),
(186,993,o),
(186,1014,cs),
(186,1028,o),
(194,1047,o),
(209,1072,cs),
(225,1097,o),
(248,1128,o),
(279,1163,c),
(279,954,l)
);
},
{
closed = 1;
nodes = (
(93,960,o),
(109,921,o),
(140,897,cs),
(171,873,o),
(217,861,o),
(279,861,c),
(279,233,ls),
(279,155,o),
(312,97,o),
(378,58,cs),
(444,19,o),
(543,0,o),
(675,0,cs),
(768,0,ls),
(847,0,o),
(912,5,o),
(963,14,cs),
(1015,23,o),
(1052,36,o),
(1075,55,c),
(1098,36,o),
(1137,23,o),
(1191,14,cs),
(1244,5,o),
(1313,0,o),
(1396,0,cs),
(1489,0,ls),
(1621,0,o),
(1720,19,o),
(1786,58,cs),
(1852,97,o),
(1885,155,o),
(1885,233,cs),
(1885,869,l),
(1688,996,l),
(1924,1152,l),
(2444,984,l),
(2444,0,l),
(2606,0,l),
(2606,1103,l),
(1986,1303,l),
(1559,1025,l),
(1559,965,l),
(1722,862,l),
(1722,233,ls),
(1722,186,o),
(1703,151,o),
(1664,128,cs),
(1625,105,o),
(1567,93,o),
(1489,93,cs),
(1396,93,ls),
(1319,93,o),
(1260,105,o),
(1221,128,cs),
(1183,151,o),
(1164,186,o),
(1164,233,cs),
(1164,869,l),
(943,1009,l),
(1033,1125,l),
(1107,1079,ls),
(1140,1058,o),
(1172,1047,o),
(1203,1047,cs),
(1234,1047,o),
(1275,1094,o),
(1326,1187,c),
(1280,1187,ls),
(1254,1187,o),
(1222,1199,o),
(1184,1223,cs),
(1055,1303,l),
(838,1025,l),
(838,965,l),
(1001,862,l),
(1001,233,ls),
(1001,186,o),
(981,151,o),
(942,128,cs),
(903,105,o),
(845,93,o),
(768,93,cs),
(675,93,ls),
(597,93,o),
(539,105,o),
(501,128,cs),
(462,151,o),
(442,186,o),
(442,233,cs),
(442,1303,l),
(279,1303,l),
(186,1198,ls),
(155,1163,o),
(132,1129,o),
(116,1098,cs),
(101,1067,o),
(93,1039,o),
(93,1013,cs)
);
}
);
userData = {
assembly = "NPUSHB[ ]	/* 103 values pushed */
78 74 57 1 4 7 6 79 77 72 71 58 47 46 7 0 7 80 70 59 45 4 3 0 14 1 1 5 4 76 73 48 2 4 74 0 6 0 7 0 6 7 105 10 1 0 0 3 5 0 3 105 0 4 4 17 77 8 1 5 5 1 97 9 2 11 3 1 1 19 1 78 11 9 0 0 76 75 66 63 55 53 52 50 41 38 34 33 25 24 20 17 9 84 11 84 0 8 0 8 12 7 22 
CALL[ ]	/* CallFunction */";
};
width = 2164;
}
);
note = uni1783_17B6;
},
